<svg width="30" height="30" viewBox="0 0 30 30" fill="none" xmlns="http://www.w3.org/2000/svg">
<g clip-path="url(#clip0_16_1037)">
<path d="M26.4 7H3.6C3.27 7 3 7.27 3 7.6V22.6C3 22.93 3.27 23.2 3.6 23.2H26.4C26.73 23.2 27 22.93 27 22.6V7.6C27 7.27 26.73 7 26.4 7ZM24.96 8.2L15 18.16L5.04 8.2H24.96ZM4.2 9.04L10.26 15.1L4.2 21.16V9.04ZM5.07 22L11.1 15.97L14.58 19.45C14.82 19.69 15.18 19.69 15.42 19.45L18.9 15.97L24.93 22H5.07ZM25.8 21.16L19.74 15.1L25.8 9.04V21.16Z" fill="black"/>
<path d="M241.2 -153V352.2H-294V-153H241.2ZM243.6 -155.4H-296.4V354.6H243.6V-155.4Z" fill="#0000FF"/>
</g>
<defs>
<clipPath id="clip0_16_1037">
<rect width="30" height="30" fill="white"/>
</clipPath>
</defs>
</svg>
