<svg width="20" height="20" viewBox="0 0 20 20" fill="none" xmlns="http://www.w3.org/2000/svg">
<g clip-path="url(#clip0_16_1040)">
<path d="M15.625 0.625L7.88188 8.3675C7.04143 8.11272 6.153 8.05827 5.28773 8.2085C4.42246 8.35874 3.60439 8.70949 2.89902 9.23267C2.19365 9.75585 1.62058 10.4369 1.2257 11.2214C0.830814 12.0058 0.625091 12.8718 0.625 13.75C0.625 15.2418 1.21763 16.6726 2.27252 17.7275C3.32742 18.7824 4.75816 19.375 6.25 19.375C7.12823 19.3748 7.99423 19.169 8.77864 18.7741C9.56306 18.3791 10.2441 17.806 10.7672 17.1005C11.2903 16.3951 11.641 15.577 11.7912 14.7117C11.9413 13.8464 11.8868 12.9579 11.6319 12.1175L13.125 10.625V9.375H14.375L19.375 4.375V0.625H15.625ZM18.125 3.85687L13.8575 8.125H11.875V10.1069L10.7481 11.2331L10.2181 11.7631L10.4356 12.48C10.5613 12.8938 10.625 13.3206 10.625 13.75C10.625 16.1625 8.66187 18.125 6.25 18.125C3.83812 18.125 1.875 16.1625 1.875 13.75C1.875 11.3375 3.83812 9.375 6.25 9.375C6.67875 9.375 7.10625 9.43875 7.51937 9.56375L8.23563 9.78125L8.76562 9.25125L16.1425 1.875H18.125V3.85687Z" fill="black"/>
<path d="M5 16.25C5.69036 16.25 6.25 15.6904 6.25 15C6.25 14.3096 5.69036 13.75 5 13.75C4.30964 13.75 3.75 14.3096 3.75 15C3.75 15.6904 4.30964 16.25 5 16.25Z" fill="black"/>
<path d="M12.9038 6.65436L16.6538 2.90436L17.0957 3.34623L13.3457 7.09623L12.9038 6.65436Z" fill="black"/>
</g>
<defs>
<clipPath id="clip0_16_1040">
<rect width="20" height="20" fill="white"/>
</clipPath>
</defs>
</svg>
