<svg width="22" height="23" viewBox="0 0 22 23" fill="none" xmlns="http://www.w3.org/2000/svg">
<path d="M19.9008 19.4446L16.5 15.9179C17.8201 14.1971 18.4594 12.013 18.2864 9.81458C18.1134 7.61616 17.1414 5.57058 15.5701 4.09845C13.9988 2.62632 11.9477 1.83953 9.83852 1.89987C7.72937 1.9602 5.7225 2.86308 4.23055 4.42284C2.7386 5.98261 1.87498 8.0807 1.81727 10.2857C1.75955 12.4907 2.51213 14.6351 3.92026 16.2778C5.32839 17.9205 7.28503 18.9368 9.38786 19.1176C11.4907 19.2984 13.5799 18.6301 15.2258 17.25L18.5992 20.7767C18.6844 20.8665 18.7858 20.9378 18.8975 20.9864C19.0092 21.0351 19.129 21.0601 19.25 21.0601C19.371 21.0601 19.4908 21.0351 19.6025 20.9864C19.7142 20.9378 19.8156 20.8665 19.9008 20.7767C20.0661 20.598 20.1584 20.3592 20.1584 20.1106C20.1584 19.8621 20.0661 19.6233 19.9008 19.4446ZM10.0833 17.25C8.81424 17.25 7.57364 16.8566 6.51843 16.1194C5.46321 15.3823 4.64077 14.3346 4.15511 13.1088C3.66945 11.883 3.54238 10.5342 3.78996 9.23294C4.03755 7.93165 4.64868 6.73634 5.54607 5.79816C6.44346 4.85998 7.5868 4.22107 8.83151 3.96223C10.0762 3.70339 11.3664 3.83624 12.5389 4.34397C13.7114 4.85171 14.7135 5.71154 15.4186 6.81472C16.1237 7.9179 16.5 9.21488 16.5 10.5417C16.5 12.3208 15.824 14.0271 14.6206 15.2852C13.4172 16.5432 11.7851 17.25 10.0833 17.25Z" fill="black"/>
</svg>
