<svg xmlns="http://www.w3.org/2000/svg" data-name="Layer 1" viewBox="0 0 48 48"><path fill="#4cb7d8" d="M45,9V32a4.98241,4.98241,0,0,1-5,5H23.81006a2.90725,2.90725,0,0,0-1.55.44,2.77494,2.77494,0,0,0-.7.58l-2.5,2.86-.79.9a2.99806,2.99806,0,0,1-2.25,1.03,2.82,2.82,0,0,1-.71-.09,2.98416,2.98416,0,0,1-2.21-2.19L12.79,39.27A2.99491,2.99491,0,0,0,9.87988,37H8a5.00181,5.00181,0,0,1-5-5V9A4.98228,4.98228,0,0,1,8,4H40A5.00181,5.00181,0,0,1,45,9Z"/><path fill="#44cdf2" d="M45,9V32a5.00388,5.00388,0,0,1-.79,2.71,5.004,5.004,0,0,1-2.71.79H25.31006a2.99128,2.99128,0,0,0-2.25,1.02l-.8.92a2.77494,2.77494,0,0,0-.7.58l-2.5,2.86a3.008,3.008,0,0,1-1.54.43,2.82,2.82,0,0,1-.71-.09,2.98416,2.98416,0,0,1-2.21-2.19L14.29,37.77a2.99491,2.99491,0,0,0-2.91016-2.27H9.5a5.00181,5.00181,0,0,1-5-5V7.5a5.00424,5.00424,0,0,1,.79-2.71A5.004,5.004,0,0,1,8,4H40A5.00181,5.00181,0,0,1,45,9Z"/><path fill="#f4ce2f" d="M20.80807 14.48436a1.06745 1.06745 0 01-.19319.24365l-.36956.36961-.84844.85679.56276 2.24286a1.401 1.401 0 010 .64684h-.00841a1.29136 1.29136 0 01-1.89006.798L16.12086 18.5333l-1.9321 1.10885a1.34246 1.34246 0 01-.63843.168 1.32239 1.32239 0 01-.78138-.26041 1.29852 1.29852 0 01-.47866-1.35248l.56275-2.24286L11.62663 14.728a1.294 1.294 0 01.5123-2.14212 1.26941 1.26941 0 01.4032-.06716h1.6214l.77276-1.79767a1.29492 1.29492 0 012.37734 0l.76435 1.79767h1.6212a1.291 1.291 0 011.20139.798A1.27433 1.27433 0 0120.80807 14.48436zM36.558 14.48438a.98255.98255 0 01-.18477.24363l-.378.378-.84841.84841.56273 2.24279a1.40094 1.40094 0 010 .64682 1.33509 1.33509 0 01-.47865.70563 1.30149 1.30149 0 01-1.41976.09238l-1.93205-1.1088L29.93884 19.642a1.34225 1.34225 0 01-.63841.168 1.29724 1.29724 0 01-1.26-1.61285l.56273-2.24279L27.3852 14.728a1.28826 1.28826 0 01.50388-2.142 1.364 1.364 0 01.4118-.06716H29.922l.76432-1.79762a1.29489 1.29489 0 012.37728 0l.77273 1.79762h1.62136A1.29092 1.29092 0 0136.558 14.48438z"/><path fill="#fefefe" d="M36 26.25H12a1 1 0 010-2H36a1 1 0 010 2zM36 31.25H12a1 1 0 010-2H36a1 1 0 010 2z"/><path fill="#232323" d="M16.0166,42.80566a3.00646,3.00646,0,0,1-2.91406-2.27343l-.31543-1.25977A2.99524,2.99524,0,0,0,9.877,37H8a5.00588,5.00588,0,0,1-5-5V9A5.00588,5.00588,0,0,1,8,4H40a5.00588,5.00588,0,0,1,5,5V32a5.00588,5.00588,0,0,1-5,5H23.81543a2.99825,2.99825,0,0,0-2.25781,1.02441l-3.28711,3.75586A2.9893,2.9893,0,0,1,16.0166,42.80566ZM8,6A3.00328,3.00328,0,0,0,5,9V32a3.00328,3.00328,0,0,0,3,3H9.877a4.9926,4.9926,0,0,1,4.85059,3.78809l.31543,1.25976a.99932.99932,0,0,0,1.72168.416L20.05176,36.708A5.001,5.001,0,0,1,23.81543,35H40a3.00328,3.00328,0,0,0,3-3V9a3.00328,3.00328,0,0,0-3-3Z"/><path fill="#232323" d="M12.86719 20.749A1.57409 1.57409 0 0111.33984 18.794l.68457-2.73633-1.48828-1.48828a1.574 1.574 0 011.11231-2.68653h1.9707l.93457-2.17871v-.001a1.57387 1.57387 0 012.89258 0l.93457 2.17968h1.9707a1.574 1.574 0 011.11231 2.68653l-1.48828 1.48828.68359 2.73535a1.57321 1.57321 0 01-2.30762 1.748L16 19.19727 13.64746 20.541A1.56547 1.56547 0 0112.86719 20.749zm-.18946-6.86621l.93165.93164a1.57544 1.57544 0 01.4121 1.498l-.499 1.99609 1.69727-.96875a1.579 1.579 0 011.56152 0l1.69629.96875-.5-2.001a1.57263 1.57263 0 01.41309-1.49317l.93164-.93164H18.09863a1.56938 1.56938 0 01-1.44629-.956L16 11.40527l-.65332 1.52344a1.56828 1.56828 0 01-1.44531.9541zM12.083 15.82324l-.001.00293zm7.833-.00488l.001.00391zM16.3916 10.49219zM28.86719 20.749A1.57409 1.57409 0 0127.33984 18.794l.68457-2.73633-1.48828-1.48828a1.574 1.574 0 011.11231-2.68653h1.9707l.93457-2.17871v-.001a1.57387 1.57387 0 012.89258 0l.93457 2.17968h1.9707a1.574 1.574 0 011.11231 2.68653l-1.48828 1.48828.68359 2.73535a1.57321 1.57321 0 01-2.30762 1.748L32 19.19727 29.64746 20.541A1.56547 1.56547 0 0128.86719 20.749zm-.18946-6.86621l.93165.93164a1.57544 1.57544 0 01.4121 1.498l-.499 1.99609 1.69727-.96875a1.579 1.579 0 011.56152 0l1.69629.96875-.5-2.001a1.57263 1.57263 0 01.41309-1.49317l.93164-.93164H34.09863a1.56938 1.56938 0 01-1.44629-.956L32 11.40527l-.65332 1.52344a1.56828 1.56828 0 01-1.44531.9541zM28.083 15.82324l-.001.00293zm7.833-.00488l.001.00391zM32.3916 10.49219z"/></svg>