<svg width="55" height="55" viewBox="0 0 55 55" fill="none" xmlns="http://www.w3.org/2000/svg">
<path d="M37.7438 32.6906L40.1672 47.2828L27.5 40.3906L14.8328 47.2828L16.3109 38.4141L17.2563 32.6906L11.7219 27.1047L7.01251 22.3437L21.175 20.2125L27.5 6.94375L31.2813 14.8844L33.3438 19.1984L33.825 20.2125L47.9875 22.3437L37.7438 32.6906Z" fill="#F47A9D"/>
<path d="M29.4594 11.0516L23.8906 22.7219L9.53908 24.8875L7.01251 22.3437L21.175 20.2125L27.5 6.94375L29.4594 11.0516Z" fill="#DFDFDF"/>
<path d="M37.8125 32.6563L40.2359 47.2484L27.5 40.3906L14.8328 47.2656L16.3109 38.3969C20.373 36.6243 24.0005 33.9888 26.9418 30.6736C29.8831 27.3583 32.0676 23.4427 33.3438 19.1984L33.825 20.2125L47.9875 22.3438L37.8125 32.6563Z" fill="#E85284"/>
<path d="M40.0742 47.6498L40.0638 47.6495L40.0535 47.6496C39.8935 47.6504 39.7361 47.6114 39.5959 47.5365C39.5957 47.5364 39.5954 47.5363 39.5952 47.5361L27.8879 41.2222L27.5319 41.0302L27.1758 41.2222L15.4711 47.5348C15.3185 47.6137 15.1468 47.6504 14.9741 47.6406C14.8001 47.6306 14.6327 47.5738 14.4899 47.4769C14.3472 47.38 14.2347 47.247 14.1638 47.0927C14.0952 46.9432 14.0678 46.7789 14.0842 46.6162L16.3241 33.1643L16.3875 32.7835L16.1146 32.5107L6.59736 22.9958L6.58129 22.9798L6.56429 22.9647C6.42764 22.8437 6.33018 22.6868 6.28271 22.5135C6.23525 22.3403 6.23951 22.1572 6.29504 21.9862C6.35059 21.8152 6.45536 21.6628 6.59767 21.548C6.74005 21.4333 6.91375 21.3613 7.09784 21.3418L7.11367 21.3401L7.12941 21.3378L20.2326 19.3843L20.6251 19.3258L20.7975 18.9683L26.6761 6.77933C26.6764 6.77881 26.6766 6.77829 26.6769 6.77777C26.7538 6.62107 26.8741 6.48792 27.025 6.39424C27.1764 6.30021 27.3521 6.25 27.5319 6.25C27.7117 6.25 27.8873 6.30021 28.0387 6.39424C28.1895 6.4879 28.3098 6.621 28.3868 6.77765C28.387 6.77821 28.3873 6.77877 28.3876 6.77933L34.266 18.9848L34.4386 19.3431L34.832 19.4013L47.9352 21.3379L47.938 21.3383C48.114 21.3637 48.2786 21.437 48.4136 21.5493C48.5486 21.6616 48.6485 21.8082 48.703 21.9722C48.7575 22.1362 48.7647 22.3117 48.7241 22.4793C48.6834 22.647 48.5961 22.801 48.4712 22.9236L48.4673 22.9275L38.8991 32.4592L38.625 32.7322L38.6886 33.1137L40.9319 46.5861L40.9335 46.5953L40.9352 46.6045C40.9686 46.7782 40.9512 46.958 40.8847 47.1226C40.8213 47.2798 40.7154 47.4176 40.5779 47.5207C40.4259 47.6088 40.2515 47.6538 40.0742 47.6498Z" stroke="black" stroke-width="1.5"/>
</svg>
