<svg width="50" height="50" viewBox="0 0 50 50" fill="none" xmlns="http://www.w3.org/2000/svg">
<path d="M47.9492 21.6309V28.3691L43.1475 28.8496L43.1465 28.8506C41.9126 28.0046 40.5076 27.4408 39.0312 27.1992C39.144 26.4716 39.2005 25.7363 39.2002 25C39.1974 22.1068 38.3081 19.2838 36.6522 16.9113C34.9963 14.5388 32.6533 12.7306 29.9385 11.7302C27.2237 10.7297 24.2676 10.5851 21.4681 11.3157C18.6687 12.0463 16.1603 13.6171 14.2806 15.8166C12.401 18.0161 11.2404 20.7388 10.9551 23.6179C10.6698 26.497 11.2735 29.3945 12.6849 31.9201C14.0964 34.4457 16.2477 36.4783 18.8493 37.7441C21.451 39.0099 24.378 39.4482 27.2363 39L27.2646 38.9951C27.5078 40.4316 28.0581 41.7986 28.8779 43.0029L28.3984 47.9795H21.6611L21.1797 42.9863C18.9949 42.502 16.916 41.6255 15.0439 40.3994L11.1943 43.5879L6.44238 38.8359L9.62988 34.9854C8.39363 33.1188 7.51663 31.0379 7.04395 28.8496L2.05078 28.3691V21.6309L7.04395 21.1504C7.52775 18.9656 8.40391 16.8867 9.62988 15.0146L6.44238 11.1641L11.1943 6.41211L15.0439 9.60059C16.9104 8.36402 18.9913 7.48669 21.1797 7.01367L21.6611 2.02051H28.3984L28.8799 7.01367C31.0647 7.49782 33.1437 8.37431 35.0156 9.60059L38.8662 6.41211L43.5576 11.1641L40.3701 15.0146C41.6064 16.8812 42.4834 18.9621 42.9561 21.1504L47.9492 21.6309Z" fill="#00ACEA"/>
<path d="M39.0312 27.1992C41.4218 27.5928 43.5951 28.822 45.1643 30.6678C46.7336 32.5137 47.5969 34.8565 47.6006 37.2793C47.6006 42.9209 43.0156 47.4941 37.3603 47.4941C35.6871 47.4959 34.0389 47.0874 32.5601 46.3044C31.0813 45.5214 29.817 44.3879 28.8779 43.0029C27.839 41.4648 27.2386 39.6728 27.1412 37.8192C27.0438 35.9656 27.4531 34.1205 28.3251 32.482C29.197 30.8434 30.4988 29.4733 32.0906 28.5187C33.6825 27.564 35.5042 27.061 37.3603 27.0635C37.9201 27.063 38.4789 27.1084 39.0312 27.1992V27.1992Z" fill="#00EFD1"/>
<path d="M39.2002 25C39.2005 25.7363 39.144 26.4716 39.0312 27.1992C37.0935 26.8815 35.1053 27.1241 33.3008 27.8984V27.3096C33.3008 26.3254 32.9098 25.3815 32.2139 24.6855C31.5179 23.9896 30.574 23.5986 29.5898 23.5986H28.5713L25.8984 30.9912L25.4414 26.3408H24.8389L24.3828 30.9736L21.666 23.5986H20.4102C19.426 23.5986 18.4821 23.9896 17.7861 24.6855C17.0902 25.3815 16.6992 26.3254 16.6992 27.3096V36.4404L16.6875 36.456C14.7279 35.0292 13.1671 33.1235 12.1543 30.9212C11.1415 28.7189 10.7105 26.2936 10.9026 23.8772C11.0947 21.4608 11.9034 19.1341 13.2514 17.1194C14.5994 15.1048 16.4417 13.4696 18.6021 12.3703C20.7625 11.2709 23.1688 10.7441 25.5909 10.8402C28.0131 10.9363 30.37 11.6521 32.4365 12.9192C34.5031 14.1863 36.21 15.9623 37.3942 18.0774C38.5783 20.1925 39.2002 22.576 39.2002 25V25ZM28.5381 18.4512V16.6191C28.5381 16.1818 28.4519 15.7488 28.2846 15.3448C28.1172 14.9407 27.872 14.5736 27.5627 14.2644C27.2535 13.9552 26.8864 13.7099 26.4824 13.5425C26.0783 13.3752 25.6453 13.2891 25.208 13.2891H24.792C23.9088 13.2891 23.0618 13.6399 22.4373 14.2644C21.8128 14.8889 21.4619 15.7359 21.4619 16.6191V18.4512C21.4619 19.3344 21.8128 20.1814 22.4373 20.8059C23.0618 21.4304 23.9088 21.7812 24.792 21.7812H25.208C25.6453 21.7812 26.0783 21.6951 26.4824 21.5278C26.8864 21.3604 27.2535 21.1151 27.5627 20.8059C27.872 20.4967 28.1172 20.1296 28.2846 19.7255C28.4519 19.3215 28.5381 18.8885 28.5381 18.4512V18.4512ZM25.8643 25.9394L26.5723 23.8652L23.623 23.8555L24.3311 25.9394H25.8643Z" fill="#D4E1F4"/>
<path d="M33.3008 27.3096V27.8984C31.196 28.8032 29.4565 30.3893 28.3618 32.4019C27.267 34.4144 26.8806 36.7365 27.2646 38.9951L27.2363 39C26.5065 39.1139 25.7689 39.171 25.0303 39.1709C22.0315 39.1755 19.1093 38.2246 16.6875 36.4561L16.6992 36.4404V27.3096C16.6992 26.3254 17.0902 25.3815 17.7861 24.6855C18.4821 23.9896 19.426 23.5986 20.4102 23.5986H21.666L24.3828 30.9736L23.9893 34.9678L25.1543 35.7344L26.29 34.9678L25.8984 30.9912L28.5713 23.5986H29.5898C30.574 23.5986 31.5179 23.9896 32.2139 24.6855C32.9098 25.3815 33.3008 26.3254 33.3008 27.3096V27.3096ZM28.5381 16.6191V18.4512C28.5381 18.8885 28.4519 19.3215 28.2846 19.7255C28.1172 20.1296 27.872 20.4967 27.5627 20.8059C27.2535 21.1151 26.8864 21.3604 26.4824 21.5278C26.0783 21.6951 25.6453 21.7812 25.208 21.7812H24.792C23.9088 21.7812 23.0618 21.4304 22.4373 20.8059C21.8128 20.1814 21.4619 19.3344 21.4619 18.4512V16.6191C21.4619 15.7359 21.8128 14.8889 22.4373 14.2644C23.0618 13.6399 23.9088 13.2891 24.792 13.2891H25.208C25.6453 13.2891 26.0783 13.3752 26.4824 13.5425C26.8864 13.7099 27.2535 13.9552 27.5627 14.2644C27.872 14.5736 28.1172 14.9408 28.2846 15.3448C28.4519 15.7488 28.5381 16.1818 28.5381 16.6191V16.6191Z" fill="#FEDB41"/>
<path d="M26.5723 23.8652L25.8643 25.9395H24.3311L23.623 23.8555L26.5723 23.8652Z" fill="#00ACEA"/>
<path d="M25.8984 30.9912L26.29 34.9678L25.1543 35.7344L23.9893 34.9678L24.3828 30.9736L24.8389 26.3408H25.4414L25.8984 30.9912Z" fill="#00ACEA"/>
<mask id="path-7-inside-1_328_908" fill="white">
<path d="M48.0147 20.9504L43.5115 20.5176C43.0394 18.5903 42.2648 16.75 41.2166 15.0651L44.0848 11.6004C44.1928 11.4699 44.2485 11.3038 44.2411 11.1346C44.2337 10.9653 44.1637 10.8048 44.0446 10.6842L39.3532 5.93222C39.2331 5.81054 39.0718 5.73829 38.901 5.72973C38.7302 5.72116 38.5625 5.77689 38.4308 5.88593L34.9609 8.75839C33.2747 7.71524 31.4371 6.93936 29.5135 6.4583L29.0792 1.95468C29.0629 1.78552 28.9841 1.62851 28.8583 1.51425C28.7325 1.4 28.5687 1.33671 28.3987 1.33672H21.6614C21.4915 1.33671 21.3276 1.4 21.2018 1.51425C21.076 1.62851 20.9973 1.78552 20.981 1.95468L20.5469 6.458C18.6196 6.93065 16.7793 7.70569 15.0945 8.75429L11.6309 5.88545C11.4998 5.77685 11.3329 5.72108 11.1628 5.72905C10.9928 5.73701 10.8318 5.80814 10.7114 5.92851L5.95947 10.6805C5.83911 10.8008 5.76799 10.9618 5.76 11.1318C5.75202 11.3018 5.80776 11.4687 5.91631 11.5998L8.78809 15.0694C7.74524 16.7558 6.96965 18.5933 6.48887 20.5169L1.98545 20.9503C1.81622 20.9665 1.65912 21.0453 1.5448 21.1711C1.43049 21.2969 1.36716 21.4608 1.36719 21.6309V28.3691C1.36718 28.5391 1.43049 28.703 1.54476 28.8288C1.65904 28.9546 1.81608 29.0333 1.98525 29.0496L6.48848 29.4824C6.96077 31.4097 7.73551 33.2501 8.78389 34.9349L5.91572 38.3996C5.80717 38.5307 5.75143 38.6976 5.75942 38.8676C5.7674 39.0376 5.83853 39.1986 5.95889 39.3189L10.7108 44.0709C10.8312 44.1913 10.9922 44.2624 11.1622 44.2704C11.3323 44.2783 11.4992 44.2226 11.6303 44.114L15.099 41.241C16.7855 42.2842 18.6232 43.0603 20.5469 43.5417L20.9811 48.0453C20.9974 48.2145 21.0761 48.3715 21.2019 48.4857C21.3277 48.6 21.4916 48.6633 21.6615 48.6633H28.3984C28.5684 48.6633 28.7323 48.6 28.8581 48.4857C28.9839 48.3714 29.0626 48.2144 29.0789 48.0452L29.3975 44.7394C30.4198 45.8258 31.6537 46.6913 33.0232 47.2826C34.3927 47.8739 35.8687 48.1786 37.3605 48.1778C43.3839 48.1778 48.2842 43.2889 48.2842 37.2794C48.2838 35.7971 47.9808 34.3305 47.3936 32.9695C46.8063 31.6085 45.9474 30.3817 44.8692 29.3644L48.0173 29.0494C48.186 29.0325 48.3424 28.9536 48.4561 28.8279C48.5699 28.7022 48.6328 28.5387 48.6328 28.3691V21.6309C48.6328 21.4609 48.5695 21.297 48.4552 21.1712C48.341 21.0454 48.1839 20.9667 48.0147 20.9504V20.9504ZM46.917 37.2793C46.917 42.5348 42.6299 46.8105 37.3605 46.8105C35.8153 46.8114 34.293 46.4376 32.9239 45.7214C31.5548 45.0052 30.3796 43.9678 29.4991 42.6981C29.4678 42.6304 29.4256 42.5683 29.3742 42.5142C28.3487 40.9611 27.8026 39.1408 27.8038 37.2798C27.8042 35.4167 28.3508 33.5946 29.3759 32.0388C30.401 30.4831 31.8597 29.262 33.5716 28.5267C35.0239 27.8994 36.6092 27.6425 38.1852 27.779C39.7613 27.9154 41.2788 28.441 42.6016 29.3086C43.9245 30.1762 45.0112 31.3586 45.7644 32.7498C46.5176 34.141 46.9136 35.6973 46.917 37.2793V37.2793ZM38.4396 26.4348C38.0824 26.3997 37.7218 26.3799 37.3604 26.3799C36.2075 26.3783 35.0618 26.5598 33.9659 26.9176C33.8669 25.8249 33.3632 24.8087 32.5536 24.0682C31.744 23.3277 30.687 22.9164 29.5898 22.915H28.5713C28.4308 22.915 28.2936 22.9583 28.1786 23.0391C28.0636 23.1198 27.9762 23.234 27.9284 23.3662L26.2832 27.917L26.1497 26.5596C26.2338 26.5211 26.3092 26.4659 26.3713 26.3973C26.4335 26.3288 26.481 26.2483 26.511 26.1608L27.219 24.0866C27.2541 23.9839 27.2642 23.8743 27.2485 23.7669C27.2328 23.6596 27.1918 23.5575 27.1288 23.4691C27.0658 23.3807 26.9827 23.3086 26.8863 23.2587C26.7899 23.2088 26.683 23.1826 26.5745 23.1822L23.6253 23.1725H23.623C23.5144 23.1725 23.4073 23.1984 23.3107 23.248C23.214 23.2976 23.1306 23.3696 23.0673 23.4579C23.004 23.5463 22.9627 23.6484 22.9468 23.7559C22.9309 23.8634 22.9408 23.9731 22.9758 24.076L23.6838 26.16C23.7184 26.2618 23.7767 26.354 23.8537 26.4291C23.9308 26.5042 24.0244 26.56 24.1271 26.592L23.9943 27.9421L22.3075 23.3623C22.2592 23.2311 22.1718 23.1178 22.0571 23.0378C21.9424 22.9578 21.8059 22.915 21.6661 22.9149H20.4102C19.2451 22.9163 18.1281 23.3797 17.3042 24.2035C16.4804 25.0274 16.0169 26.1444 16.0156 27.3095V35.0293C14.6112 33.7625 13.4877 32.2156 12.7174 30.4882C11.947 28.7609 11.547 26.8913 11.543 25C11.543 17.5631 17.5934 11.5127 25.0302 11.5127C32.467 11.5127 38.5166 17.563 38.5166 25C38.516 25.4793 38.4903 25.9582 38.4396 26.4348V26.4348ZM25.3753 25.2559H24.8208L24.5784 24.5422L25.6178 24.5457L25.3753 25.2559ZM25.0628 31.0406L25.1395 30.2611L25.5692 34.6291L25.1488 34.9128L24.7094 34.6237L25.0628 31.0406ZM17.3828 27.3096C17.3837 26.5069 17.703 25.7375 18.2705 25.1699C18.838 24.6024 19.6075 24.2831 20.4102 24.2822H21.1894L23.6871 31.0628L23.309 34.9007C23.2968 35.0247 23.3187 35.1497 23.3723 35.2621C23.426 35.3746 23.5094 35.4703 23.6135 35.5388L24.7785 36.3054C24.8912 36.3795 25.0234 36.4187 25.1583 36.4179C25.2932 36.4171 25.4249 36.3764 25.5367 36.3009L26.5663 35.6059C26.4209 36.5323 26.3976 37.4739 26.4968 38.4064C26.0097 38.4596 25.5201 38.4866 25.0302 38.4872C22.298 38.4935 19.6294 37.6634 17.3828 36.1085V27.3097V27.3096ZM26.8963 34.1474L26.5942 31.0777L29.051 24.2822H29.5898C30.3925 24.2831 31.162 24.6024 31.7295 25.1699C32.297 25.7375 32.6163 26.5069 32.6172 27.3096V27.4598C31.2512 28.1156 30.0369 29.0491 29.0519 30.2006C28.0668 31.352 27.3327 32.6962 26.8963 34.1474V34.1474ZM47.2656 27.7506L43.3203 28.1453C42.243 27.4409 41.0482 26.9351 39.7925 26.6519C39.8531 26.1034 39.8836 25.5519 39.8839 25C39.8839 16.8092 33.2206 10.1455 25.0304 10.1455C16.8401 10.1455 10.1758 16.8092 10.1758 25C10.1804 27.3405 10.7358 29.6472 11.7971 31.7333C12.8584 33.8194 14.3957 35.6265 16.2848 37.0084C18.822 38.8652 21.8862 39.8624 25.0303 39.8545C25.5954 39.8543 26.16 39.8223 26.7215 39.7585C27.0032 40.9741 27.4948 42.1313 28.1743 43.1779L27.7775 47.2959H22.282L21.8603 42.9209C21.8463 42.7766 21.7869 42.6405 21.6906 42.5322C21.5943 42.4239 21.4661 42.349 21.3244 42.3184C19.2203 41.8503 17.2181 41.0057 15.4146 39.8251C15.2925 39.7463 15.1485 39.7085 15.0034 39.7172C14.8584 39.7258 14.7199 39.7804 14.608 39.873L11.2377 42.6644L7.36582 38.7925L10.1562 35.4212C10.25 35.3079 10.3048 35.1674 10.3124 35.0206C10.32 34.8738 10.28 34.7284 10.1984 34.606C9.01052 32.8104 8.16728 30.8093 7.71182 28.705C7.68117 28.5633 7.60628 28.435 7.49795 28.3387C7.38962 28.2423 7.25348 28.1829 7.10918 28.169L2.73438 27.7481V22.2518L7.10938 21.8309C7.25367 21.817 7.38982 21.7576 7.49815 21.6612C7.60647 21.5649 7.68137 21.4366 7.71201 21.2949C8.17934 19.1908 9.02372 17.1887 10.2043 15.3853C10.2831 15.2633 10.321 15.1193 10.3124 14.9742C10.3038 14.8292 10.2492 14.6906 10.1565 14.5787L7.36582 11.2074L11.2377 7.33564L14.608 10.1269C14.7213 10.2207 14.8618 10.2755 15.0086 10.2831C15.1555 10.2908 15.3009 10.2508 15.4232 10.1692C17.2189 8.98108 19.2201 8.13752 21.3244 7.68164C21.4661 7.65098 21.5943 7.57609 21.6906 7.46778C21.7869 7.35948 21.8463 7.22337 21.8603 7.0791L22.282 2.7041H27.7776L28.1995 7.0791C28.2134 7.22337 28.2728 7.35948 28.3691 7.46778C28.4654 7.57609 28.5937 7.65098 28.7354 7.68164C30.8395 8.14937 32.8416 8.99403 34.6449 10.1748C34.767 10.2536 34.9111 10.2915 35.0561 10.2829C35.2012 10.2743 35.3397 10.2196 35.4517 10.1269L38.8198 7.33789L42.6367 11.2043L39.8438 14.5786C39.75 14.6919 39.6952 14.8323 39.6876 14.9792C39.68 15.126 39.72 15.2714 39.8016 15.3937C40.9895 17.1894 41.8327 19.1905 42.2882 21.2948C42.3188 21.4365 42.3937 21.5648 42.502 21.6611C42.6104 21.7575 42.7465 21.8169 42.8908 21.8308L47.2658 22.2518L47.2656 27.7506Z"/>
</mask>
<path d="M48.0147 20.9504L43.5115 20.5176C43.0394 18.5903 42.2648 16.75 41.2166 15.0651L44.0848 11.6004C44.1928 11.4699 44.2485 11.3038 44.2411 11.1346C44.2337 10.9653 44.1637 10.8048 44.0446 10.6842L39.3532 5.93222C39.2331 5.81054 39.0718 5.73829 38.901 5.72973C38.7302 5.72116 38.5625 5.77689 38.4308 5.88593L34.9609 8.75839C33.2747 7.71524 31.4371 6.93936 29.5135 6.4583L29.0792 1.95468C29.0629 1.78552 28.9841 1.62851 28.8583 1.51425C28.7325 1.4 28.5687 1.33671 28.3987 1.33672H21.6614C21.4915 1.33671 21.3276 1.4 21.2018 1.51425C21.076 1.62851 20.9973 1.78552 20.981 1.95468L20.5469 6.458C18.6196 6.93065 16.7793 7.70569 15.0945 8.75429L11.6309 5.88545C11.4998 5.77685 11.3329 5.72108 11.1628 5.72905C10.9928 5.73701 10.8318 5.80814 10.7114 5.92851L5.95947 10.6805C5.83911 10.8008 5.76799 10.9618 5.76 11.1318C5.75202 11.3018 5.80776 11.4687 5.91631 11.5998L8.78809 15.0694C7.74524 16.7558 6.96965 18.5933 6.48887 20.5169L1.98545 20.9503C1.81622 20.9665 1.65912 21.0453 1.5448 21.1711C1.43049 21.2969 1.36716 21.4608 1.36719 21.6309V28.3691C1.36718 28.5391 1.43049 28.703 1.54476 28.8288C1.65904 28.9546 1.81608 29.0333 1.98525 29.0496L6.48848 29.4824C6.96077 31.4097 7.73551 33.2501 8.78389 34.9349L5.91572 38.3996C5.80717 38.5307 5.75143 38.6976 5.75942 38.8676C5.7674 39.0376 5.83853 39.1986 5.95889 39.3189L10.7108 44.0709C10.8312 44.1913 10.9922 44.2624 11.1622 44.2704C11.3323 44.2783 11.4992 44.2226 11.6303 44.114L15.099 41.241C16.7855 42.2842 18.6232 43.0603 20.5469 43.5417L20.9811 48.0453C20.9974 48.2145 21.0761 48.3715 21.2019 48.4857C21.3277 48.6 21.4916 48.6633 21.6615 48.6633H28.3984C28.5684 48.6633 28.7323 48.6 28.8581 48.4857C28.9839 48.3714 29.0626 48.2144 29.0789 48.0452L29.3975 44.7394C30.4198 45.8258 31.6537 46.6913 33.0232 47.2826C34.3927 47.8739 35.8687 48.1786 37.3605 48.1778C43.3839 48.1778 48.2842 43.2889 48.2842 37.2794C48.2838 35.7971 47.9808 34.3305 47.3936 32.9695C46.8063 31.6085 45.9474 30.3817 44.8692 29.3644L48.0173 29.0494C48.186 29.0325 48.3424 28.9536 48.4561 28.8279C48.5699 28.7022 48.6328 28.5387 48.6328 28.3691V21.6309C48.6328 21.4609 48.5695 21.297 48.4552 21.1712C48.341 21.0454 48.1839 20.9667 48.0147 20.9504V20.9504ZM46.917 37.2793C46.917 42.5348 42.6299 46.8105 37.3605 46.8105C35.8153 46.8114 34.293 46.4376 32.9239 45.7214C31.5548 45.0052 30.3796 43.9678 29.4991 42.6981C29.4678 42.6304 29.4256 42.5683 29.3742 42.5142C28.3487 40.9611 27.8026 39.1408 27.8038 37.2798C27.8042 35.4167 28.3508 33.5946 29.3759 32.0388C30.401 30.4831 31.8597 29.262 33.5716 28.5267C35.0239 27.8994 36.6092 27.6425 38.1852 27.779C39.7613 27.9154 41.2788 28.441 42.6016 29.3086C43.9245 30.1762 45.0112 31.3586 45.7644 32.7498C46.5176 34.141 46.9136 35.6973 46.917 37.2793V37.2793ZM38.4396 26.4348C38.0824 26.3997 37.7218 26.3799 37.3604 26.3799C36.2075 26.3783 35.0618 26.5598 33.9659 26.9176C33.8669 25.8249 33.3632 24.8087 32.5536 24.0682C31.744 23.3277 30.687 22.9164 29.5898 22.915H28.5713C28.4308 22.915 28.2936 22.9583 28.1786 23.0391C28.0636 23.1198 27.9762 23.234 27.9284 23.3662L26.2832 27.917L26.1497 26.5596C26.2338 26.5211 26.3092 26.4659 26.3713 26.3973C26.4335 26.3288 26.481 26.2483 26.511 26.1608L27.219 24.0866C27.2541 23.9839 27.2642 23.8743 27.2485 23.7669C27.2328 23.6596 27.1918 23.5575 27.1288 23.4691C27.0658 23.3807 26.9827 23.3086 26.8863 23.2587C26.7899 23.2088 26.683 23.1826 26.5745 23.1822L23.6253 23.1725H23.623C23.5144 23.1725 23.4073 23.1984 23.3107 23.248C23.214 23.2976 23.1306 23.3696 23.0673 23.4579C23.004 23.5463 22.9627 23.6484 22.9468 23.7559C22.9309 23.8634 22.9408 23.9731 22.9758 24.076L23.6838 26.16C23.7184 26.2618 23.7767 26.354 23.8537 26.4291C23.9308 26.5042 24.0244 26.56 24.1271 26.592L23.9943 27.9421L22.3075 23.3623C22.2592 23.2311 22.1718 23.1178 22.0571 23.0378C21.9424 22.9578 21.8059 22.915 21.6661 22.9149H20.4102C19.2451 22.9163 18.1281 23.3797 17.3042 24.2035C16.4804 25.0274 16.0169 26.1444 16.0156 27.3095V35.0293C14.6112 33.7625 13.4877 32.2156 12.7174 30.4882C11.947 28.7609 11.547 26.8913 11.543 25C11.543 17.5631 17.5934 11.5127 25.0302 11.5127C32.467 11.5127 38.5166 17.563 38.5166 25C38.516 25.4793 38.4903 25.9582 38.4396 26.4348V26.4348ZM25.3753 25.2559H24.8208L24.5784 24.5422L25.6178 24.5457L25.3753 25.2559ZM25.0628 31.0406L25.1395 30.2611L25.5692 34.6291L25.1488 34.9128L24.7094 34.6237L25.0628 31.0406ZM17.3828 27.3096C17.3837 26.5069 17.703 25.7375 18.2705 25.1699C18.838 24.6024 19.6075 24.2831 20.4102 24.2822H21.1894L23.6871 31.0628L23.309 34.9007C23.2968 35.0247 23.3187 35.1497 23.3723 35.2621C23.426 35.3746 23.5094 35.4703 23.6135 35.5388L24.7785 36.3054C24.8912 36.3795 25.0234 36.4187 25.1583 36.4179C25.2932 36.4171 25.4249 36.3764 25.5367 36.3009L26.5663 35.6059C26.4209 36.5323 26.3976 37.4739 26.4968 38.4064C26.0097 38.4596 25.5201 38.4866 25.0302 38.4872C22.298 38.4935 19.6294 37.6634 17.3828 36.1085V27.3097V27.3096ZM26.8963 34.1474L26.5942 31.0777L29.051 24.2822H29.5898C30.3925 24.2831 31.162 24.6024 31.7295 25.1699C32.297 25.7375 32.6163 26.5069 32.6172 27.3096V27.4598C31.2512 28.1156 30.0369 29.0491 29.0519 30.2006C28.0668 31.352 27.3327 32.6962 26.8963 34.1474V34.1474ZM47.2656 27.7506L43.3203 28.1453C42.243 27.4409 41.0482 26.9351 39.7925 26.6519C39.8531 26.1034 39.8836 25.5519 39.8839 25C39.8839 16.8092 33.2206 10.1455 25.0304 10.1455C16.8401 10.1455 10.1758 16.8092 10.1758 25C10.1804 27.3405 10.7358 29.6472 11.7971 31.7333C12.8584 33.8194 14.3957 35.6265 16.2848 37.0084C18.822 38.8652 21.8862 39.8624 25.0303 39.8545C25.5954 39.8543 26.16 39.8223 26.7215 39.7585C27.0032 40.9741 27.4948 42.1313 28.1743 43.1779L27.7775 47.2959H22.282L21.8603 42.9209C21.8463 42.7766 21.7869 42.6405 21.6906 42.5322C21.5943 42.4239 21.4661 42.349 21.3244 42.3184C19.2203 41.8503 17.2181 41.0057 15.4146 39.8251C15.2925 39.7463 15.1485 39.7085 15.0034 39.7172C14.8584 39.7258 14.7199 39.7804 14.608 39.873L11.2377 42.6644L7.36582 38.7925L10.1562 35.4212C10.25 35.3079 10.3048 35.1674 10.3124 35.0206C10.32 34.8738 10.28 34.7284 10.1984 34.606C9.01052 32.8104 8.16728 30.8093 7.71182 28.705C7.68117 28.5633 7.60628 28.435 7.49795 28.3387C7.38962 28.2423 7.25348 28.1829 7.10918 28.169L2.73438 27.7481V22.2518L7.10938 21.8309C7.25367 21.817 7.38982 21.7576 7.49815 21.6612C7.60647 21.5649 7.68137 21.4366 7.71201 21.2949C8.17934 19.1908 9.02372 17.1887 10.2043 15.3853C10.2831 15.2633 10.321 15.1193 10.3124 14.9742C10.3038 14.8292 10.2492 14.6906 10.1565 14.5787L7.36582 11.2074L11.2377 7.33564L14.608 10.1269C14.7213 10.2207 14.8618 10.2755 15.0086 10.2831C15.1555 10.2908 15.3009 10.2508 15.4232 10.1692C17.2189 8.98108 19.2201 8.13752 21.3244 7.68164C21.4661 7.65098 21.5943 7.57609 21.6906 7.46778C21.7869 7.35948 21.8463 7.22337 21.8603 7.0791L22.282 2.7041H27.7776L28.1995 7.0791C28.2134 7.22337 28.2728 7.35948 28.3691 7.46778C28.4654 7.57609 28.5937 7.65098 28.7354 7.68164C30.8395 8.14937 32.8416 8.99403 34.6449 10.1748C34.767 10.2536 34.9111 10.2915 35.0561 10.2829C35.2012 10.2743 35.3397 10.2196 35.4517 10.1269L38.8198 7.33789L42.6367 11.2043L39.8438 14.5786C39.75 14.6919 39.6952 14.8323 39.6876 14.9792C39.68 15.126 39.72 15.2714 39.8016 15.3937C40.9895 17.1894 41.8327 19.1905 42.2882 21.2948C42.3188 21.4365 42.3937 21.5648 42.502 21.6611C42.6104 21.7575 42.7465 21.8169 42.8908 21.8308L47.2658 22.2518L47.2656 27.7506Z" fill="black" stroke="black" stroke-width="3" mask="url(#path-7-inside-1_328_908)"/>
<path d="M37.5859 31.2373C37.4046 31.2373 37.2308 31.3093 37.1026 31.4375C36.9744 31.5657 36.9023 31.7396 36.9023 31.9209V37.2716L34.2988 39.8751C34.1706 40.0033 34.0986 40.1772 34.0986 40.3585C34.0986 40.5398 34.1706 40.7137 34.2988 40.8419C34.427 40.9701 34.6009 41.0421 34.7822 41.0421C34.9635 41.0421 35.1374 40.9701 35.2656 40.8419L38.0693 38.0382C38.1328 37.9747 38.1832 37.8993 38.2175 37.8164C38.2519 37.7335 38.2695 37.6446 38.2695 37.5548V31.9209C38.2695 31.7396 38.1975 31.5657 38.0693 31.4375C37.9411 31.3093 37.7672 31.2373 37.5859 31.2373V31.2373ZM25.208 12.6055H24.792C23.7279 12.6067 22.7077 13.03 21.9553 13.7824C21.2028 14.5349 20.7796 15.555 20.7783 16.6191V18.4512C20.7795 19.5153 21.2028 20.5355 21.9552 21.2879C22.7077 22.0404 23.7279 22.4636 24.792 22.4648H25.208C26.2721 22.4636 27.2923 22.0403 28.0447 21.2879C28.7972 20.5355 29.2204 19.5153 29.2217 18.4512V16.6191C29.2204 15.555 28.7972 14.5349 28.0447 13.7824C27.2923 13.03 26.2721 12.6067 25.208 12.6055V12.6055ZM27.8545 18.4512C27.8537 19.1528 27.5746 19.8255 27.0785 20.3216C26.5823 20.8178 25.9097 21.0969 25.208 21.0977H24.792C24.0904 21.0968 23.4177 20.8177 22.9216 20.3216C22.4254 19.8255 22.1463 19.1528 22.1455 18.4512V16.6191C22.1463 15.9175 22.4254 15.2448 22.9215 14.7487C23.4177 14.2525 24.0903 13.9735 24.792 13.9727H25.208C25.9096 13.9735 26.5823 14.2526 27.0784 14.7487C27.5746 15.2448 27.8537 15.9175 27.8545 16.6191V18.4512Z" fill="black"/>
</svg>
