<svg xmlns="http://www.w3.org/2000/svg" width="28.996" height="27.005" viewBox="0 0 7.672 7.145"><g transform="translate(-38.232 -105.965)"><path fill="#ffccbc" d="m 38.893728,106.09783 h 6.350005 c 0.293158,0 0.529166,0.23601 0.529166,0.52917 v 3.96875 c 0,0.29315 -0.236008,0.52916 -0.529166,0.52916 h -3.968752 l -2.116668,1.85206 v -1.85206 h -0.264585 c -0.293158,0 -0.529166,-0.23601 -0.529166,-0.52916 V 106.627 c 0,-0.29316 0.236008,-0.52917 0.529166,-0.52917 z" color="#000" font-family="sans-serif" font-weight="400" overflow="visible" style="line-height:normal;font-variant-ligatures:normal;font-variant-position:normal;font-variant-caps:normal;font-variant-numeric:normal;font-variant-alternates:normal;font-variant-east-asian:normal;font-feature-settings:normal;font-variation-settings:normal;text-indent:0;text-align:start;text-decoration-line:none;text-decoration-style:solid;text-decoration-color:#000;text-transform:none;text-orientation:mixed;shape-padding:0;shape-margin:0;inline-size:0;isolation:auto;mix-blend-mode:normal"/><path d="m 38.894531,105.96484 c -0.36416,0 -0.662109,0.29795 -0.662109,0.66211 v 3.96875 c 0,0.36416 0.297949,0.66211 0.662109,0.66211 h 0.13086 v 1.71875 a 0.13230472,0.13230472 0 0 0 0.220703,0.0996 l 2.078125,-1.81836 h 3.919922 c 0.364159,0 0.660156,-0.29795 0.660156,-0.66211 v -3.96875 c 0,-0.36416 -0.295997,-0.66211 -0.660156,-0.66211 z m 0,0.26563 h 6.34961 c 0.222156,0 0.396484,0.17432 0.396484,0.39648 v 3.96875 c 0,0.22215 -0.174328,0.39649 -0.396484,0.39649 h -3.96875 a 0.13230472,0.13230472 0 0 0 -0.08789,0.0332 l -1.896484,1.6582 V 111.125 a 0.13230472,0.13230472 0 0 0 -0.132813,-0.13281 h -0.263672 c -0.222156,0 -0.398437,-0.17434 -0.398437,-0.39649 v -3.96875 c 0,-0.22216 0.176281,-0.39648 0.398436,-0.39648 z" color="#000" font-family="sans-serif" font-weight="400" overflow="visible" style="line-height:normal;font-variant-ligatures:normal;font-variant-position:normal;font-variant-caps:normal;font-variant-numeric:normal;font-variant-alternates:normal;font-variant-east-asian:normal;font-feature-settings:normal;font-variation-settings:normal;text-indent:0;text-align:start;text-decoration-line:none;text-decoration-style:solid;text-decoration-color:#000;text-transform:none;text-orientation:mixed;shape-padding:0;shape-margin:0;inline-size:0;isolation:auto;mix-blend-mode:normal"/><path fill="#ff7043" d="m 42.068751,107.15625 -0.635104,0.52917 h 1.270207 z m -1.322917,1.10226 -0.264583,0.22066 v 1.5875 h 3.175 v -1.5875 l -0.264584,-0.22066 v 0.30902 l -1.322916,0.70539 -1.322917,-0.70539 z" color="#000" font-family="sans-serif" font-weight="400" overflow="visible" style="line-height:normal;font-variant-ligatures:normal;font-variant-position:normal;font-variant-caps:normal;font-variant-numeric:normal;font-variant-alternates:normal;font-variant-east-asian:normal;font-feature-settings:normal;font-variation-settings:normal;text-indent:0;text-align:start;text-decoration-line:none;text-decoration-style:solid;text-decoration-color:#000;text-transform:none;text-orientation:mixed;shape-padding:0;shape-margin:0;inline-size:0;isolation:auto;mix-blend-mode:normal"/><path d="m 42.068359,107.02344 a 0.13230472,0.13230472 0 0 0 -0.08398,0.0312 l -0.634766,0.52929 a 0.13230472,0.13230472 0 0 0 0.08398,0.23438 h 1.269531 a 0.13230472,0.13230472 0 0 0 0.08594,-0.23438 l -0.634765,-0.52929 a 0.13230472,0.13230472 0 0 0 -0.08594,-0.0312 z m 0,0.30468 0.269532,0.22461 h -0.539063 z m -1.328125,0.79883 a 0.13230472,0.13230472 0 0 0 -0.08008,0.0293 l -0.263672,0.2207 a 0.13230472,0.13230472 0 0 0 -0.04687,0.10157 v 1.58789 a 0.13230472,0.13230472 0 0 0 0.13086,0.13281 h 3.175781 a 0.13230472,0.13230472 0 0 0 0.132812,-0.13281 v -1.58789 a 0.13230472,0.13230472 0 0 0 -0.04883,-0.10157 l -0.263672,-0.2207 a 0.13230472,0.13230472 0 0 0 -0.216796,0.10156 v 0.23047 l -1.191407,0.63477 -1.189453,-0.63477 v -0.23047 a 0.13230472,0.13230472 0 0 0 -0.138673,-0.13086 z m -0.126953,0.44141 a 0.13230472,0.13230472 0 0 0 0.07031,0.11523 l 1.322265,0.70703 a 0.13230472,0.13230472 0 0 0 0.125,0 l 1.322266,-0.70703 a 0.13230472,0.13230472 0 0 0 0.07031,-0.11523 v 1.36523 h -2.910157 z" color="#000" font-family="sans-serif" font-weight="400" overflow="visible" style="line-height:normal;font-variant-ligatures:normal;font-variant-position:normal;font-variant-caps:normal;font-variant-numeric:normal;font-variant-alternates:normal;font-variant-east-asian:normal;font-feature-settings:normal;font-variation-settings:normal;text-indent:0;text-align:start;text-decoration-line:none;text-decoration-style:solid;text-decoration-color:#000;text-transform:none;text-orientation:mixed;shape-padding:0;shape-margin:0;inline-size:0;isolation:auto;mix-blend-mode:normal"/><path fill="#ffccbc" d="m 40.745834,107.68542 v 0.57309 0.30902 l 1.322917,0.70539 1.322916,-0.70539 v -0.30902 -0.57309 h -0.687813 -1.270207 z" color="#000" font-family="sans-serif" font-weight="400" overflow="visible" style="line-height:normal;font-variant-ligatures:normal;font-variant-position:normal;font-variant-caps:normal;font-variant-numeric:normal;font-variant-alternates:normal;font-variant-east-asian:normal;font-feature-settings:normal;font-variation-settings:normal;text-indent:0;text-align:start;text-decoration-line:none;text-decoration-style:solid;text-decoration-color:#000;text-transform:none;text-orientation:mixed;shape-padding:0;shape-margin:0;inline-size:0;isolation:auto;mix-blend-mode:normal"/><path d="m 40.746094,107.55273 a 0.13230472,0.13230472 0 0 0 -0.132813,0.13282 v 0.57226 0.31055 a 0.13230472,0.13230472 0 0 0 0.07031,0.11523 l 1.322265,0.70703 a 0.13230472,0.13230472 0 0 0 0.125,0 l 1.322266,-0.70703 a 0.13230472,0.13230472 0 0 0 0.07031,-0.11523 v -0.31055 -0.57226 a 0.13230472,0.13230472 0 0 0 -0.13086,-0.13282 h -0.689453 -1.269531 z m 0.132812,0.26563 h 0.554688 1.269531 0.556641 v 0.43945 0.23047 l -1.191407,0.63477 -1.189453,-0.63477 v -0.23047 z" color="#000" font-family="sans-serif" font-weight="400" overflow="visible" style="line-height:normal;font-variant-ligatures:normal;font-variant-position:normal;font-variant-caps:normal;font-variant-numeric:normal;font-variant-alternates:normal;font-variant-east-asian:normal;font-feature-settings:normal;font-variation-settings:normal;text-indent:0;text-align:start;text-decoration-line:none;text-decoration-style:solid;text-decoration-color:#000;text-transform:none;text-orientation:mixed;shape-padding:0;shape-margin:0;inline-size:0;isolation:auto;mix-blend-mode:normal"/><path style="line-height:normal;font-variant-ligatures:normal;font-variant-position:normal;font-variant-caps:normal;font-variant-numeric:normal;font-variant-alternates:normal;font-variant-east-asian:normal;font-feature-settings:normal;font-variation-settings:normal;text-indent:0;text-align:start;text-decoration-line:none;text-decoration-style:solid;text-decoration-color:#000;text-transform:none;text-orientation:mixed;shape-padding:0;shape-margin:0;inline-size:0;isolation:auto;mix-blend-mode:normal" d="M41.539062 107.94922a.1322915.1322915 0 0 0-.130859.13281.1322915.1322915 0 0 0 .130859.13281h1.058594a.1322915.1322915 0 0 0 .132813-.13281.1322915.1322915 0 0 0-.132813-.13281zM41.539062 108.47852a.1322915.1322915 0 0 0-.130859.13281.1322915.1322915 0 0 0 .130859.13281h1.058594a.1322915.1322915 0 0 0 .132813-.13281.1322915.1322915 0 0 0-.132813-.13281z" color="#000" font-family="sans-serif" font-weight="400" overflow="visible"/></g></svg>