<svg xmlns="http://www.w3.org/2000/svg" xmlns:svgjs="http://svgjs.com/svgjs" xmlns:xlink="http://www.w3.org/1999/xlink" width="288" height="288"><svg xmlns="http://www.w3.org/2000/svg" width="288" height="288" viewBox="0 0 6.35 6.35"><path d="M2.118 290.915a.265.265 0 1 0 0 .529h.792v.545a2.386 2.386 0 0 0-2.116 2.364 2.388 2.388 0 0 0 2.382 2.382c1.312 0 2.38-1.07 2.38-2.382a2.385 2.385 0 0 0-2.116-2.365v-.544h.792a.265.265 0 1 0 0-.53zm1.058 1.587c1.026 0 1.851.826 1.851 1.851a1.848 1.848 0 0 1-1.85 1.853 1.85 1.85 0 0 1-1.854-1.853c0-1.025.828-1.85 1.853-1.85zm-.004.525a.265.265 0 0 0-.262.268v1.324a.265.265 0 0 0 .266.263h.793a.265.265 0 1 0 0-.529h-.53v-1.058a.265.265 0 0 0-.267-.268z" color="#000" font-family="sans-serif" font-weight="400" overflow="visible" transform="translate(0 -290.65)" style="line-height:normal;font-variant-ligatures:normal;font-variant-position:normal;font-variant-caps:normal;font-variant-numeric:normal;font-variant-alternates:normal;font-feature-settings:normal;text-indent:0;text-align:start;text-decoration-line:none;text-decoration-style:solid;text-decoration-color:#000;text-transform:none;text-orientation:mixed;shape-padding:0;isolation:auto;mix-blend-mode:normal" fill="#ffbf66" class="color000 svgShape"/></svg></svg>