<svg width="50" height="50" viewBox="0 0 50 50" fill="none" xmlns="http://www.w3.org/2000/svg">
<path d="M31.25 36.7188C32.7141 35.743 33.5938 34.0992 33.5938 32.3391V27.3438L36.2578 23.0813C37.0695 21.7828 37.5 20.2813 37.5 18.75H12.5C12.5 20.2813 12.9305 21.7828 13.7422 23.0813L16.4062 27.3438V32.3391C16.4062 34.0992 17.2859 35.7422 18.75 36.7188H31.25Z" fill="#FEFEFE"/>
<path d="M13.2812 18.75V13.2812C13.2812 6.80937 18.5281 1.5625 25 1.5625C31.4719 1.5625 36.7188 6.80937 36.7188 13.2812V18.75H13.2812Z" fill="#FEFEFE"/>
<path d="M30.9617 3.20547C29.6023 2.65391 28.1195 2.34375 26.5625 2.34375C20.0906 2.34375 14.8438 7.59062 14.8438 14.0625V18.75H36.7188V13.2812C36.7188 8.98906 34.4039 5.24688 30.9617 3.20547Z" fill="white"/>
<path d="M33.5938 32.3391V27.3438L36.2578 23.0813C37.0695 21.782 37.5 20.2813 37.5 18.75H14.0625C14.0625 20.2813 14.493 21.782 15.3047 23.0813L17.9688 27.3438V32.3391C17.9688 34.0992 18.8484 35.7422 20.3125 36.7188H31.25C32.7141 35.7422 33.5938 34.0992 33.5938 32.3391Z" fill="#A7A7A7"/>
<path d="M31.25 36.7188V39.8438H29.6875V45.3125L28.75 46.5625C27.8648 47.743 26.4758 48.4375 25 48.4375C23.5242 48.4375 22.1352 47.743 21.25 46.5625L20.3125 45.3125V39.8438H18.75V36.7188H31.25Z" fill="#919191"/>
<path d="M29.6875 41.4062H20.3125V42.9688H29.6875V41.4062Z" fill="#FEFEFE"/>
<path d="M21.875 36.7187H20.3125V26.7469L18.0508 22.2242L19.4484 21.525L21.7922 26.2125C21.8469 26.3211 21.875 26.4414 21.875 26.5625V36.7187Z" fill="#FEFEFE"/>
<path d="M25.7812 21.875H24.2188V36.7188H25.7812V21.875Z" fill="#FEFEFE"/>
<path d="M29.6875 36.7188H28.125V26.5625C28.125 26.4414 28.1531 26.3211 28.207 26.2133L30.5508 21.5258L31.9484 22.225L29.6875 26.7469V36.7188Z" fill="#FEFEFE"/>
<path d="M18.75 10.9375H17.1875C17.1875 7.49141 19.9914 4.6875 23.4375 4.6875V6.25C20.8523 6.25 18.75 8.35234 18.75 10.9375Z" fill="#FEFEFE"/>
<path d="M18.75 12.5H17.1875V14.0625H18.75V12.5Z" fill="#FEFEFE"/>
<path d="M20.3125 44.5312V45.3125L20.8984 46.0938H29.1016L29.6875 45.3125V44.5312H20.3125Z" fill="#FEFEFE"/>
</svg>
