<svg width="42" height="50" viewBox="0 0 42 50" fill="none" xmlns="http://www.w3.org/2000/svg">
<path d="M18.375 28.125C18.201 28.125 18.034 28.0427 17.911 27.8962C17.7879 27.7497 17.7188 27.551 17.7188 27.3438V24.0281C17.7186 23.0341 18.0363 22.0772 18.6071 21.3517C19.178 20.6263 19.9594 20.1866 20.7926 20.1219L34.9059 19.0625C35.4062 19.0247 35.8755 18.7612 36.2181 18.3257C36.5608 17.8902 36.751 17.3155 36.75 16.7188V10.1562C36.75 9.53465 36.5426 8.93851 36.1734 8.49897C35.8042 8.05943 35.3034 7.8125 34.7812 7.8125H32.1562C31.9822 7.8125 31.8153 7.73019 31.6922 7.58368C31.5691 7.43716 31.5 7.23845 31.5 7.03125C31.5 6.82405 31.5691 6.62534 31.6922 6.47882C31.8153 6.33231 31.9822 6.25 32.1562 6.25H34.7812C35.6515 6.25 36.4861 6.66155 37.1014 7.39411C37.7168 8.12668 38.0625 9.12025 38.0625 10.1562V16.7188C38.0626 17.7128 37.745 18.6697 37.1741 19.3952C36.6032 20.1206 35.8219 20.5603 34.9886 20.625L20.8753 21.6906C20.3751 21.7284 19.9058 21.9919 19.5631 22.4274C19.2205 22.863 19.0302 23.4377 19.0312 24.0344V27.3438C19.0312 27.551 18.9621 27.7497 18.839 27.8962C18.716 28.0427 18.549 28.125 18.375 28.125Z" fill="#DFDFDF"/>
<path d="M29.5312 0.78125H7.21875C5.769 0.78125 4.59375 2.18036 4.59375 3.90625V10.1562C4.59375 11.8821 5.769 13.2812 7.21875 13.2812H29.5312C30.981 13.2812 32.1562 11.8821 32.1562 10.1562V3.90625C32.1562 2.18036 30.981 0.78125 29.5312 0.78125Z" fill="white"/>
<path d="M21.6562 28.9062V45.3125C21.6562 46.3485 21.3105 47.3421 20.6952 48.0746C20.0798 48.8072 19.2452 49.2188 18.375 49.2188C17.5048 49.2188 16.6702 48.8072 16.0548 48.0746C15.4395 47.3421 15.0938 46.3485 15.0938 45.3125V28.9062C15.0938 28.4918 15.232 28.0944 15.4782 27.8014C15.7243 27.5084 16.0582 27.3438 16.4062 27.3438H20.3438C20.6918 27.3438 21.0257 27.5084 21.2718 27.8014C21.518 28.0944 21.6562 28.4918 21.6562 28.9062Z" fill="#DFDFDF"/>
<path d="M21.6562 41.4062V45.3125C21.6562 46.3485 21.3105 47.3421 20.6952 48.0746C20.0798 48.8072 19.2452 49.2188 18.375 49.2188C17.5048 49.2188 16.6702 48.8072 16.0548 48.0746C15.4395 47.3421 15.0938 46.3485 15.0938 45.3125V41.4062H21.6562ZM21.6562 32.0312H15.0938V28.9062C15.0938 28.4918 15.232 28.0944 15.4782 27.8014C15.7243 27.5084 16.0582 27.3438 16.4062 27.3438H20.3438C20.6918 27.3438 21.0257 27.5084 21.2718 27.8014C21.518 28.0944 21.6562 28.4918 21.6562 28.9062V32.0312Z" fill="#A5A5A5"/>
<path d="M18.375 46.875C18.7374 46.875 19.0312 46.5252 19.0312 46.0938C19.0312 45.6623 18.7374 45.3125 18.375 45.3125C18.0126 45.3125 17.7188 45.6623 17.7188 46.0938C17.7188 46.5252 18.0126 46.875 18.375 46.875Z" fill="#DFDFDF"/>
</svg>
