<svg width="15" height="15" viewBox="0 0 15 15" fill="none" xmlns="http://www.w3.org/2000/svg">
<g clip-path="url(#clip0_16_682)">
<path d="M12.2317 14.0211C11.7319 14.3771 8.52484 12.1203 7.91061 12.1154C7.29637 12.1105 4.05318 14.3153 3.55919 13.9513C3.0652 13.5873 4.22655 9.84846 4.04147 9.26445C3.8564 8.68044 0.751238 6.28605 0.945747 5.70507C1.1403 5.1241 5.06514 5.07014 5.56496 4.71413C6.06479 4.35816 7.38891 0.673493 8.00319 0.678411C8.61738 0.683371 9.88168 4.38886 10.3757 4.75287C10.8697 5.11683 14.7932 5.23399 14.9783 5.818C15.1634 6.40201 12.0199 8.74612 11.8254 9.32709C11.6309 9.90806 12.7316 13.6651 12.2317 14.0211Z" fill="#F8B84E"/>
</g>
<defs>
<clipPath id="clip0_16_682">
<rect width="15" height="15" fill="white"/>
</clipPath>
</defs>
</svg>
