<svg width="16" height="16" viewBox="0 0 16 16" fill="none" xmlns="http://www.w3.org/2000/svg">
<path d="M14.6631 6.62191C14.6899 6.43966 14.5638 6.27023 14.3815 6.24349L10.1784 5.63086L8.29884 1.8112C8.26897 1.76042 8.22661 1.71806 8.17583 1.68819C8.01079 1.59111 7.79827 1.64616 7.70118 1.8112L5.82162 5.63086L1.6185 6.24349C1.54631 6.25407 1.47958 6.28805 1.42856 6.34017C1.29969 6.4718 1.30197 6.68299 1.4336 6.81185L4.47527 9.78581L3.75717 13.9857C3.74496 14.0578 3.7568 14.132 3.7909 14.1967C3.87668 14.3597 4.07846 14.4224 4.24155 14.3366L8.00001 12.3548L11.7585 14.3366C11.8065 14.3617 11.8599 14.3749 11.9141 14.375C11.9326 14.375 11.9511 14.3735 11.9694 14.3704C12.1511 14.3396 12.2736 14.1674 12.2428 13.9857L11.5247 9.78581L14.5664 6.81185C14.6185 6.76083 14.6525 6.69409 14.6631 6.62191ZM10.9336 9.4316C10.8555 9.50814 10.8197 9.61804 10.8379 9.72587L11.4714 13.4316L8.15561 11.6829C8.10759 11.6578 8.05421 11.6447 8.00001 11.6445C7.94581 11.6447 7.89247 11.6578 7.84441 11.683L4.5287 13.4316L5.16212 9.72591C5.18031 9.61808 5.14454 9.50818 5.06642 9.43164L2.38152 6.80599L6.09116 6.26563C6.19968 6.24951 6.29339 6.18111 6.34181 6.08268L8.00001 2.71354L9.65821 6.08268C9.70663 6.18115 9.80034 6.24955 9.90886 6.26563L13.6185 6.80599L10.9336 9.4316Z" fill="white"/>
</svg>
