<svg width="50" height="50" viewBox="0 0 50 50" fill="none" xmlns="http://www.w3.org/2000/svg">
<g clip-path="url(#clip0_3_129)">
<path d="M44.3203 9.53121V40.4687C44.3203 45.0859 39.2344 48.0156 32.75 49.289C27.8516 50.2421 22.1406 50.2421 17.2422 49.289C10.7578 48.0234 5.67969 45.0859 5.67969 40.4765V9.53121C5.67969 6.42184 7.99219 4.07027 11.4922 2.47652C12.0938 2.20309 12.7344 1.95309 13.3984 1.72652C20.1328 -0.578163 29.8594 -0.578163 36.6016 1.72652C37.2656 1.95309 37.9062 2.20309 38.5078 2.47652C42 4.07027 44.3203 6.42184 44.3203 9.53121Z" fill="white"/>
<path d="M32.75 36.1016V49.2812C27.8516 50.2344 22.1406 50.2344 17.2422 49.2812V36.1016C17.2422 32.9531 19.7969 30.4062 22.9453 30.4062H27.0547C30.2031 30.3984 32.75 32.9531 32.75 36.1016Z" fill="#C4C5C4"/>
<path d="M25.0023 42.9781L26.3117 44.2875L25.0023 45.5969L23.693 44.2875L25.0023 42.9781Z" fill="#293B4E"/>
<path d="M25 40.5078C26.3333 40.5078 27.4141 39.427 27.4141 38.0938C27.4141 36.7605 26.3333 35.6797 25 35.6797C23.6668 35.6797 22.5859 36.7605 22.5859 38.0938C22.5859 39.427 23.6668 40.5078 25 40.5078Z" fill="#324A5E"/>
<path d="M25 38.9844C25.4919 38.9844 25.8906 38.5856 25.8906 38.0937C25.8906 37.6019 25.4919 37.2031 25 37.2031C24.5081 37.2031 24.1094 37.6019 24.1094 38.0937C24.1094 38.5856 24.5081 38.9844 25 38.9844Z" fill="#293B4E"/>
<path d="M25 33.1875C24.4844 33.1875 24.0625 32.7656 24.0625 32.25V29.7891H25.9453V32.25C25.9375 32.7656 25.5156 33.1875 25 33.1875Z" fill="white"/>
<path d="M25 16.9062C27.8132 16.9062 30.0938 14.6257 30.0938 11.8125C30.0938 8.9993 27.8132 6.71875 25 6.71875C22.1868 6.71875 19.9062 8.9993 19.9062 11.8125C19.9062 14.6257 22.1868 16.9062 25 16.9062Z" fill="#445B69"/>
<path d="M25 15.7422C27.1703 15.7422 28.9297 13.9828 28.9297 11.8125C28.9297 9.64219 27.1703 7.88281 25 7.88281C22.8297 7.88281 21.0703 9.64219 21.0703 11.8125C21.0703 13.9828 22.8297 15.7422 25 15.7422Z" fill="#506C72"/>
<path d="M25 15.2344C26.8898 15.2344 28.4219 13.7023 28.4219 11.8125C28.4219 9.92265 26.8898 8.39062 25 8.39062C23.1101 8.39062 21.5781 9.92265 21.5781 11.8125C21.5781 13.7023 23.1101 15.2344 25 15.2344Z" fill="#687D87"/>
<path d="M25 10.6797C24.4922 10.6797 24.0781 10.2656 24.0781 9.75781V7.05469C24.0781 6.54687 24.4922 6.13281 25 6.13281C25.5078 6.13281 25.9219 6.54687 25.9219 7.05469V9.75781C25.9219 10.2656 25.5078 10.6797 25 10.6797Z" fill="#C6C1C1"/>
<path d="M38.5078 2.48438V27.375C38.5078 27.8984 38.0781 28.3281 37.5547 28.3281C37.0312 28.3281 36.6016 27.8984 36.6016 27.375V1.73438C37.2656 1.96094 37.9063 2.21094 38.5078 2.48438ZM13.3984 1.73438V27.375C13.3984 27.8984 12.9688 28.3281 12.4453 28.3281C11.9219 28.3281 11.4922 27.8984 11.4922 27.375V2.48438C12.0938 2.21094 12.7344 1.96094 13.3984 1.73438Z" fill="#445B69"/>
<path d="M32.75 35.4844V36.1016C32.75 32.9531 30.2031 30.4062 27.0547 30.4062H22.9453C19.7969 30.4062 17.2422 32.9609 17.2422 36.1016V35.4844C17.2422 32.3359 19.7969 29.7891 22.9453 29.7891H27.0547C30.2031 29.7891 32.75 32.3437 32.75 35.4844Z" fill="#939393"/>
</g>
<defs>
<clipPath id="clip0_3_129">
<rect width="50" height="50" fill="white"/>
</clipPath>
</defs>
</svg>
