<svg width="45" height="50" viewBox="0 0 45 50" fill="none" xmlns="http://www.w3.org/2000/svg">
<path fill-rule="evenodd" clip-rule="evenodd" d="M12.6816 42.9688C12.6816 42.5375 12.3666 42.1875 11.9784 42.1875H6.32812C5.94 42.1875 5.625 42.5375 5.625 42.9688V46.0938C5.625 46.525 5.94 46.875 6.32812 46.875H11.9784C12.3666 46.875 12.6816 46.525 12.6816 46.0938V42.9688ZM39.375 42.9688C39.375 42.5375 39.06 42.1875 38.6719 42.1875H33.0216C32.6334 42.1875 32.3184 42.5375 32.3184 42.9688V46.0938C32.3184 46.525 32.6334 46.875 33.0216 46.875H38.6719C39.06 46.875 39.375 46.525 39.375 46.0938V42.9688Z" fill="#B47B44"/>
<path fill-rule="evenodd" clip-rule="evenodd" d="M33.5713 2.63724C33.4379 2.45195 33.2359 2.34451 33.0219 2.34451C32.8089 2.34451 32.606 2.45195 32.4726 2.63724L29.6609 6.54361C29.4914 6.77843 29.4589 7.09946 29.5757 7.37031C29.6933 7.64116 29.9388 7.81293 30.2093 7.81293H35.8345C36.1051 7.81293 36.3515 7.64116 36.4682 7.37031C36.5849 7.09946 36.5525 6.77843 36.3839 6.54361L33.5713 2.63724ZM33.0219 4.3762L34.3717 6.2509H31.6721L33.0219 4.3762Z" fill="#B47B44"/>
<path fill-rule="evenodd" clip-rule="evenodd" d="M41.4844 34.375H3.51562C3.1275 34.375 2.8125 34.725 2.8125 35.1562V40.625C2.8125 41.4539 3.10851 42.2484 3.63656 42.8344C4.1639 43.4211 4.87898 43.75 5.625 43.75H39.375C40.121 43.75 40.8361 43.4211 41.3634 42.8344C41.8915 42.2484 42.1875 41.4539 42.1875 40.625C42.1875 38.3234 42.1875 35.1562 42.1875 35.1562C42.1875 34.725 41.8725 34.375 41.4844 34.375Z" fill="#EAC77D"/>
<path fill-rule="evenodd" clip-rule="evenodd" d="M21.7969 43.75H23.2031V35.1562C23.2031 34.725 22.8881 34.375 22.5 34.375C22.1119 34.375 21.7969 34.725 21.7969 35.1562V43.75Z" fill="#B47B44"/>
<path fill-rule="evenodd" clip-rule="evenodd" d="M39.375 8.59375C39.375 7.97187 39.1528 7.37578 38.757 6.93672C38.3618 6.49687 37.8253 6.25 37.2656 6.25H28.8281C28.2684 6.25 27.732 6.49687 27.3368 6.93672C26.9409 7.37578 26.7188 7.97187 26.7188 8.59375C26.7188 11.5875 26.7188 18.1 26.7188 21.0938C26.7188 21.7156 26.9409 22.3117 27.3368 22.7508C27.732 23.1906 28.2684 23.4375 28.8281 23.4375H37.2656C37.8253 23.4375 38.3618 23.1906 38.757 22.7508C39.1528 22.3117 39.375 21.7156 39.375 21.0938V8.59375Z" fill="#EAC77D"/>
<path fill-rule="evenodd" clip-rule="evenodd" d="M36.5372 10.1914C36.5372 9.76016 36.2222 9.41016 35.8341 9.41016H30.2597C29.8716 9.41016 29.5566 9.76016 29.5566 10.1914V19.5664C29.5566 19.9977 29.8716 20.3477 30.2597 20.3477H35.8341C36.2222 20.3477 36.5372 19.9977 36.5372 19.5664V10.1914ZM12.6562 15.182V11.7188C12.6562 11.2875 12.3412 10.9375 11.9531 10.9375H7.70905C7.32093 10.9375 7.00593 11.2875 7.00593 11.7188V15.2047C5.75507 16.3273 4.92188 18.193 4.92188 20.3125C4.92188 23.793 7.15922 26.5625 9.84375 26.5625C12.5283 26.5625 14.7656 23.793 14.7656 20.3125C14.7656 18.1789 13.9219 16.3031 12.6562 15.182Z" fill="#A1E0FF"/>
<path fill-rule="evenodd" clip-rule="evenodd" d="M42.1875 28.1602C42.1875 26.4344 40.9282 25.0352 39.375 25.0352C32.7291 25.0352 12.2709 25.0352 5.625 25.0352C4.0718 25.0352 2.8125 26.4344 2.8125 28.1602C2.8125 30.9266 2.8125 35.1563 2.8125 35.1563C2.8125 35.5875 3.1275 35.9375 3.51562 35.9375H41.4844C41.8725 35.9375 42.1875 35.5875 42.1875 35.1563V28.1602Z" fill="#B47B44"/>
<path fill-rule="evenodd" clip-rule="evenodd" d="M10.1954 39.8438H15.8204C16.2085 39.8438 16.5235 39.4937 16.5235 39.0625C16.5235 38.6313 16.2085 38.2812 15.8204 38.2812H10.1954C9.80728 38.2812 9.49228 38.6313 9.49228 39.0625C9.49228 39.4937 9.80728 39.8438 10.1954 39.8438Z" fill="black"/>
<path fill-rule="evenodd" clip-rule="evenodd" d="M29.1798 39.8438H34.8048C35.1929 39.8438 35.5079 39.4937 35.5079 39.0625C35.5079 38.6313 35.1929 38.2812 34.8048 38.2812H29.1798C28.7917 38.2812 28.4767 38.6313 28.4767 39.0625C28.4767 39.4937 28.7917 39.8438 29.1798 39.8438Z" fill="black"/>
<path fill-rule="evenodd" clip-rule="evenodd" d="M18.9839 31.25H26.0151C26.4032 31.25 26.7182 30.9 26.7182 30.4688C26.7182 30.0375 26.4032 29.6875 26.0151 29.6875H18.9839C18.5957 29.6875 18.2807 30.0375 18.2807 30.4688C18.2807 30.9 18.5957 31.25 18.9839 31.25Z" fill="black"/>
<path fill-rule="evenodd" clip-rule="evenodd" d="M5.625 43.75V46.0938C5.625 46.525 5.94 46.875 6.32812 46.875H11.9784C12.3666 46.875 12.6816 46.525 12.6816 46.0938V43.75H32.3184V46.0938C32.3184 46.525 32.6334 46.875 33.0216 46.875H38.6719C39.06 46.875 39.375 46.525 39.375 46.0938V43.75C40.121 43.75 40.8361 43.4211 41.3634 42.8344C41.8915 42.2484 42.1875 41.4539 42.1875 40.625V28.1602C42.1875 26.4344 40.9282 25.0352 39.375 25.0352C32.7291 25.0352 12.2709 25.0352 5.625 25.0352C4.0718 25.0352 2.8125 26.4344 2.8125 28.1602V40.625C2.8125 41.4539 3.10851 42.2484 3.63656 42.8344C4.1639 43.4211 4.87898 43.75 5.625 43.75ZM7.03125 43.75H11.2753V45.3125H7.03125V43.75ZM33.7247 43.75H37.9688V45.3125H33.7247V43.75ZM6.32812 42.1875H21.7969V35.9375H4.21875V40.625C4.21875 41.0391 4.36711 41.4367 4.63078 41.7297C4.89445 42.0227 5.25234 42.1875 5.625 42.1875H6.32812ZM23.2031 42.1875H39.375C39.7477 42.1875 40.1055 42.0227 40.3692 41.7297C40.6329 41.4367 40.7812 41.0391 40.7812 40.625V35.9375H23.2031V42.1875ZM40.7812 34.375H4.21875V28.1602C4.21875 27.2969 4.84805 26.5977 5.625 26.5977C12.2709 26.5977 32.7291 26.5977 39.375 26.5977C40.152 26.5977 40.7812 27.2969 40.7812 28.1602V34.375ZM29.8709 6.25H28.8281C28.2684 6.25 27.732 6.49687 27.3368 6.93672C26.9409 7.37578 26.7188 7.97187 26.7188 8.59375C26.7188 11.5875 26.7188 18.1 26.7188 21.0938C26.7188 21.7156 26.9409 22.3117 27.3368 22.7508C27.732 23.1906 28.2684 23.4375 28.8281 23.4375H37.2656C37.8253 23.4375 38.3618 23.1906 38.757 22.7508C39.1528 22.3117 39.375 21.7156 39.375 21.0938V8.59375C39.375 7.97187 39.1528 7.37578 38.757 6.93672C38.3618 6.49687 37.8253 6.25 37.2656 6.25H36.1723L33.5707 2.63672C33.4371 2.45156 33.2353 2.34375 33.0216 2.34375C32.8078 2.34375 32.606 2.45156 32.4724 2.63672L29.8709 6.25ZM37.9688 8.59375V21.0938C37.9688 21.3008 37.8949 21.5 37.7627 21.6461C37.6313 21.793 37.452 21.875 37.2656 21.875H28.8281C28.6418 21.875 28.4625 21.793 28.331 21.6461C28.1988 21.5 28.125 21.3008 28.125 21.0938V8.59375C28.125 8.38672 28.1988 8.1875 28.331 8.04141C28.4625 7.89453 28.6418 7.8125 28.8281 7.8125H37.2656C37.452 7.8125 37.6313 7.89453 37.7627 8.04141C37.8949 8.1875 37.9688 8.38672 37.9688 8.59375ZM36.5372 10.1914C36.5372 9.76015 36.2222 9.41015 35.8341 9.41015H30.2597C29.8716 9.41015 29.5566 9.76015 29.5566 10.1914V19.5664C29.5566 19.9977 29.8716 20.3477 30.2597 20.3477H35.8341C36.2222 20.3477 36.5372 19.9977 36.5372 19.5664V10.1914ZM35.1309 10.9727V18.7852H30.9628V10.9727H35.1309ZM34.3709 6.25H31.6723L33.0216 4.37578L34.3709 6.25Z" fill="black"/>
<path fill-rule="evenodd" clip-rule="evenodd" d="M9.14062 7.8125H7.73438C7.34625 7.8125 7.03125 8.1625 7.03125 8.59375C7.03125 9.025 7.34625 9.375 7.73438 9.375H9.14062V10.9375H7.70905C7.32093 10.9375 7.00593 11.2875 7.00593 11.7188V15.2047C5.75507 16.3273 4.92188 18.193 4.92188 20.3125C4.92188 23.793 7.15922 26.5625 9.84375 26.5625C12.5283 26.5625 14.7656 23.793 14.7656 20.3125C14.7656 18.1789 13.9219 16.3031 12.6562 15.182V11.7188C12.6562 11.2875 12.3412 10.9375 11.9531 10.9375H10.5469V6.25H11.9531C12.3412 6.25 12.6562 5.9 12.6562 5.46875C12.6562 5.0375 12.3412 4.6875 11.9531 4.6875H10.5469V3.125C10.5469 2.69375 10.2319 2.34375 9.84375 2.34375C9.45563 2.34375 9.14062 2.69375 9.14062 3.125V7.8125ZM11.25 15.5766C11.25 15.8359 11.366 16.0781 11.5594 16.2234C12.645 17.0383 13.3594 18.5703 13.3594 20.3125C13.3594 22.8695 11.816 25 9.84375 25C7.87148 25 6.32812 22.8695 6.32812 20.3125C6.32812 18.582 7.03266 17.0586 8.10703 16.2398C8.29828 16.0938 8.41218 15.8531 8.41218 15.5953V12.5H11.25V15.5766Z" fill="black"/>
</svg>
