<svg width="20" height="20" viewBox="0 0 20 20" fill="none" xmlns="http://www.w3.org/2000/svg">
<path d="M12.5681 9.76258L12.3207 10.01L12.5681 10.2575L19.1431 16.8341C19.1431 16.8341 19.1431 16.8342 19.1432 16.8342C19.3733 17.0644 19.53 17.3578 19.5934 17.6771C19.6569 17.9965 19.6243 18.3276 19.4998 18.6284C19.3752 18.9292 19.1643 19.1864 18.8937 19.3673C18.6231 19.5482 18.305 19.6448 17.9795 19.6449H17.9792C17.7632 19.6451 17.5493 19.6027 17.3497 19.5201C17.1502 19.4374 16.9689 19.3162 16.8163 19.1633L16.8161 19.1631L10.241 12.5864L9.99347 12.3388L9.74595 12.5864L3.1576 19.1771C3.15727 19.1774 3.15693 19.1777 3.1566 19.1781C2.84722 19.4821 2.43039 19.6517 1.99671 19.65C1.56256 19.6483 1.14666 19.475 0.839593 19.1679C0.532525 18.8608 0.359183 18.4447 0.357364 18.0103C0.355547 17.5764 0.525017 17.1593 0.828863 16.8498C0.829203 16.8494 0.829542 16.8491 0.829881 16.8487L7.41886 10.2575L7.66623 10.01L7.41885 9.76257L0.8438 3.18588L0.843808 3.18587L0.84176 3.18386C0.686861 3.03144 0.563653 2.84985 0.479251 2.64955C0.394849 2.44925 0.350925 2.23421 0.350014 2.01684C0.349104 1.79946 0.391226 1.58406 0.473948 1.38306C0.556669 1.18206 0.678351 0.999444 0.831969 0.845735C0.985588 0.692026 1.1681 0.570271 1.36898 0.487487C1.56985 0.404703 1.78512 0.362527 2.00237 0.363386C2.21962 0.364245 2.43455 0.408124 2.63477 0.492495C2.83498 0.576865 3.01653 0.70006 3.16893 0.854979L3.16892 0.854986L3.17091 0.856973L9.74595 7.43433L9.99348 7.68195L10.241 7.43433L16.8161 0.856973L16.8161 0.85701L16.8203 0.852634C16.9722 0.695375 17.1538 0.569946 17.3546 0.483661C17.5554 0.397377 17.7713 0.351962 17.9898 0.350062C18.2084 0.348163 18.4251 0.389817 18.6273 0.472597C18.8296 0.555378 19.0134 0.67763 19.1679 0.832225C19.3224 0.98682 19.4447 1.17066 19.5274 1.37303C19.6102 1.5754 19.6518 1.79223 19.6499 2.01088C19.648 2.22952 19.6026 2.4456 19.5164 2.64649C19.4301 2.84739 19.3047 3.02908 19.1475 3.18097L19.1475 3.18093L19.1432 3.18523L12.5681 9.76258Z" fill="#F44336" stroke="black" stroke-width="0.7"/>
</svg>
