<svg width="22" height="19" viewBox="0 0 22 19" fill="none" xmlns="http://www.w3.org/2000/svg">
<path d="M8.54391 10.9089L8.2817 10.6135L4.48452 6.33519L4.74628 6.10286L4.48452 6.33519C4.2266 6.04459 3.82596 5.88621 3.40571 5.88621C2.98545 5.88621 2.58535 6.04459 2.32823 6.33491L2.32793 6.33525L0.764306 8.0962C0.764288 8.09622 0.764271 8.09624 0.764253 8.09626C0.57966 8.30427 0.448016 8.60194 0.387856 8.94431L0.387668 8.94538C0.27383 9.58165 0.421559 10.2658 0.764306 10.652C0.764312 10.652 0.764318 10.652 0.764325 10.652L7.46485 18.2016C7.72235 18.4918 8.1226 18.65 8.54285 18.65C8.96301 18.65 9.36346 18.4918 9.62137 18.2016L8.54391 10.9089ZM8.54391 10.9089L8.80563 10.613L16.3264 2.11058L16.3292 2.10741L17.5128 0.801703L17.5129 0.801716L17.5153 0.79897C17.7732 0.508376 18.1739 0.349998 18.5941 0.349998C19.0144 0.349998 19.4145 0.508372 19.6716 0.798693L19.6719 0.799029L21.2351 2.55953C21.2353 2.5597 21.2354 2.55987 21.2356 2.56004C21.3773 2.72046 21.4885 2.93336 21.5597 3.18066L21.5598 3.18118C21.7573 3.86375 21.6236 4.67763 21.2355 5.11492L21.48 5.33192L21.2355 5.11493L9.6215 18.2015L8.54391 10.9089Z" fill="#68FFC0" stroke="black" stroke-width="0.7"/>
</svg>
