<svg width="20" height="20" viewBox="0 0 20 20" fill="none" xmlns="http://www.w3.org/2000/svg">
<g clip-path="url(#clip0_337_989)">
<path d="M17.8125 17.8125H2.1875C1.84232 17.8125 1.5625 18.0923 1.5625 18.4375V19.0625C1.5625 19.4077 1.84232 19.6875 2.1875 19.6875H17.8125C18.1577 19.6875 18.4375 19.4077 18.4375 19.0625V18.4375C18.4375 18.0923 18.1577 17.8125 17.8125 17.8125Z" fill="#EE654A"/>
<path d="M17.1875 17.8125H2.8125L3.0375 17.1875L8.75 1.19374C8.84187 0.935727 9.01133 0.712461 9.23514 0.554583C9.45894 0.396705 9.72611 0.311951 10 0.311951C10.2739 0.311951 10.5411 0.396705 10.7649 0.554583C10.9887 0.712461 11.1581 0.935727 11.25 1.19374L16.9625 17.1875L17.1875 17.8125Z" fill="#EE654A"/>
<path d="M13.6162 7.8125H6.38373L7.49998 4.6875H12.5L13.6162 7.8125Z" fill="#E0E0E2"/>
<path d="M16.0713 14.6875H3.92877L5.0444 11.5625L15.0081 11.7106L16.0713 14.6875Z" fill="#E0E0E2"/>
<path d="M17.1875 17.8125H2.8125L3.0375 17.1875H16.9625L17.1875 17.8125Z" fill="#EC5633"/>
<path d="M17.8125 17.5H17.4075L13.9075 7.70749L13.7312 7.21374L11.5437 1.08874C11.4297 0.769737 11.2198 0.493788 10.9428 0.298683C10.6659 0.103578 10.3354 -0.00114441 9.99656 -0.00114441C9.65777 -0.00114441 9.32727 0.103578 9.0503 0.298683C8.77333 0.493788 8.56344 0.769737 8.44938 1.08874L6.51187 6.51062L6.085 7.70562L2.5925 17.5H2.1875C1.93886 17.5 1.7004 17.5988 1.52459 17.7746C1.34877 17.9504 1.25 18.1889 1.25 18.4375V19.0625C1.25 19.3111 1.34877 19.5496 1.52459 19.7254C1.7004 19.9012 1.93886 20 2.1875 20H17.8125C18.0611 20 18.2996 19.9012 18.4754 19.7254C18.6512 19.5496 18.75 19.3111 18.75 19.0625V18.4375C18.75 18.1889 18.6512 17.9504 18.4754 17.7746C18.2996 17.5988 18.0611 17.5 17.8125 17.5V17.5ZM5.26375 11.8781L14.7863 12.0194L15.625 14.375H4.375L5.26375 11.8781ZM5.48563 11.2562L6.60438 8.12499H13.3963L14.5625 11.3912L5.48563 11.2562ZM13.1725 7.49999H6.8275L7.72062 4.99999H12.28L13.1725 7.49999ZM9.04125 1.30062C9.1119 1.10291 9.24195 0.93187 9.41359 0.810939C9.58522 0.690008 9.79004 0.625097 10 0.625097C10.21 0.625097 10.4148 0.690008 10.5864 0.810939C10.758 0.93187 10.8881 1.10291 10.9588 1.30062L12.0569 4.37499H7.94312L9.04125 1.30062ZM4.14875 15H15.8512L16.7438 17.5H3.25625L4.14875 15ZM18.125 19.0625C18.125 19.1454 18.0921 19.2249 18.0335 19.2835C17.9749 19.3421 17.8954 19.375 17.8125 19.375H2.1875C2.10462 19.375 2.02513 19.3421 1.96653 19.2835C1.90792 19.2249 1.875 19.1454 1.875 19.0625V18.4375C1.875 18.3546 1.90792 18.2751 1.96653 18.2165C2.02513 18.1579 2.10462 18.125 2.1875 18.125H17.8125C17.8954 18.125 17.9749 18.1579 18.0335 18.2165C18.0921 18.2751 18.125 18.3546 18.125 18.4375V19.0625Z" fill="black"/>
</g>
<defs>
<clipPath id="clip0_337_989">
<rect width="20" height="20" fill="white"/>
</clipPath>
</defs>
</svg>
