<svg width="21" height="22" viewBox="0 0 21 22" fill="none" xmlns="http://www.w3.org/2000/svg">
<path d="M9.93457 1.15462H12V3.91103H9.93457V1.15462Z" fill="#FBAB2C"/>
<path d="M19.0192 4.31423L18.9192 4.21893C18.8302 4.13371 18.7244 4.06608 18.6079 4.01993C18.4914 3.97378 18.3665 3.95003 18.2403 3.95003C18.1142 3.95003 17.9893 3.97378 17.8728 4.01993C17.7563 4.06608 17.6505 4.13371 17.5615 4.21893L16.1961 5.52017L17.6538 6.91304L19.0192 5.6118C19.1087 5.52668 19.1798 5.42556 19.2282 5.31423C19.2767 5.2029 19.3017 5.08355 19.3017 4.96302C19.3017 4.84249 19.2767 4.72314 19.2282 4.61181C19.1798 4.50048 19.1087 4.39936 19.0192 4.31423ZM4.37688 4.21893C4.28789 4.13371 4.18211 4.06608 4.06561 4.01993C3.94911 3.97378 3.82419 3.95003 3.69803 3.95003C3.57187 3.95003 3.44696 3.97378 3.33046 4.01993C3.21396 4.06608 3.10818 4.13371 3.01919 4.21893L2.91919 4.31423C2.82964 4.39936 2.7586 4.50048 2.71012 4.61181C2.66165 4.72314 2.6367 4.84249 2.6367 4.96302C2.6367 5.08355 2.66165 5.2029 2.71012 5.31423C2.7586 5.42556 2.82964 5.52668 2.91919 5.6118L4.28457 6.91304L5.74226 5.52017L4.37688 4.21893Z" fill="#FEB944"/>
<path d="M10.9692 21.6262C16.2796 21.6262 20.5846 17.5235 20.5846 12.4625C20.5846 7.4016 16.2796 3.2989 10.9692 3.2989C5.65875 3.2989 1.3538 7.4016 1.3538 12.4625C1.3538 17.5235 5.65875 21.6262 10.9692 21.6262Z" fill="#DF80E9"/>
<path d="M12.2653 0.366545H9.67303C9.24819 0.366545 8.9038 0.69476 8.9038 1.09963V1.2096C8.9038 1.61447 9.24819 1.94269 9.67303 1.94269H12.2653C12.6902 1.94269 13.0346 1.61447 13.0346 1.2096V1.09963C13.0346 0.69476 12.6902 0.366545 12.2653 0.366545Z" fill="#FEB944"/>
<path d="M10.9692 20.16C15.4299 20.16 19.0461 16.7137 19.0461 12.4625C19.0461 8.21135 15.4299 4.76508 10.9692 4.76508C6.50842 4.76508 2.89226 8.21135 2.89226 12.4625C2.89226 16.7137 6.50842 20.16 10.9692 20.16Z" fill="#D7E6EF"/>
<path d="M10.9692 13.5255C11.5215 13.5255 11.9692 13.0988 11.9692 12.5725C11.9692 12.0462 11.5215 11.6195 10.9692 11.6195C10.4169 11.6195 9.96918 12.0462 9.96918 12.5725C9.96918 13.0988 10.4169 13.5255 10.9692 13.5255Z" fill="#DF80E9"/>
<path d="M6.30765 9.11597C6.57317 9.11597 6.78842 8.91084 6.78842 8.65779C6.78842 8.40475 6.57317 8.19961 6.30765 8.19961C6.04212 8.19961 5.82688 8.40475 5.82688 8.65779C5.82688 8.91084 6.04212 9.11597 6.30765 9.11597Z" fill="#F5F9FF"/>
<path d="M7.02688 10.0323C7.15858 10.0323 7.26534 9.93059 7.26534 9.80508C7.26534 9.67957 7.15858 9.57782 7.02688 9.57782C6.89518 9.57782 6.78842 9.67957 6.78842 9.80508C6.78842 9.93059 6.89518 10.0323 7.02688 10.0323Z" fill="#F5F9FF"/>
<path d="M10.9692 5.13163C11.1816 5.13163 11.3538 4.96752 11.3538 4.76508C11.3538 4.56265 11.1816 4.39854 10.9692 4.39854C10.7568 4.39854 10.5846 4.56265 10.5846 4.76508C10.5846 4.96752 10.7568 5.13163 10.9692 5.13163Z" fill="#1E120B"/>
<path d="M18.7038 6.4292L19.2923 5.86472C19.5438 5.62365 19.685 5.2975 19.685 4.95752C19.685 4.61755 19.5438 4.29139 19.2923 4.05032L19.1923 3.95135C19.0667 3.82989 18.917 3.73344 18.7519 3.6676C18.5868 3.60176 18.4097 3.56786 18.2307 3.56786C18.0518 3.56786 17.8746 3.60176 17.7095 3.6676C17.5445 3.73344 17.3948 3.82989 17.2692 3.95135L16.5961 4.59281C15.3321 3.76521 13.8839 3.22821 12.3653 3.024V2.29091C12.6496 2.26185 12.9123 2.13329 13.1028 1.93013C13.2932 1.72698 13.3977 1.46368 13.3961 1.19127V1.09963C13.3961 0.807994 13.2745 0.528297 13.0582 0.322076C12.8418 0.115854 12.5483 0 12.2423 0H9.67303C9.36701 0 9.07353 0.115854 8.85714 0.322076C8.64075 0.528297 8.51918 0.807994 8.51918 1.09963V1.2096C8.51755 1.48201 8.62208 1.7453 8.81252 1.94846C9.00295 2.15162 9.26574 2.28018 9.54995 2.30923V3.04232C8.0314 3.24654 6.58322 3.78354 5.31919 4.61114L4.64996 3.95869C4.39231 3.72043 4.04742 3.58717 3.68842 3.58717C3.32941 3.58717 2.98453 3.72043 2.72688 3.95869L2.62688 4.05765C2.37534 4.29872 2.23414 4.62488 2.23414 4.96485C2.23414 5.30483 2.37534 5.63098 2.62688 5.87205L3.21534 6.4292C2.01505 7.82507 1.25531 9.51704 1.02451 11.3083C0.793707 13.0995 1.10133 14.9164 1.91158 16.5476C2.72184 18.1787 4.00143 19.5571 5.60148 20.5223C7.20153 21.4876 9.05628 22 10.95 22C12.8436 22 14.6984 21.4876 16.2984 20.5223C17.8985 19.5571 19.1781 18.1787 19.9883 16.5476C20.7986 14.9164 21.1062 13.0995 20.8754 11.3083C20.6446 9.51704 19.8849 7.82507 18.6846 6.4292H18.7038ZM17.8307 4.47918C17.884 4.42776 17.9475 4.38693 18.0175 4.35906C18.0875 4.3312 18.1626 4.31685 18.2384 4.31685C18.3143 4.31685 18.3893 4.3312 18.4593 4.35906C18.5293 4.38693 18.5928 4.42776 18.6461 4.47918L18.7499 4.57448C18.8571 4.67804 18.9171 4.81761 18.9171 4.96302C18.9171 5.10843 18.8571 5.248 18.7499 5.35156L18.1923 5.88305C17.8931 5.58443 17.5745 5.30408 17.2384 5.04366L17.8307 4.47918ZM9.28841 1.2096V1.09963C9.28841 1.00242 9.32894 0.909189 9.40107 0.840449C9.47319 0.771708 9.57102 0.73309 9.67303 0.73309H12.2653C12.3673 0.73309 12.4652 0.771708 12.5373 0.840449C12.6094 0.909189 12.65 1.00242 12.65 1.09963V1.2096C12.65 1.30681 12.6094 1.40004 12.5373 1.46878C12.4652 1.53753 12.3673 1.57614 12.2653 1.57614H9.67303C9.57102 1.57614 9.47319 1.53753 9.40107 1.46878C9.32894 1.40004 9.28841 1.30681 9.28841 1.2096ZM10.3192 2.30923H11.6192V2.95435C11.4038 2.93236 11.1884 2.93236 10.9692 2.93236C10.75 2.93236 10.5346 2.93236 10.3192 2.95435V2.30923ZM3.18842 5.35156C3.08131 5.248 3.02127 5.10843 3.02127 4.96302C3.02127 4.81761 3.08131 4.67804 3.18842 4.57448L3.29226 4.47918C3.40187 4.37883 3.54796 4.32278 3.69996 4.32278C3.85195 4.32278 3.99804 4.37883 4.10765 4.47918L4.69996 5.04366C4.36381 5.30408 4.04523 5.58443 3.74611 5.88305L3.18842 5.35156ZM10.9692 21.2596C9.14351 21.2596 7.35884 20.7437 5.84084 19.777C4.32285 18.8104 3.13972 17.4365 2.44107 15.829C1.74241 14.2216 1.55961 12.4528 1.91578 10.7463C2.27196 9.03984 3.1511 7.47235 4.44205 6.24205C5.73299 5.01176 7.37776 4.17392 9.16835 3.83448C10.9589 3.49505 12.8149 3.66926 14.5016 4.33509C16.1883 5.00092 17.63 6.12846 18.6443 7.57513C19.6586 9.02181 20.1999 10.7226 20.1999 12.4625C20.1999 14.7957 19.2274 17.0332 17.4963 18.683C15.7652 20.3328 13.4173 21.2596 10.9692 21.2596Z" fill="#1E120B"/>
<path d="M12.5923 4.54882C12.4903 4.53035 12.3847 4.55126 12.2989 4.60694C12.2131 4.66262 12.1539 4.74851 12.1346 4.84572C12.1152 4.94294 12.1371 5.04351 12.1955 5.12531C12.254 5.20711 12.3441 5.26344 12.4461 5.28191C14.3173 5.63976 15.982 6.64773 17.117 8.10999C18.2519 9.57224 18.7759 11.3844 18.5873 13.1942C18.3986 15.0041 17.5107 16.6826 16.0961 17.9034C14.6814 19.1243 12.8411 19.8004 10.9326 19.8004C9.02417 19.8004 7.18385 19.1243 5.76922 17.9034C4.3546 16.6826 3.46669 15.0041 3.27802 13.1942C3.08935 11.3844 3.61339 9.57224 4.74832 8.10999C5.88324 6.64773 7.54802 5.63976 9.41918 5.28191C9.52119 5.26247 9.61091 5.20521 9.66862 5.12272C9.72632 5.04023 9.74728 4.93927 9.72688 4.84206C9.70647 4.74485 9.64639 4.65934 9.55983 4.60434C9.47328 4.54935 9.36734 4.52938 9.26534 4.54882C7.20687 4.94216 5.37535 6.05075 4.12665 7.65917C2.87795 9.2676 2.30127 11.261 2.50865 13.252C2.71602 15.243 3.69266 17.0895 5.24878 18.4325C6.8049 19.7756 8.82936 20.5194 10.9288 20.5194C13.0282 20.5194 15.0527 19.7756 16.6088 18.4325C18.1649 17.0895 19.1416 15.243 19.3489 13.252C19.5563 11.261 18.9796 9.2676 17.7309 7.65917C16.4822 6.05075 14.6507 4.94216 12.5923 4.54882Z" fill="#1E120B"/>
<path d="M16.4153 15.6002C16.4603 15.6224 16.5094 15.6359 16.5598 15.6401C16.6103 15.6442 16.6611 15.6387 16.7093 15.6241C16.7575 15.6095 16.8023 15.5859 16.8409 15.5547C16.8796 15.5236 16.9114 15.4854 16.9346 15.4425C17.452 14.4867 17.7026 13.4201 17.6624 12.3452C17.6221 11.2704 17.2923 10.2235 16.7047 9.30528C16.1171 8.38704 15.2914 7.62836 14.3072 7.10219C13.3229 6.57602 12.2131 6.30008 11.0846 6.30091C10.9826 6.30091 10.8847 6.33953 10.8126 6.40827C10.7405 6.47701 10.7 6.57024 10.7 6.66745C10.7 6.76467 10.7405 6.8579 10.8126 6.92664C10.8847 6.99538 10.9826 7.034 11.0846 7.034C12.6256 7.03497 14.1032 7.6188 15.1928 8.65726C16.2825 9.69572 16.8951 11.1039 16.8961 12.5725C16.8978 13.454 16.6761 14.3229 16.2499 15.1053C16.2266 15.1481 16.2124 15.1949 16.2081 15.243C16.2038 15.2911 16.2095 15.3395 16.2248 15.3855C16.2402 15.4314 16.2649 15.4741 16.2976 15.5109C16.3303 15.5478 16.3703 15.5781 16.4153 15.6002ZM11.0846 13.8921C11.3138 13.8885 11.5385 13.8305 11.7384 13.7234L14.8153 16.6558C14.8517 16.6897 14.8947 16.7165 14.9419 16.7346C14.9892 16.7527 15.0397 16.7617 15.0906 16.7612C15.1415 16.7607 15.1918 16.7507 15.2386 16.7316C15.2854 16.7126 15.3278 16.685 15.3634 16.6503C15.399 16.6156 15.4271 16.5746 15.4461 16.5296C15.4651 16.4846 15.4746 16.4365 15.474 16.388C15.4735 16.3395 15.4629 16.2916 15.443 16.247C15.423 16.2023 15.394 16.1619 15.3576 16.128L12.2807 13.1956C12.3963 12.9968 12.4556 12.7726 12.4526 12.5453C12.4497 12.318 12.3846 12.0953 12.2639 11.8992C12.1432 11.7032 11.9709 11.5404 11.7641 11.4271C11.5573 11.3138 11.3231 11.2537 11.0846 11.2529C10.8512 11.2535 10.622 11.3116 10.4192 11.4215L9.7038 10.7361C9.63137 10.6671 9.53315 10.6283 9.43072 10.6283C9.3283 10.6283 9.23007 10.6671 9.15765 10.7361C9.08522 10.8051 9.04453 10.8987 9.04453 10.9963C9.04453 11.094 9.08522 11.1876 9.15765 11.2566L9.87688 11.9384C9.76155 12.1317 9.7006 12.3501 9.69995 12.5725C9.69995 12.9225 9.84583 13.2581 10.1055 13.5056C10.3652 13.753 10.7173 13.8921 11.0846 13.8921ZM11.0846 11.986C11.2063 11.986 11.3253 12.0204 11.4265 12.0849C11.5277 12.1493 11.6065 12.2409 11.6531 12.3481C11.6997 12.4552 11.7119 12.5731 11.6881 12.6869C11.6644 12.8007 11.6058 12.9052 11.5197 12.9872C11.4336 13.0692 11.324 13.1251 11.2046 13.1477C11.0852 13.1703 10.9615 13.1587 10.8491 13.1143C10.7366 13.0699 10.6405 12.9948 10.5729 12.8983C10.5053 12.8019 10.4692 12.6885 10.4692 12.5725C10.4692 12.4169 10.534 12.2678 10.6494 12.1578C10.7648 12.0478 10.9214 11.986 11.0846 11.986Z" fill="#1E120B"/>
</svg>
