<svg width="18" height="20" viewBox="0 0 18 20" fill="none" xmlns="http://www.w3.org/2000/svg">
<path d="M14.9114 8.13346L14.9105 8.13413L12.793 9.71984L12.4189 9.99999L12.793 10.2801L14.9105 11.8659L14.9114 11.8665C15.1107 12.0148 15.2679 12.1988 15.3742 12.4033C15.4804 12.6076 15.5338 12.8285 15.5325 13.0504V13.0524V17.6183C15.5324 17.6393 15.5232 17.6679 15.4929 17.6951C15.4614 17.7236 15.4114 17.745 15.3525 17.7452C15.3524 17.7452 15.3523 17.7452 15.3522 17.7452H2.64932C2.64922 17.7452 2.64913 17.7452 2.64903 17.7452C2.59016 17.745 2.54021 17.7236 2.50862 17.6951C2.47833 17.6679 2.46921 17.6393 2.46905 17.6182L2.46905 13.0524L2.46904 13.0504C2.46776 12.8285 2.5212 12.6076 2.62736 12.4033C2.73365 12.1988 2.89082 12.0148 3.0902 11.8665L3.0911 11.8659L5.20855 10.2801L5.58265 9.99999L5.20855 9.71984L3.0911 8.13412L3.0902 8.13346C2.89082 7.98513 2.73365 7.80115 2.62736 7.59665C2.5212 7.39237 2.46776 7.17152 2.46904 6.94963H2.46905V6.94761V2.38174C2.46921 2.36067 2.47833 2.33209 2.50862 2.30484C2.5402 2.27643 2.59013 2.25499 2.64897 2.25475H15.3526C15.4114 2.25499 15.4614 2.27643 15.4929 2.30484C15.5232 2.33208 15.5324 2.36066 15.5325 2.38173L15.5325 6.94761L15.5325 6.94963C15.5338 7.17152 15.4804 7.39237 15.3742 7.59665C15.2679 7.80115 15.1107 7.98513 14.9114 8.13346Z" fill="#8DD1FF" stroke="black" stroke-width="0.7"/>
<path d="M4.23652 13.2905V15.2381C4.23788 15.3784 4.26102 15.5178 4.30527 15.6524L4.23652 13.2905ZM4.23652 13.2905C4.23596 13.0868 4.28385 12.8854 4.37698 12.6998C4.47012 12.5142 4.60633 12.3486 4.77647 12.2143L4.23652 13.2905ZM4.63714 15.5412C4.6046 15.4416 4.58768 15.3391 4.58652 15.2363L4.58652 13.2905L4.58651 13.2895C4.58611 13.1418 4.62077 12.9944 4.68982 12.8568C4.75893 12.719 4.86155 12.5931 4.99321 12.4891C4.99327 12.4891 4.99332 12.489 4.99337 12.489L8.16788 9.99029C8.16807 9.99014 8.16826 9.98999 8.16846 9.98985C8.39501 9.81339 8.69032 9.7125 9.00079 9.7125C9.31126 9.7125 9.60657 9.81339 9.83312 9.98983C9.83331 9.98998 9.83351 9.99014 9.8337 9.99029L12.2939 11.9274L12.2941 11.9275L12.9997 12.4823L13.004 12.4862L13.0121 12.4926C13.1425 12.5967 13.2441 12.7222 13.3125 12.8594C13.3809 12.9964 13.4153 13.143 13.4151 13.2899L13.7651 13.2905H13.4151V15.2375C13.414 15.5108 13.2932 15.7811 13.0645 15.9868C12.8345 16.1936 12.5158 16.3157 12.1764 16.3167H5.82461H5.82458C5.63086 16.3167 5.44093 16.2764 5.26999 16.2001C5.09909 16.1239 4.9535 16.0147 4.84267 15.8836L4.84279 15.8835L4.83583 15.8757C4.74502 15.7746 4.67823 15.6608 4.63714 15.5412Z" fill="#FEFEFE" stroke="black" stroke-width="0.7"/>
<path d="M9.8337 9.99029L12.8857 12.3925V14.5038C12.8837 14.8243 12.7413 15.1396 12.4751 15.3783C12.2075 15.6183 11.8382 15.7588 11.4462 15.7595C11.4461 15.7595 11.446 15.7595 11.4459 15.7595L4.74559 15.7595C4.69943 15.6902 4.66313 15.6169 4.63713 15.5412C4.60459 15.4416 4.58767 15.3391 4.58652 15.2363L4.58652 13.2905L4.58651 13.2895C4.58611 13.1418 4.62077 12.9944 4.68982 12.8568C4.75892 12.719 4.86149 12.5932 4.99311 12.4892C4.9932 12.4891 4.99328 12.489 4.99337 12.489L8.16788 9.99029C8.16807 9.99014 8.16826 9.98999 8.16846 9.98985C8.39501 9.81339 8.69032 9.7125 9.00079 9.7125C9.31126 9.7125 9.60658 9.81339 9.83313 9.98984C9.83332 9.98999 9.83351 9.99014 9.8337 9.99029Z" fill="#FEFEFE" stroke="black" stroke-width="0.7"/>
<path d="M17.65 1.18954L17.65 1.19166C17.6503 1.2965 17.6277 1.40141 17.5822 1.50074C17.5366 1.60021 17.4684 1.69316 17.3795 1.77312C17.2905 1.85315 17.1829 1.91828 17.0619 1.96316C16.9409 2.00804 16.8102 2.03132 16.6775 2.03095H16.6766L1.32501 2.03095L1.32426 2.03096C1.14313 2.03135 0.967148 1.98752 0.815361 1.90647C0.66371 1.82549 0.544197 1.71176 0.465474 1.58119L0.43856 1.53655L0.436731 1.5349C0.376391 1.42016 0.347449 1.29654 0.350176 1.17335C0.353235 1.03522 0.396123 0.89753 0.478244 0.773623C0.560609 0.649349 0.680428 0.542247 0.829288 0.466377C0.978255 0.390453 1.14899 0.349653 1.32432 0.350003H1.32501L16.6766 0.350003L16.6769 0.350003C16.829 0.34987 16.9777 0.380661 17.1119 0.438587L17.1142 0.440655L17.1583 0.462184C17.3139 0.538098 17.4389 0.648075 17.5236 0.776474C17.6081 0.904444 17.6504 1.04707 17.65 1.18954ZM17.65 18.8104L17.65 18.8107C17.6503 18.9155 17.6277 19.0205 17.5822 19.1198C17.5366 19.2193 17.4684 19.3122 17.3795 19.3922C17.2905 19.4722 17.1829 19.5373 17.0619 19.5822C16.9409 19.6271 16.8102 19.6504 16.6775 19.65H16.6766H1.32569C1.11745 19.6496 0.917254 19.5915 0.752395 19.4874C0.587835 19.3834 0.469131 19.2407 0.405458 19.0831L0.405471 19.0831L0.404254 19.0802C0.368335 18.9936 0.35079 18.903 0.351617 18.8126L0.351602 18.8083C0.351244 18.7035 0.373871 18.5986 0.41941 18.4992C0.465013 18.3998 0.53321 18.3068 0.622103 18.2269C0.711069 18.1468 0.818716 18.0817 0.939674 18.0368C1.06065 17.9919 1.19138 17.9687 1.32405 17.969H1.32501L16.6766 17.9691L16.6791 17.969C16.7944 17.9682 16.9084 17.9864 17.0151 18.0223L17.0178 18.0231C17.2113 18.0864 17.3724 18.1997 17.4832 18.3417C17.5935 18.4831 17.6496 18.6467 17.65 18.8104Z" fill="#3E96ED" stroke="black" stroke-width="0.7"/>
<path d="M2.64836 17.7452H2.64845H15.3532V18.0952L15.3533 17.7452C15.3817 17.7452 15.4091 17.7402 15.4336 17.731C15.4582 17.7219 15.4782 17.7093 15.4935 17.6956C15.5087 17.6819 15.5185 17.6677 15.5244 17.6549C15.5302 17.6423 15.5326 17.6302 15.5326 17.6191V17.619V13.0501V13.0496C15.5329 12.828 15.4789 12.6075 15.3727 12.4035C15.2664 12.1993 15.1096 12.0155 14.911 11.867L14.9106 11.8667L12.7939 10.28L12.4203 9.99999L12.7939 9.71994L14.9106 8.13327L14.911 8.13302C15.1096 7.98448 15.2664 7.80066 15.3727 7.59646C15.4789 7.39248 15.5329 7.17201 15.5326 6.95034L15.5326 6.94986L15.5326 4.7619C15.5326 4.7411 15.5237 4.71261 15.4934 4.68539C15.4619 4.65707 15.412 4.63571 15.3532 4.63571C15.2944 4.63571 15.2444 4.65707 15.2129 4.68539C15.1827 4.71261 15.1738 4.7411 15.1738 4.7619L15.1738 6.94939L15.1738 6.94986M2.64836 17.7452L14.4428 7.68137C14.5622 7.59214 14.6583 7.48032 14.7241 7.35388C14.79 7.22744 14.824 7.08949 14.8238 6.94986H15.1738M2.64836 17.7452C2.61997 17.7452 2.59257 17.7402 2.56801 17.731C2.54347 17.7219 2.52341 17.7093 2.50816 17.6956C2.49298 17.6819 2.48317 17.6677 2.47728 17.6549C2.47145 17.6423 2.46908 17.6302 2.46908 17.6191V17.619L2.46908 13.0501L2.46908 13.0496C2.46878 12.828 2.52272 12.6075 2.62893 12.4035C2.73525 12.1993 2.89201 12.0155 3.09067 11.867L3.091 11.8667L5.20769 10.28L5.5813 9.99999L5.20769 9.71994L3.09101 8.13327L3.09067 8.13302C2.89202 7.98448 2.73525 7.80066 2.62893 7.59646C2.52272 7.39248 2.46878 7.17201 2.46908 6.95034V6.94986V2.38094L2.46908 2.38084C2.46908 2.36975 2.47145 2.35771 2.47728 2.34504C2.48317 2.33224 2.49298 2.31806 2.50816 2.3044C2.52341 2.29068 2.54347 2.2781 2.56801 2.26896C2.59257 2.25981 2.61997 2.25475 2.64836 2.25475H2.64845H15.3532C15.412 2.25475 15.4619 2.27611 15.4934 2.30444C15.5237 2.33166 15.5326 2.36015 15.5326 2.38094C15.5326 2.40174 15.5237 2.43023 15.4934 2.45745C15.4619 2.48578 15.412 2.50714 15.3532 2.50714H3.17781H2.82781V2.85714V6.94963L2.64836 17.7452ZM15.1738 6.94986C15.174 7.147 15.1258 7.34029 15.0345 7.51557C14.9433 7.69075 14.8119 7.84246 14.6524 7.96169M15.1738 6.94986L14.6524 7.96169M14.6524 7.96169C14.6524 7.9617 14.6524 7.96171 14.6523 7.96173L12.5359 9.54848C12.4567 9.60792 12.396 9.68 12.3555 9.75784C12.3151 9.83547 12.2951 9.91809 12.2951 10.0002C12.2952 10.0824 12.3152 10.165 12.3556 10.2426C12.3961 10.3204 12.4568 10.3925 12.5361 10.4519C12.5361 10.4519 12.5361 10.4519 12.5361 10.4519L14.6524 12.0383C14.6524 12.0383 14.6525 12.0384 14.6525 12.0384C14.812 12.1576 14.9433 12.3093 15.0345 12.4844C15.1258 12.6597 15.174 12.853 15.1738 13.0501C15.1738 13.0503 15.1738 13.0504 15.1738 13.0506M14.6524 7.96169L14.8238 13.0501L15.1738 13.0506M15.1738 13.0506L15.1738 17.1428V17.4928H14.8238H3.17781H2.82781V17.1428V13.0504L15.1738 13.0506ZM2.11908 17.619C2.11906 17.6816 2.13274 17.7435 2.15934 17.8013C2.18594 17.8591 2.22493 17.9116 2.27409 17.9558C2.32325 18 2.38161 18.0351 2.44585 18.059C2.51008 18.0829 2.57892 18.0952 2.64845 18.0952L2.11908 17.619ZM2.11908 17.619V13.0501V17.619Z" fill="black" stroke="black" stroke-width="0.7"/>
<path d="M8.43585 10.1556L8.43617 10.1554C8.59717 10.0289 8.79796 9.96319 9.00071 9.96342M8.43585 10.1556L12.7415 12.6557L9.56617 10.1564C9.56606 10.1563 9.56596 10.1562 9.56585 10.1562C9.40487 10.0291 9.20376 9.96311 9.00071 9.96342M8.43585 10.1556L5.26007 12.6558C5.16475 12.7306 5.08552 12.8251 5.03018 12.9347C4.97476 13.0444 4.94522 13.1654 4.94523 13.2892C4.94523 13.2892 4.94523 13.2892 4.94523 13.2892V15.2381L4.94523 15.2385M8.43585 10.1556L4.94523 15.2385M9.00071 9.96342C9.00096 9.96342 9.00121 9.96342 9.00145 9.96342L9.00078 10.3133L8.99997 9.96342C9.00022 9.96342 9.00046 9.96342 9.00071 9.96342ZM4.94523 15.2385C4.94549 15.4701 5.0482 15.6836 5.21636 15.8349C5.3833 15.9851 5.60246 16.0641 5.82428 16.0643H5.82459M4.94523 15.2385L5.82459 16.0643M5.82459 16.0643H12.177H12.1773M5.82459 16.0643H12.1773M12.1773 16.0643C12.3991 16.0641 12.6183 15.9851 12.7852 15.8349C12.9534 15.6836 13.0561 15.4701 13.0563 15.2385V15.2381M12.1773 16.0643L13.0563 15.2381M13.0563 15.2381V13.2892M13.0563 15.2381V13.2892M13.0563 13.2892C13.0563 13.2892 13.0563 13.2892 13.0563 13.2892M13.0563 13.2892V13.2892M13.0563 13.2892C13.0563 13.1653 13.0268 13.0443 12.9714 12.9346M13.0563 13.2892L12.9714 12.9346M12.9714 12.9346C12.9161 12.8253 12.837 12.7308 12.7419 12.656L12.9714 12.9346ZM5.82494 16.3167C5.48535 16.3163 5.16625 16.1945 4.93622 15.9876C4.70741 15.7817 4.58683 15.5111 4.5865 15.2377V13.2892C4.5865 13.2892 4.5865 13.2892 4.5865 13.2892C4.58654 13.1414 4.62159 12.994 4.69097 12.8565C4.76044 12.7187 4.86335 12.5929 4.99526 12.489C4.99529 12.489 4.99531 12.489 4.99533 12.489L8.17059 9.9897C8.17071 9.9896 8.17083 9.98951 8.17096 9.98941C8.39656 9.81311 8.69108 9.71226 9.0008 9.71233C9.31056 9.7124 9.60507 9.81342 9.83058 9.98987C9.83066 9.98994 9.83075 9.99 9.83083 9.99007L13.0062 12.489C13.0063 12.489 13.0063 12.489 13.0063 12.489C13.1382 12.5929 13.2411 12.7187 13.3106 12.8565C13.38 12.994 13.415 13.1414 13.4151 13.2892C13.4151 13.2892 13.4151 13.2892 13.4151 13.2892V15.2377C13.4147 15.5111 13.2942 15.7817 13.0653 15.9876C12.8353 16.1945 12.5162 16.3163 12.1766 16.3167H5.82494ZM16.4119 2.50714H1.58968C1.25006 2.50714 0.930839 2.38544 0.700802 2.17851C0.471986 1.97268 0.351587 1.70195 0.351587 1.42857C0.351587 1.15519 0.471986 0.884461 0.700802 0.67863C0.930839 0.4717 1.25006 0.35 1.58968 0.35H16.4119C16.7515 0.35 17.0707 0.4717 17.3008 0.67863C17.5296 0.884461 17.65 1.15519 17.65 1.42857C17.65 1.70195 17.5296 1.97268 17.3008 2.17851C17.0707 2.38544 16.7515 2.50714 16.4119 2.50714ZM1.58968 0.602381C1.36771 0.602381 1.14835 0.681361 0.98129 0.831642C0.813005 0.983023 0.710315 1.19678 0.710315 1.42857C0.710315 1.66037 0.813005 1.87412 0.98129 2.0255C1.14835 2.17578 1.36771 2.25476 1.58968 2.25476H16.4119C16.6338 2.25476 16.8532 2.17578 17.0203 2.0255C17.1886 1.87412 17.2912 1.66037 17.2912 1.42857C17.2912 1.19678 17.1886 0.983024 17.0203 0.831642C16.8532 0.68136 16.6338 0.602381 16.4119 0.602381H1.58968ZM1.58968 19.65C1.25006 19.65 0.930839 19.5283 0.700802 19.3214C0.471986 19.1155 0.351587 18.8448 0.351587 18.5714C0.351587 18.298 0.471986 18.0273 0.700802 17.8215C0.930839 17.6145 1.25006 17.4928 1.58968 17.4928H16.4119C16.7515 17.4928 17.0707 17.6145 17.3008 17.8215C17.5296 18.0273 17.65 18.298 17.65 18.5714C17.65 18.8448 17.5296 19.1155 17.3008 19.3214C17.0707 19.5283 16.7515 19.65 16.4119 19.65H1.58968ZM1.58968 17.7452C1.36771 17.7452 1.14835 17.8242 0.98129 17.9745C0.813004 18.1259 0.710315 18.3396 0.710315 18.5714C0.710315 18.8032 0.813004 19.017 0.98129 19.1683C1.14835 19.3186 1.36771 19.3976 1.58968 19.3976H16.4119C16.6338 19.3976 16.8532 19.3186 17.0203 19.1683C17.1886 19.017 17.2912 18.8032 17.2912 18.5714C17.2912 18.3396 17.1886 18.1259 17.0203 17.9745C16.8532 17.8242 16.6338 17.7452 16.4119 17.7452H1.58968Z" fill="black" stroke="black" stroke-width="0.7"/>
</svg>
