<svg xmlns="http://www.w3.org/2000/svg" viewBox="0 0 24 24"><path d="M17 2c-1.3 0-2.4.5-3.3 1.2 0 0-.1 0-.1-.1-1.7-.3-3.6 0-5.1.8C6.3 5.2 5 7.5 5 10v5.5c-.6.5-1 1.2-1 2C4 18.9 5.1 20 6.5 20h2.7c.4 1.2 1.5 2 2.8 2s2.4-.8 2.8-2h2.7c1.4 0 2.5-1.1 2.5-2.5 0-.8-.4-1.5-1-2v-3.9c1.8-.8 3-2.5 3-4.6 0-2.8-2.2-5-5-5zm.5 16h-11c-.3 0-.5-.2-.5-.5s.2-.5.5-.5h11c.3 0 .5.2.5.5s-.2.5-.5.5zm-.5-3H7v-5c0-1.8 1-3.4 2.5-4.3.9-.5 1.9-.7 2.9-.7-.3.6-.4 1.3-.4 2 0 2.8 2.2 5 5 5v3zm0-5c-1.7 0-3-1.3-3-3s1.3-3 3-3 3 1.3 3 3-1.3 3-3 3z"/><path d="M18 6.6V6c0-.6-.4-1-1-1s-1 .4-1 1v1c0 .3.1.5.3.7l1 1c.2.2.4.3.7.3s.5-.1.7-.3c.4-.4.4-1 0-1.4l-.7-.7z"/></svg>