<svg width="57" height="57" viewBox="0 0 57 57" fill="none" xmlns="http://www.w3.org/2000/svg">
<g clip-path="url(#clip0_39_2440)">
<path d="M46.4807 53.2802C44.5813 54.6331 32.3944 46.0574 30.0603 46.0385C27.7262 46.0198 15.4021 54.3983 13.5249 53.015C11.6478 51.6318 16.0609 37.4242 15.3576 35.205C14.6543 32.9857 2.85472 23.887 3.59386 21.6793C4.33316 19.4717 19.2475 19.2666 21.1469 17.9137C23.0462 16.561 28.0779 2.55934 30.4121 2.57802C32.746 2.59687 37.5504 16.6777 39.4276 18.061C41.3048 19.444 56.2141 19.8892 56.9175 22.1085C57.6208 24.3277 45.6757 33.2353 44.9364 35.443C44.1973 37.6507 48.38 51.9274 46.4807 53.2802Z" fill="#9E9E9E"/>
<path d="M46.4807 53.2802C44.5813 54.6331 32.3944 46.0574 30.0603 46.0385C27.7262 46.0198 15.4021 54.3983 13.5249 53.015C11.6478 51.6318 16.0609 37.4242 15.3576 35.205C14.6543 32.9857 2.85472 23.887 3.59386 21.6793C4.33316 19.4717 19.2475 19.2666 21.1469 17.9137C23.0462 16.561 28.0779 2.55934 30.4121 2.57802C32.746 2.59687 37.5504 16.6777 39.4276 18.061C41.3048 19.444 56.2141 19.8892 56.9175 22.1085C57.6208 24.3277 45.6757 33.2353 44.9364 35.443C44.1973 37.6507 48.38 51.9274 46.4807 53.2802Z" fill="#9E9E9E"/>
</g>
<defs>
<clipPath id="clip0_39_2440">
<rect width="57" height="57" fill="white"/>
</clipPath>
</defs>
</svg>
