<svg width="40" height="33" viewBox="0 0 40 33" fill="none" xmlns="http://www.w3.org/2000/svg">
<path d="M39.0625 15.4313C38.85 15.2125 38.6062 15.025 38.3438 14.8813C38.6937 14.3688 38.8937 13.75 38.8937 13.0875C38.8937 12.2375 38.5625 11.4375 37.9562 10.8313C37.7875 10.6625 37.6062 10.5188 37.4125 10.3938C37.8062 9.85628 38.0375 9.20002 38.0375 8.48752C38.0375 7.65002 37.6937 6.83127 37.1 6.23127C36.8625 5.99377 36.5875 5.79378 36.2938 5.64378C36.6105 5.16252 36.791 4.60447 36.8161 4.02888C36.8411 3.45329 36.7099 2.88166 36.4362 2.37468C36.1625 1.8677 35.7566 1.4443 35.2617 1.14945C34.7667 0.854593 34.2011 0.699286 33.625 0.700024H21.2188C21.1375 0.700024 21.0563 0.700026 20.9813 0.706276C20.8375 0.700026 20.5875 0.687527 20.2563 0.687527C18.925 0.687527 16.3625 0.856273 15.0875 2.06252C14.5687 2.55627 14.2938 3.18752 14.2938 3.88752C14.2938 4.38752 14.6937 4.78753 15.1875 4.78753C15.6813 4.78753 16.0812 4.38752 16.0812 3.88752C16.0812 3.68127 16.1563 3.51878 16.3188 3.36253C17.1438 2.58753 19.5312 2.41878 20.9375 2.50003C20.975 2.50003 21.025 2.50002 21.0625 2.49377C21.1125 2.49377 21.1625 2.48752 21.2188 2.48752H33.625C33.9937 2.48752 34.35 2.63753 34.6125 2.90003C34.8812 3.16878 35.025 3.51877 35.025 3.88752C35.025 4.66877 34.3938 5.29377 33.625 5.29377C33.1312 5.29377 32.725 5.70003 32.725 6.19378C32.725 6.68753 33.1312 7.08752 33.625 7.08752H34.8438C35.2125 7.08752 35.575 7.23753 35.8375 7.50003C36.0938 7.76253 36.2438 8.11877 36.2438 8.48752C36.2438 9.26252 35.6187 9.89377 34.8438 9.89377C34.35 9.89377 33.95 10.2938 33.95 10.7938C33.95 11.2875 34.35 11.6875 34.8438 11.6875H35.7C36.075 11.6875 36.425 11.8313 36.6937 12.1C36.9562 12.3625 37.1063 12.7125 37.1063 13.0875C37.1063 13.8625 36.475 14.4875 35.7 14.4875C35.2063 14.4875 34.8062 14.8875 34.8062 15.3875C34.8062 15.8813 35.2063 16.2813 35.7 16.2813H36.8063C37.1813 16.2813 37.5313 16.425 37.7938 16.6938C38.125 17.025 38.2688 17.4938 38.1813 17.95C38.0625 18.6 37.425 19.0875 36.6937 19.0875H25.1125C24.7062 19.0875 24.3187 19.2875 24.0812 19.6188C23.8437 19.95 23.7812 20.3813 23.9125 20.7688C24.65 22.9313 25.0187 25.1938 25.0187 27.4813V29.0938C25.0196 29.2932 24.9808 29.4907 24.9047 29.675C24.8286 29.8593 24.7167 30.0267 24.5754 30.1673C24.4341 30.308 24.2663 30.4193 24.0817 30.4946C23.8971 30.57 23.6994 30.6079 23.5 30.6063H21.8937V27.6688C21.8937 25.8188 21.3125 24.0688 20.2125 22.6C18.2375 19.9563 17.15 17.675 17.15 16.175C17.15 15.6813 16.75 15.2813 16.2563 15.2813H15.1875C14.9505 15.2813 14.7231 15.3754 14.5555 15.543C14.3879 15.7107 14.2938 15.938 14.2938 16.175C14.2938 16.4121 14.3879 16.6394 14.5555 16.807C14.7231 16.9746 14.9505 17.0688 15.1875 17.0688H15.4375C15.8062 19.3 17.4062 21.8375 18.7812 23.675C19.6438 24.8313 20.1 26.2125 20.1 27.6688V31.5063C20.1 32 20.5062 32.4 21 32.4H23.5C24.3875 32.4 25.2188 32.0563 25.8438 31.4313C26.4688 30.8063 26.8125 29.975 26.8125 29.0938V27.4813C26.8125 25.2375 26.4813 23.0188 25.8313 20.8813H36.6937C38.2937 20.8813 39.6625 19.7875 39.9437 18.2813C40.1375 17.2438 39.8125 16.175 39.0625 15.4313ZM6.95625 18.7438H0.89375C0.4 18.7438 0 18.3438 0 17.85V0.893772C0 0.400022 0.4 2.67029e-05 0.89375 2.67029e-05H6.95625C7.45 2.67029e-05 7.85 0.400022 7.85 0.893772V17.85C7.85 18.3438 7.45 18.7438 6.95625 18.7438ZM6.05625 1.79377H1.79375V16.9563H6.05625V1.79377Z" fill="black"/>
<path d="M1.79375 16.9563H6.05625V1.79377H1.79375V16.9563Z" fill="#F04C60"/>
<path d="M12.1812 2.50628H9.58125C9.34421 2.50628 9.11688 2.60044 8.94927 2.76805C8.78166 2.93566 8.6875 3.16299 8.6875 3.40003C8.6875 3.63706 8.78166 3.86439 8.94927 4.032C9.11688 4.19961 9.34421 4.29378 9.58125 4.29378H11.2875V16.9563H9.58125C9.34421 16.9563 9.11688 17.0504 8.94927 17.218C8.78166 17.3857 8.6875 17.613 8.6875 17.85C8.6875 18.0871 8.78166 18.3144 8.94927 18.482C9.11688 18.6496 9.34421 18.7438 9.58125 18.7438H12.1812C12.675 18.7438 13.075 18.3438 13.075 17.85V3.40627C13.0813 2.90627 12.675 2.50628 12.1812 2.50628Z" fill="black"/>
<path d="M34.8062 15.3875C34.8062 14.8875 35.2063 14.4875 35.7 14.4875C36.475 14.4875 37.1063 13.8625 37.1063 13.0875C37.1063 12.7125 36.9562 12.3625 36.6937 12.1C36.425 11.8313 36.075 11.6875 35.7 11.6875H34.8438C34.35 11.6875 33.95 11.2875 33.95 10.7938C33.95 10.2938 34.35 9.89377 34.8438 9.89377C35.6187 9.89377 36.2438 9.26252 36.2438 8.48752C36.2438 8.11877 36.0938 7.76253 35.8375 7.50003C35.575 7.23753 35.2125 7.08752 34.8438 7.08752H33.625C33.1312 7.08752 32.725 6.68753 32.725 6.19378C32.725 5.70003 33.1312 5.29377 33.625 5.29377C34.3938 5.29377 35.025 4.66877 35.025 3.88752C35.025 3.51877 34.8812 3.16878 34.6125 2.90003C34.35 2.63753 33.9937 2.48752 33.625 2.48752H21.2188C21.1625 2.48752 21.1125 2.49377 21.0625 2.49377C21.025 2.50002 20.975 2.50003 20.9375 2.50003C19.5312 2.41878 17.1438 2.58753 16.3188 3.36253C16.1563 3.51878 16.0812 3.68127 16.0812 3.88752C16.0812 4.38752 15.6813 4.78753 15.1875 4.78753C14.6937 4.78753 14.2938 4.38752 14.2938 3.88752V16.175C14.2938 15.6813 14.6937 15.2813 15.1875 15.2813H16.2563C16.75 15.2813 17.15 15.6813 17.15 16.175C17.15 17.675 18.2375 19.9563 20.2125 22.6C21.3125 24.0688 21.8937 25.8188 21.8937 27.6688V30.6063H23.5C23.6994 30.6079 23.8971 30.57 24.0817 30.4946C24.2663 30.4193 24.4341 30.308 24.5754 30.1673C24.7167 30.0267 24.8286 29.8593 24.9047 29.675C24.9808 29.4907 25.0196 29.2932 25.0187 29.0938V27.4813C25.0187 25.1938 24.65 22.9313 23.9125 20.7688C23.7812 20.3813 23.8437 19.95 24.0812 19.6188C24.3187 19.2875 24.7062 19.0875 25.1125 19.0875H36.6937C37.425 19.0875 38.0625 18.6 38.1813 17.95C38.2688 17.4938 38.125 17.025 37.7938 16.6938C37.5313 16.425 37.1813 16.2813 36.8063 16.2813H35.7C35.2063 16.2813 34.8062 15.8813 34.8062 15.3875Z" fill="#F04C60"/>
</svg>
