<svg width="40" height="34" viewBox="0 0 40 34" fill="none" xmlns="http://www.w3.org/2000/svg">
<path d="M39.0625 17.7687C38.85 17.9875 38.6062 18.175 38.3438 18.3187C38.6937 18.8312 38.8937 19.45 38.8937 20.1125C38.8937 20.9625 38.5625 21.7625 37.9562 22.3687C37.7875 22.5375 37.6062 22.6812 37.4125 22.8062C37.8062 23.3437 38.0375 24 38.0375 24.7125C38.0375 25.55 37.6937 26.3687 37.1 26.9687C36.8625 27.2062 36.5875 27.4062 36.2938 27.5562C36.6105 28.0375 36.791 28.5955 36.8161 29.1711C36.8411 29.7467 36.7099 30.3184 36.4362 30.8253C36.1625 31.3323 35.7566 31.7557 35.2617 32.0506C34.7667 32.3454 34.2011 32.5007 33.625 32.5H21.2188C21.1375 32.5 21.0563 32.5 20.9813 32.4937C20.8375 32.5 20.5875 32.5125 20.2563 32.5125C18.925 32.5125 16.3625 32.3437 15.0875 31.1375C14.5687 30.6437 14.2938 30.0125 14.2938 29.3125C14.2938 28.8125 14.6937 28.4125 15.1875 28.4125C15.6813 28.4125 16.0812 28.8125 16.0812 29.3125C16.0812 29.5187 16.1563 29.6812 16.3188 29.8375C17.1438 30.6125 19.5312 30.7812 20.9375 30.7C20.975 30.7 21.025 30.7 21.0625 30.7062C21.1125 30.7062 21.1625 30.7125 21.2188 30.7125H33.625C33.9937 30.7125 34.35 30.5625 34.6125 30.3C34.8812 30.0312 35.025 29.6812 35.025 29.3125C35.025 28.5312 34.3938 27.9062 33.625 27.9062C33.1312 27.9062 32.725 27.5 32.725 27.0062C32.725 26.5125 33.1312 26.1125 33.625 26.1125H34.8438C35.2125 26.1125 35.575 25.9625 35.8375 25.7C36.0938 25.4375 36.2438 25.0812 36.2438 24.7125C36.2438 23.9375 35.6187 23.3062 34.8438 23.3062C34.35 23.3062 33.95 22.9062 33.95 22.4062C33.95 21.9125 34.35 21.5125 34.8438 21.5125H35.7C36.075 21.5125 36.425 21.3687 36.6937 21.1C36.9562 20.8375 37.1063 20.4875 37.1063 20.1125C37.1063 19.3375 36.475 18.7125 35.7 18.7125C35.2063 18.7125 34.8062 18.3125 34.8062 17.8125C34.8062 17.3187 35.2063 16.9187 35.7 16.9187H36.8063C37.1813 16.9187 37.5313 16.775 37.7938 16.5062C38.125 16.175 38.2688 15.7062 38.1813 15.25C38.0625 14.6 37.425 14.1125 36.6937 14.1125H25.1125C24.7062 14.1125 24.3187 13.9125 24.0812 13.5812C23.8437 13.25 23.7812 12.8187 23.9125 12.4312C24.65 10.2687 25.0187 8.00624 25.0187 5.71874V4.10624C25.0196 3.90685 24.9808 3.70929 24.9047 3.525C24.8286 3.34071 24.7167 3.17336 24.5754 3.03266C24.4341 2.89197 24.2663 2.78072 24.0817 2.70537C23.8971 2.63003 23.6994 2.59208 23.5 2.59374H21.8937V5.53124C21.8937 7.38124 21.3125 9.13124 20.2125 10.6C18.2375 13.2437 17.15 15.525 17.15 17.025C17.15 17.5187 16.75 17.9187 16.2563 17.9187H15.1875C14.9505 17.9187 14.7231 17.8246 14.5555 17.657C14.3879 17.4894 14.2938 17.262 14.2938 17.025C14.2938 16.788 14.3879 16.5606 14.5555 16.393C14.7231 16.2254 14.9505 16.1312 15.1875 16.1312H15.4375C15.8062 13.9 17.4062 11.3625 18.7812 9.52499C19.6438 8.36874 20.1 6.98749 20.1 5.53124V1.69374C20.1 1.19999 20.5062 0.799988 21 0.799988H23.5C24.3875 0.799988 25.2188 1.14374 25.8438 1.76874C26.4688 2.39374 26.8125 3.22499 26.8125 4.10624V5.71874C26.8125 7.96249 26.4813 10.1812 25.8313 12.3187H36.6937C38.2937 12.3187 39.6625 13.4125 39.9437 14.9187C40.1375 15.9562 39.8125 17.025 39.0625 17.7687ZM6.95625 14.4562H0.89375C0.4 14.4562 0 14.8562 0 15.35V32.3062C0 32.8 0.4 33.2 0.89375 33.2H6.95625C7.45 33.2 7.85 32.8 7.85 32.3062V15.35C7.85 14.8562 7.45 14.4562 6.95625 14.4562ZM6.05625 31.4062H1.79375V16.2437H6.05625V31.4062Z" fill="black"/>
<path d="M1.79375 16.2437H6.05625V31.4062H1.79375V16.2437Z" fill="#00FF38"/>
<path d="M12.1812 30.6937H9.58125C9.34421 30.6937 9.11688 30.5996 8.94927 30.432C8.78166 30.2644 8.6875 30.037 8.6875 29.8C8.6875 29.5629 8.78166 29.3356 8.94927 29.168C9.11688 29.0004 9.34421 28.9062 9.58125 28.9062H11.2875V16.2437H9.58125C9.34421 16.2437 9.11688 16.1496 8.94927 15.982C8.78166 15.8144 8.6875 15.587 8.6875 15.35C8.6875 15.1129 8.78166 14.8856 8.94927 14.718C9.11688 14.5504 9.34421 14.4562 9.58125 14.4562H12.1812C12.675 14.4562 13.075 14.8562 13.075 15.35V29.7937C13.0813 30.2937 12.675 30.6937 12.1812 30.6937Z" fill="black"/>
<path d="M34.8062 17.8125C34.8062 18.3125 35.2063 18.7125 35.7 18.7125C36.475 18.7125 37.1063 19.3375 37.1063 20.1125C37.1063 20.4875 36.9562 20.8375 36.6937 21.1C36.425 21.3687 36.075 21.5125 35.7 21.5125H34.8438C34.35 21.5125 33.95 21.9125 33.95 22.4062C33.95 22.9062 34.35 23.3062 34.8438 23.3062C35.6187 23.3062 36.2438 23.9375 36.2438 24.7125C36.2438 25.0812 36.0938 25.4375 35.8375 25.7C35.575 25.9625 35.2125 26.1125 34.8438 26.1125H33.625C33.1312 26.1125 32.725 26.5125 32.725 27.0062C32.725 27.5 33.1312 27.9062 33.625 27.9062C34.3938 27.9062 35.025 28.5312 35.025 29.3125C35.025 29.6812 34.8812 30.0312 34.6125 30.3C34.35 30.5625 33.9937 30.7125 33.625 30.7125H21.2188C21.1625 30.7125 21.1125 30.7062 21.0625 30.7062C21.025 30.7 20.975 30.7 20.9375 30.7C19.5312 30.7812 17.1438 30.6125 16.3188 29.8375C16.1563 29.6812 16.0812 29.5187 16.0812 29.3125C16.0812 28.8125 15.6813 28.4125 15.1875 28.4125C14.6937 28.4125 14.2938 28.8125 14.2938 29.3125V17.025C14.2938 17.5187 14.6937 17.9187 15.1875 17.9187H16.2563C16.75 17.9187 17.15 17.5187 17.15 17.025C17.15 15.525 18.2375 13.2437 20.2125 10.6C21.3125 9.13124 21.8937 7.38124 21.8937 5.53124V2.59374H23.5C23.6994 2.59208 23.8971 2.63003 24.0817 2.70537C24.2663 2.78072 24.4341 2.89197 24.5754 3.03266C24.7167 3.17336 24.8286 3.34071 24.9047 3.525C24.9808 3.70929 25.0196 3.90685 25.0187 4.10624V5.71874C25.0187 8.00624 24.65 10.2687 23.9125 12.4312C23.7812 12.8187 23.8437 13.25 24.0812 13.5812C24.3187 13.9125 24.7062 14.1125 25.1125 14.1125H36.6937C37.425 14.1125 38.0625 14.6 38.1813 15.25C38.2688 15.7062 38.125 16.175 37.7938 16.5062C37.5313 16.775 37.1813 16.9187 36.8063 16.9187H35.7C35.2063 16.9187 34.8062 17.3187 34.8062 17.8125Z" fill="#00FF38"/>
</svg>
