<svg width="20" height="20" viewBox="0 0 20 20" fill="none" xmlns="http://www.w3.org/2000/svg">
<path d="M14.1434 5.20921C13.9521 5.10275 13.7417 5.03505 13.5242 5.00998C13.3067 4.98491 13.0863 5.00296 12.8758 5.0631C12.6653 5.12323 12.4687 5.22428 12.2973 5.36045C12.1258 5.49663 11.9829 5.66526 11.8767 5.85671L8.78255 11.425L7.01172 9.65421C6.85798 9.49503 6.67407 9.36805 6.47073 9.28071C6.26739 9.19336 6.04869 9.14738 5.82739 9.14546C5.60609 9.14354 5.38662 9.18571 5.1818 9.26951C4.97697 9.35331 4.79088 9.47706 4.6344 9.63355C4.47791 9.79004 4.35415 9.97612 4.27035 10.181C4.18655 10.3858 4.14438 10.6052 4.1463 10.8265C4.14823 11.0478 4.1942 11.2665 4.28155 11.4699C4.3689 11.6732 4.49587 11.8571 4.65505 12.0109L7.98839 15.3442C8.30339 15.66 8.72839 15.8334 9.16672 15.8334L9.39755 15.8167C9.65301 15.781 9.89669 15.6864 10.1094 15.5405C10.3221 15.3946 10.4981 15.2013 10.6234 14.9759L14.7901 7.47588C14.8964 7.28458 14.9641 7.07421 14.9892 6.85678C15.0142 6.63934 14.9962 6.41909 14.9362 6.20861C14.8761 5.99812 14.7752 5.80153 14.6392 5.63005C14.5032 5.45858 14.3347 5.31557 14.1434 5.20921Z" fill="#68FFC0"/>
</svg>
