<svg width="22" height="26" viewBox="0 0 22 26" fill="none" xmlns="http://www.w3.org/2000/svg">
<path d="M17.1716 12.6822L19.4486 8.90342L11.1354 3.89402L10.2246 5.40551L11.7361 6.31632L1.26186 23.6985L3.90698 25.2924L9.82719 15.4677L10.9608 16.1508C11.7626 16.6339 12.7234 16.7788 13.6319 16.5535C14.5405 16.3282 15.3223 15.7512 15.8054 14.9494L12.4045 12.9001L13.7707 10.6329L17.1716 12.6822Z" fill="#E56353"/>
<path d="M3.67928 25.6703L1.03416 24.0764C0.933938 24.016 0.861813 23.9183 0.83365 23.8047C0.805487 23.6912 0.823592 23.5711 0.883982 23.4708L11.1305 6.46649L9.99688 5.78339C9.89666 5.723 9.82453 5.62527 9.79637 5.5117C9.76821 5.39814 9.78631 5.27803 9.8467 5.17781L10.7575 3.66632C10.8179 3.5661 10.9156 3.49397 11.0292 3.46581C11.1428 3.43765 11.2629 3.45575 11.3631 3.51614L19.6763 8.52555C19.7765 8.58594 19.8487 8.68367 19.8768 8.79724C19.905 8.9108 19.8869 9.03091 19.8265 9.13113L17.5495 12.9099C17.4891 13.0101 17.3914 13.0822 17.2778 13.1104C17.1642 13.1385 17.0441 13.1204 16.9439 13.06L13.9209 11.2384L13.0101 12.7499L16.0331 14.5715C16.1333 14.6319 16.2055 14.7297 16.2336 14.8432C16.2618 14.9568 16.2437 15.0769 16.1833 15.1771C15.6398 16.0791 14.7602 16.7282 13.7381 16.9817C12.716 17.2351 11.6351 17.0722 10.7331 16.5287L9.97736 16.0733L4.28485 25.5202C4.22446 25.6204 4.12674 25.6925 4.01317 25.7207C3.8996 25.7488 3.7795 25.7307 3.67928 25.6703ZM1.86743 23.5484L3.75681 24.6869L9.44931 15.24C9.5097 15.1398 9.60743 15.0677 9.721 15.0395C9.83457 15.0113 9.95467 15.0294 10.0549 15.0898L11.1885 15.7729C11.8246 16.1565 12.5776 16.2979 13.3095 16.1713C14.0413 16.0447 14.7031 15.6585 15.1734 15.0837L12.1768 13.278C12.0766 13.2176 12.0045 13.1199 11.9763 13.0063C11.9482 12.8927 11.9663 12.7726 12.0267 12.6724L13.3929 10.4052C13.4533 10.3049 13.551 10.2328 13.6646 10.2047C13.7781 10.1765 13.8982 10.1946 13.9984 10.255L17.0214 12.0766L18.843 9.0536L11.2856 4.49959L10.8302 5.25534L11.9638 5.93844C12.064 5.99883 12.1361 6.09656 12.1643 6.21013C12.1924 6.32369 12.1743 6.4438 12.1139 6.54402L1.86743 23.5484Z" fill="black"/>
<path d="M20.6695 3.45813L16.8908 1.18112C16.089 0.698005 15.1282 0.553166 14.2197 0.778471C13.3111 1.00378 12.5293 1.58077 12.0462 2.38252L18.8479 6.48112L17.9371 7.99262L19.4486 8.90342L21.2702 5.88043C21.5118 5.47955 21.5842 4.99914 21.4715 4.54487C21.3589 4.0906 21.0704 3.69969 20.6695 3.45813Z" fill="#64798A"/>
<path d="M19.2209 9.2813L17.7094 8.3705C17.6092 8.31011 17.5371 8.21238 17.5089 8.09881C17.4808 7.98524 17.4989 7.86514 17.5592 7.76492L18.2423 6.6313L11.8185 2.76039C11.7183 2.7 11.6461 2.60227 11.618 2.48871C11.5898 2.37514 11.6079 2.25504 11.6683 2.15482C12.2118 1.25285 13.0914 0.603733 14.1135 0.350265C15.1356 0.0967972 16.2165 0.25974 17.1185 0.803249L20.8972 3.08025C21.3983 3.3822 21.7589 3.87084 21.8998 4.43868C22.0406 5.00652 21.95 5.60704 21.6481 6.10813L19.8265 9.13113C19.7661 9.23134 19.6684 9.30347 19.5548 9.33163C19.4412 9.35979 19.3211 9.34169 19.2209 9.2813ZM18.5427 7.84245L19.2984 8.29785L20.8923 5.65273C21.0735 5.35207 21.1278 4.99176 21.0433 4.65106C20.9589 4.31036 20.7425 4.01717 20.4418 3.836L16.6631 1.559C16.027 1.17549 15.274 1.03407 14.5421 1.16067C13.8102 1.28726 13.1485 1.67339 12.6782 2.24828L19.0756 6.10325C19.1758 6.16364 19.248 6.26137 19.2761 6.37494C19.3043 6.4885 19.2862 6.60861 19.2258 6.70883L18.5427 7.84245Z" fill="black"/>
<path d="M13.7707 10.6329L18.3052 13.3653L16.939 15.6325L12.4045 12.9001L13.7707 10.6329Z" fill="#E1E6E9"/>
<path d="M16.7113 16.0104L12.1768 13.278C12.0766 13.2176 12.0045 13.1199 11.9763 13.0063C11.9482 12.8927 11.9663 12.7726 12.0267 12.6724L13.3929 10.4052C13.4533 10.3049 13.551 10.2328 13.6646 10.2047C13.7781 10.1765 13.8982 10.1946 13.9984 10.255L18.5329 12.9874C18.6332 13.0478 18.7053 13.1455 18.7334 13.2591C18.7616 13.3727 18.7435 13.4928 18.6831 13.593L17.3169 15.8602C17.2565 15.9604 17.1588 16.0326 17.0452 16.0607C16.9317 16.0889 16.8116 16.0708 16.7113 16.0104ZM13.0101 12.7499L16.7889 15.0269L17.6997 13.5154L13.9209 11.2384L13.0101 12.7499Z" fill="black"/>
</svg>
