<svg width="50" height="50" viewBox="0 0 50 50" fill="none" xmlns="http://www.w3.org/2000/svg">
<path d="M2.20587 4.41176H47.7941V39.7059H2.20587V4.41176Z" fill="#3EA69B"/>
<path d="M47.7941 40.4412H2.20588C2.01086 40.4412 1.82384 40.3637 1.68594 40.2258C1.54805 40.0879 1.47058 39.9009 1.47058 39.7059V4.41176C1.47058 4.21675 1.54805 4.02973 1.68594 3.89183C1.82384 3.75394 2.01086 3.67647 2.20588 3.67647H47.7941C47.9891 3.67647 48.1761 3.75394 48.314 3.89183C48.4519 4.02973 48.5294 4.21675 48.5294 4.41176V39.7059C48.5294 39.9009 48.4519 40.0879 48.314 40.2258C48.1761 40.3637 47.9891 40.4412 47.7941 40.4412ZM2.94117 38.9706H47.0588V5.14706H2.94117V38.9706Z" fill="black"/>
<path d="M44.8529 13.9706H29.4117C29.2167 13.9706 29.0297 13.8931 28.8918 13.7552C28.7539 13.6173 28.6765 13.4303 28.6765 13.2353C28.6765 13.0403 28.7539 12.8533 28.8918 12.7154C29.0297 12.5775 29.2167 12.5 29.4117 12.5H44.8529C45.0479 12.5 45.235 12.5775 45.3729 12.7154C45.5107 12.8533 45.5882 13.0403 45.5882 13.2353C45.5882 13.4303 45.5107 13.6173 45.3729 13.7552C45.235 13.8931 45.0479 13.9706 44.8529 13.9706ZM44.8529 20.0956H29.4117C29.2167 20.0956 29.0297 20.0181 28.8918 19.8802C28.7539 19.7423 28.6765 19.5553 28.6765 19.3603C28.6765 19.1653 28.7539 18.9783 28.8918 18.8404C29.0297 18.7025 29.2167 18.625 29.4117 18.625H44.8529C45.0479 18.625 45.235 18.7025 45.3729 18.8404C45.5107 18.9783 45.5882 19.1653 45.5882 19.3603C45.5882 19.5553 45.5107 19.7423 45.3729 19.8802C45.235 20.0181 45.0479 20.0956 44.8529 20.0956ZM44.8529 26.2279H29.4117C29.2167 26.2279 29.0297 26.1505 28.8918 26.0126C28.7539 25.8747 28.6765 25.6877 28.6765 25.4926C28.6765 25.2976 28.7539 25.1106 28.8918 24.9727C29.0297 24.8348 29.2167 24.7574 29.4117 24.7574H44.8529C45.0479 24.7574 45.235 24.8348 45.3729 24.9727C45.5107 25.1106 45.5882 25.2976 45.5882 25.4926C45.5882 25.6877 45.5107 25.8747 45.3729 26.0126C45.235 26.1505 45.0479 26.2279 44.8529 26.2279ZM44.8529 32.3529H29.4117C29.2167 32.3529 29.0297 32.2755 28.8918 32.1376C28.7539 31.9997 28.6765 31.8127 28.6765 31.6176C28.6765 31.4226 28.7539 31.2356 28.8918 31.0977C29.0297 30.9598 29.2167 30.8824 29.4117 30.8824H44.8529C45.0479 30.8824 45.235 30.9598 45.3729 31.0977C45.5107 31.2356 45.5882 31.4226 45.5882 31.6176C45.5882 31.8127 45.5107 31.9997 45.3729 32.1376C45.235 32.2755 45.0479 32.3529 44.8529 32.3529Z" fill="black"/>
<path d="M18.6176 14.7647C18.6176 17.2426 17.3603 20.375 15.8088 20.375C14.2574 20.375 13 17.2426 13 14.7647C13 12.2868 14.2574 11.3971 15.8088 11.3971C17.3603 11.3971 18.6176 12.2868 18.6176 14.7647Z" fill="#FCD462"/>
<path d="M15.8088 21.1103C13.6029 21.1103 12.2647 17.4338 12.2647 14.7647C12.2647 12.0956 13.5882 10.6618 15.8088 10.6618C18.0294 10.6618 19.3529 12.1985 19.3529 14.7647C19.3529 17.3309 18 21.1103 15.8088 21.1103ZM15.8088 12.1324C14.4191 12.1324 13.7353 12.9926 13.7353 14.7647C13.7353 17.1838 14.9412 19.6397 15.8088 19.6397C16.6765 19.6397 17.8824 17.1838 17.8824 14.7647C17.8824 12.9926 17.1985 12.1324 15.8088 12.1324Z" fill="black"/>
<path d="M8.51468 19.25C10.9926 19.25 14.125 20.5074 14.125 22.0588C14.125 23.6103 11.0294 24.8676 8.51468 24.8676C5.99997 24.8676 5.14703 23.6103 5.14703 22.0588C5.14703 20.5074 6.03674 19.25 8.51468 19.25Z" fill="#FCD462"/>
<path d="M8.51468 25.6029C5.94851 25.6029 4.41174 24.2647 4.41174 22.0588C4.41174 19.8529 5.94851 18.5147 8.51468 18.5147C11.0809 18.5147 14.8603 19.8529 14.8603 22.0588C14.8603 24.2647 11.1617 25.6029 8.51468 25.6029ZM8.51468 19.9926C6.74263 19.9853 5.88233 20.6618 5.88233 22.0588C5.88233 23.4559 6.74263 24.1324 8.51468 24.1324C10.9338 24.1324 13.3897 22.9265 13.3897 22.0588C13.3897 21.1912 10.9338 19.9853 8.51468 19.9853V19.9926Z" fill="black"/>
<path d="M13 29.3529C13 26.875 14.2574 23.7426 15.8088 23.7426C17.3603 23.7426 18.6176 26.875 18.6176 29.3529C18.6176 31.8309 17.3603 32.7206 15.8088 32.7206C14.2574 32.7206 13 31.8309 13 29.3529Z" fill="#FCD462"/>
<path d="M15.8088 33.4559C13.6029 33.4559 12.2647 31.9191 12.2647 29.3529C12.2647 26.7868 13.6103 23.0074 15.8088 23.0074C18.0074 23.0074 19.3529 26.6838 19.3529 29.3529C19.3529 32.0221 18.0294 33.4559 15.8088 33.4559ZM15.8088 24.4779C14.9412 24.4779 13.7353 26.9338 13.7353 29.3529C13.7353 31.125 14.4118 31.9853 15.8088 31.9853C17.2059 31.9853 17.8824 31.125 17.8824 29.3529C17.8824 26.9338 16.6765 24.4779 15.8088 24.4779Z" fill="black"/>
<path d="M23.103 24.8676C20.625 24.8676 17.4927 23.6103 17.4927 22.0588C17.4927 20.5074 20.625 19.25 23.103 19.25C25.5809 19.25 26.4706 20.5074 26.4706 22.0588C26.4706 23.6103 25.5809 24.8676 23.103 24.8676Z" fill="#FCD462"/>
<path d="M23.1029 25.6029C20.4559 25.6029 16.7573 24.2574 16.7573 22.0588C16.7573 19.8603 20.4338 18.5147 23.1029 18.5147C25.772 18.5147 27.2059 19.8529 27.2059 22.0588C27.2059 24.2647 25.6691 25.6029 23.1029 25.6029ZM23.1029 19.9926C20.6838 19.9926 18.2279 21.1985 18.2279 22.0662C18.2279 22.9338 20.6838 24.1397 23.1029 24.1397C24.875 24.1324 25.7353 23.4559 25.7353 22.0588C25.7353 20.6618 24.875 19.9853 23.1029 19.9853V19.9926Z" fill="black"/>
<path d="M15.8088 23.7426C16.7388 23.7426 17.4926 22.9888 17.4926 22.0588C17.4926 21.1289 16.7388 20.375 15.8088 20.375C14.8789 20.375 14.125 21.1289 14.125 22.0588C14.125 22.9888 14.8789 23.7426 15.8088 23.7426Z" fill="#72BEDE"/>
<path d="M15.8088 24.4779C15.3304 24.4779 14.8627 24.3361 14.4648 24.0702C14.067 23.8044 13.757 23.4266 13.5739 22.9846C13.3908 22.5425 13.3429 22.0561 13.4362 21.5869C13.5295 21.1176 13.7599 20.6866 14.0983 20.3482C14.4366 20.0099 14.8676 19.7795 15.3369 19.6862C15.8061 19.5928 16.2925 19.6408 16.7346 19.8239C17.1766 20.0069 17.5544 20.317 17.8203 20.7148C18.0861 21.1127 18.2279 21.5804 18.2279 22.0588C18.2279 22.7004 17.9731 23.3157 17.5194 23.7694C17.0657 24.2231 16.4504 24.4779 15.8088 24.4779V24.4779ZM15.8088 21.1103C15.6212 21.1103 15.4378 21.1659 15.2819 21.2702C15.1259 21.3744 15.0043 21.5225 14.9325 21.6958C14.8607 21.8692 14.8419 22.0599 14.8785 22.2439C14.9151 22.4279 15.0055 22.5969 15.1381 22.7295C15.2708 22.8622 15.4398 22.9525 15.6238 22.9891C15.8078 23.0257 15.9985 23.0069 16.1718 22.9352C16.3451 22.8634 16.4933 22.7418 16.5975 22.5858C16.7017 22.4298 16.7574 22.2464 16.7574 22.0588C16.7574 21.8073 16.6574 21.566 16.4795 21.3881C16.3017 21.2102 16.0604 21.1103 15.8088 21.1103V21.1103Z" fill="black"/>
<path d="M7.35297 39.7059H11.7647V43.3824C11.7647 43.9674 11.5323 44.5285 11.1186 44.9421C10.705 45.3558 10.1439 45.5882 9.55885 45.5882C8.97381 45.5882 8.41274 45.3558 7.99905 44.9421C7.58537 44.5285 7.35297 43.9674 7.35297 43.3824V39.7059Z" fill="#EBF0F3"/>
<path d="M9.55885 46.3235C8.7788 46.3235 8.0307 46.0137 7.47913 45.4621C6.92755 44.9105 6.61768 44.1624 6.61768 43.3824V39.7059C6.61768 39.5109 6.69514 39.3238 6.83304 39.186C6.97093 39.0481 7.15796 38.9706 7.35297 38.9706H11.7647C11.9597 38.9706 12.1468 39.0481 12.2847 39.186C12.4226 39.3238 12.5 39.5109 12.5 39.7059V43.3824C12.5 44.1624 12.1902 44.9105 11.6386 45.4621C11.087 46.0137 10.3389 46.3235 9.55885 46.3235ZM8.08826 40.4412V43.3824C8.08826 43.7724 8.2432 44.1464 8.51899 44.4222C8.79478 44.698 9.16883 44.8529 9.55885 44.8529C9.94888 44.8529 10.3229 44.698 10.5987 44.4222C10.8745 44.1464 11.0294 43.7724 11.0294 43.3824V40.4412H8.08826Z" fill="black"/>
<path d="M38.2353 39.7059H42.6471V43.3824C42.6471 43.9674 42.4146 44.5285 42.001 44.9421C41.5873 45.3558 41.0262 45.5882 40.4412 45.5882C39.8561 45.5882 39.2951 45.3558 38.8814 44.9421C38.4677 44.5285 38.2353 43.9674 38.2353 43.3824V39.7059Z" fill="#EBF0F3"/>
<path d="M40.4412 46.3235C39.6611 46.3235 38.913 46.0137 38.3615 45.4621C37.8099 44.9105 37.5 44.1624 37.5 43.3824V39.7059C37.5 39.5109 37.5775 39.3238 37.7154 39.186C37.8533 39.0481 38.0403 38.9706 38.2353 38.9706H42.6471C42.8421 38.9706 43.0291 39.0481 43.167 39.186C43.3049 39.3238 43.3824 39.5109 43.3824 39.7059V43.3824C43.3824 44.1624 43.0725 44.9105 42.5209 45.4621C41.9693 46.0137 41.2212 46.3235 40.4412 46.3235ZM38.9706 40.4412V43.3824C38.9706 43.7724 39.1255 44.1464 39.4013 44.4222C39.6771 44.698 40.0512 44.8529 40.4412 44.8529C40.8312 44.8529 41.2053 44.698 41.481 44.4222C41.7568 44.1464 41.9118 43.7724 41.9118 43.3824V40.4412H38.9706Z" fill="black"/>
</svg>
