<svg xmlns="http://www.w3.org/2000/svg" data-name="Layer 1" viewBox="0 0 68 68"><path fill="#3ea69b" d="M3 6h62v48H3z"/><path d="M65 55H3a1 1 0 0 1-1-1V6a1 1 0 0 1 1-1h62a1 1 0 0 1 1 1v48a1 1 0 0 1-1 1zM4 53h60V7H4z"/><path d="M61 19H40a1 1 0 0 1 0-2h21a1 1 0 0 1 0 2zM61 27.33H40a1 1 0 0 1 0-2h21a1 1 0 0 1 0 2zM61 35.67H40a1 1 0 0 1 0-2h21a1 1 0 0 1 0 2zM61 44H40a1 1 0 0 1 0-2h21a1 1 0 0 1 0 2z"/><path fill="#fcd462" d="M25.32 20.08c0 3.37-1.71 7.63-3.82 7.63s-3.82-4.26-3.82-7.63 1.71-4.58 3.82-4.58 3.82 1.21 3.82 4.58z"/><path d="M21.5 28.71c-3 0-4.82-5-4.82-8.63s1.8-5.58 4.82-5.58 4.82 2.09 4.82 5.58-1.84 8.63-4.82 8.63zm0-12.21c-1.89 0-2.82 1.17-2.82 3.58 0 3.29 1.64 6.63 2.82 6.63s2.82-3.34 2.82-6.63c0-2.41-.93-3.58-2.82-3.58z"/><path fill="#fcd462" d="M11.58 26.18c3.37 0 7.63 1.71 7.63 3.82s-4.21 3.82-7.63 3.82S7 32.11 7 30s1.21-3.82 4.58-3.82z"/><path d="M11.58 34.82C8.09 34.82 6 33 6 30s2.09-4.82 5.58-4.82S20.21 27 20.21 30s-5.03 4.82-8.63 4.82zm0-7.63C9.17 27.18 8 28.1 8 30s1.17 2.82 3.58 2.82c3.29 0 6.63-1.64 6.63-2.82s-3.34-2.82-6.63-2.82z"/><path fill="#fcd462" d="M17.68 39.92c0-3.37 1.71-7.63 3.82-7.63s3.82 4.26 3.82 7.63-1.71 4.58-3.82 4.58-3.82-1.21-3.82-4.58z"/><path d="M21.5 45.5c-3 0-4.82-2.09-4.82-5.58s1.83-8.63 4.82-8.63 4.82 5 4.82 8.63-1.8 5.58-4.82 5.58zm0-12.21c-1.18 0-2.82 3.34-2.82 6.63 0 2.41.92 3.58 2.82 3.58s2.82-1.17 2.82-3.58c0-3.29-1.64-6.63-2.82-6.63z"/><path fill="#fcd462" d="M31.42 33.82c-3.37 0-7.63-1.71-7.63-3.82s4.26-3.82 7.63-3.82S36 27.89 36 30s-1.21 3.82-4.58 3.82z"/><path d="M31.42 34.82c-3.6 0-8.63-1.83-8.63-4.82s5-4.82 8.63-4.82S37 27 37 30s-2.09 4.82-5.58 4.82zm0-7.63c-3.29 0-6.63 1.64-6.63 2.82s3.34 2.82 6.63 2.82C33.83 32.82 35 31.9 35 30s-1.17-2.82-3.58-2.82z"/><circle cx="21.5" cy="30" r="2.29" fill="#72bede"/><path d="M21.5 33.29A3.29 3.29 0 1 1 24.79 30a3.29 3.29 0 0 1-3.29 3.29zm0-4.58A1.29 1.29 0 1 0 22.79 30a1.29 1.29 0 0 0-1.29-1.29z"/><path fill="#ebf0f3" d="M10 54h6v5a3 3 0 0 1-3 3 3 3 0 0 1-3-3v-5z"/><path d="M13 63a4 4 0 0 1-4-4v-5a1 1 0 0 1 1-1h6a1 1 0 0 1 1 1v5a4 4 0 0 1-4 4zm-2-8v4a2 2 0 0 0 4 0v-4z"/><path fill="#ebf0f3" d="M52 54h6v5a3 3 0 0 1-3 3 3 3 0 0 1-3-3v-5z"/><path d="M55 63a4 4 0 0 1-4-4v-5a1 1 0 0 1 1-1h6a1 1 0 0 1 1 1v5a4 4 0 0 1-4 4zm-2-8v4a2 2 0 0 0 4 0v-4z"/></svg>