<svg xmlns="http://www.w3.org/2000/svg" fill-rule="evenodd" stroke-linejoin="round" stroke-miterlimit="2" clip-rule="evenodd" viewBox="0 0 64 64"><g transform="translate(-288 -192)"><path fill="#b47b44" d="M306.036 247C306.036 246.448 305.588 246 305.036 246L297 246C296.448 246 296 246.448 296 247L296 251C296 251.552 296.448 252 297 252L305.036 252C305.588 252 306.036 251.552 306.036 251L306.036 247zM344 247C344 246.448 343.552 246 343 246L334.964 246C334.412 246 333.964 246.448 333.964 247L333.964 251C333.964 251.552 334.412 252 334.964 252L343 252C343.552 252 344 251.552 344 251L344 247z"/><path fill="#b47b44" d="M335.557,193.205C335.413,192.917 335.195,192.75 334.964,192.75C334.734,192.75 334.515,192.917 334.371,193.205L331.336,199.277C331.153,199.642 331.118,200.141 331.244,200.562C331.371,200.983 331.636,201.25 331.928,201.25L338,201.25C338.292,201.25 338.558,200.983 338.684,200.562C338.81,200.141 338.775,199.642 338.593,199.277L335.557,193.205ZM334.964,195.908L336.421,198.822C336.421,198.822 333.507,198.822 333.507,198.822L334.964,195.908Z" transform="matrix(1.31757 0 0 .82348 -106.374 36.275)"/><path fill="#eac77d" d="M347,236L293,236C292.448,236 292,236.448 292,237L292,244C292,245.061 292.421,246.078 293.172,246.828C293.922,247.579 294.939,248 296,248L344,248C345.061,248 346.078,247.579 346.828,246.828C347.579,246.078 348,245.061 348,244C348,241.054 348,237 348,237C348,236.448 347.552,236 347,236Z"/><path fill="#b47b44" d="M319,248L321,248L321,237C321,236.448 320.552,236 320,236C319.448,236 319,236.448 319,237L319,248Z"/><path fill="#eac77d" d="M344,203C344,202.204 343.684,201.441 343.121,200.879C342.559,200.316 341.796,200 341,200L329,200C328.204,200 327.441,200.316 326.879,200.879C326.316,201.441 326,202.204 326,203C326,206.832 326,215.168 326,219C326,219.796 326.316,220.559 326.879,221.121C327.441,221.684 328.204,222 329,222L341,222C341.796,222 342.559,221.684 343.121,221.121C343.684,220.559 344,219.796 344,219L344,203Z"/><path fill="#a1e0ff" d="M339.964 205.045C339.964 204.493 339.516 204.045 338.964 204.045L331.036 204.045C330.484 204.045 330.036 204.493 330.036 205.045L330.036 217.045C330.036 217.597 330.484 218.045 331.036 218.045L338.964 218.045C339.516 218.045 339.964 217.597 339.964 217.045L339.964 205.045zM306 211.433L306 207C306 206.448 305.552 206 305 206L298.964 206C298.412 206 297.964 206.448 297.964 207L297.964 211.462C296.185 212.899 295 215.287 295 218 295 222.455 298.182 226 302 226 305.818 226 309 222.455 309 218 309 215.269 307.8 212.868 306 211.433z"/><path fill="#b47b44" d="M348,228.045C348,225.836 346.209,224.045 344,224.045C334.548,224.045 305.452,224.045 296,224.045C293.791,224.045 292,225.836 292,228.045C292,231.586 292,237 292,237C292,237.552 292.448,238 293,238L347,238C347.552,238 348,237.552 348,237L348,228.045Z"/><path d="M108,144L117,144C117.621,144 118.125,143.552 118.125,143C118.125,142.448 117.621,142 117,142L108,142C107.379,142 106.875,142.448 106.875,143C106.875,143.552 107.379,144 108,144Z" transform="matrix(.88889 0 0 1 206.5 99)"/><path d="M108,144L117,144C117.621,144 118.125,143.552 118.125,143C118.125,142.448 117.621,142 117,142L108,142C107.379,142 106.875,142.448 106.875,143C106.875,143.552 107.379,144 108,144Z" transform="matrix(.88889 0 0 1 233.5 99)"/><path d="M316,235L323.5,235C323.914,235 324.25,234.552 324.25,234C324.25,233.448 323.914,233 323.5,233L316,233C315.586,233 315.25,233.448 315.25,234C315.25,234.552 315.586,235 316,235Z" transform="matrix(1.33333 0 0 1 -106.333 -3)"/><path d="M296 248L296 251C296 251.552 296.448 252 297 252L305.036 252C305.588 252 306.036 251.552 306.036 251L306.036 248 333.964 248 333.964 251C333.964 251.552 334.412 252 334.964 252L343 252C343.552 252 344 251.552 344 251L344 248C345.061 248 346.078 247.579 346.828 246.828 347.579 246.078 348 245.061 348 244L348 228.045C348 225.836 346.209 224.045 344 224.045 334.548 224.045 305.452 224.045 296 224.045 293.791 224.045 292 225.836 292 228.045L292 244C292 245.061 292.421 246.078 293.172 246.828 293.922 247.579 294.939 248 296 248zM298 248L304.036 248 304.036 250C304.036 250 298 250 298 250L298 248zM335.964 248L342 248 342 250C342 250 335.964 250 335.964 250L335.964 248zM297 246L319 246 319 238 294 238 294 244C294 244.53 294.211 245.039 294.586 245.414 294.961 245.789 295.47 246 296 246L297 246zM321 246L344 246C344.53 246 345.039 245.789 345.414 245.414 345.789 245.039 346 244.53 346 244L346 238 321 238 321 246zM346 236L294 236C294 236 294 228.045 294 228.045 294 226.94 294.895 226.045 296 226.045 305.452 226.045 334.548 226.045 344 226.045 345.105 226.045 346 226.94 346 228.045L346 236zM330.483 200L329 200C328.204 200 327.441 200.316 326.879 200.879 326.316 201.441 326 202.204 326 203 326 206.832 326 215.168 326 219 326 219.796 326.316 220.559 326.879 221.121 327.441 221.684 328.204 222 329 222L341 222C341.796 222 342.559 221.684 343.121 221.121 343.684 220.559 344 219.796 344 219L344 203C344 202.204 343.684 201.441 343.121 200.879 342.559 200.316 341.796 200 341 200L339.445 200 335.745 195.375C335.555 195.138 335.268 195 334.964 195 334.66 195 334.373 195.138 334.183 195.375L330.483 200zM342 203L342 219C342 219.265 341.895 219.52 341.707 219.707 341.52 219.895 341.265 220 341 220 341 220 329 220 329 220 328.735 220 328.48 219.895 328.293 219.707 328.105 219.52 328 219.265 328 219L328 203C328 202.735 328.105 202.48 328.293 202.293 328.48 202.105 328.735 202 329 202 329 202 341 202 341 202 341.265 202 341.52 202.105 341.707 202.293 341.895 202.48 342 202.735 342 203zM339.964 205.045C339.964 204.493 339.516 204.045 338.964 204.045L331.036 204.045C330.484 204.045 330.036 204.493 330.036 205.045L330.036 217.045C330.036 217.597 330.484 218.045 331.036 218.045L338.964 218.045C339.516 218.045 339.964 217.597 339.964 217.045L339.964 205.045zM337.964 206.045L337.964 216.045C337.964 216.045 332.036 216.045 332.036 216.045 332.036 216.045 332.036 206.045 332.036 206.045L337.964 206.045zM336.883 200L333.045 200 334.964 197.601 336.883 200z"/><path d="M301,202L299,202C298.448,202 298,202.448 298,203C298,203.552 298.448,204 299,204L301,204L301,206L298.964,206C298.412,206 297.964,206.448 297.964,207L297.964,211.462C296.185,212.899 295,215.287 295,218C295,222.455 298.182,226 302,226C305.818,226 309,222.455 309,218C309,215.269 307.8,212.868 306,211.433L306,207C306,206.448 305.552,206 305,206L303,206L303,200L305,200C305.552,200 306,199.552 306,199C306,198.448 305.552,198 305,198L303,198L303,196C303,195.448 302.552,195 302,195C301.448,195 301,195.448 301,196L301,202ZM304,211.938C304,212.27 304.165,212.58 304.44,212.766C305.984,213.809 307,215.77 307,218C307,221.273 304.805,224 302,224C299.195,224 297,221.273 297,218C297,215.785 298.002,213.835 299.53,212.787C299.802,212.6 299.964,212.292 299.964,211.962L299.964,208C299.964,208 304,208 304,208C304,208 304,211.938 304,211.938Z"/></g></svg>