<svg width="45" height="45" viewBox="0 0 45 45" fill="none" xmlns="http://www.w3.org/2000/svg">
<g clip-path="url(#clip0_320_878)">
<path d="M23.1961 42.5953V42.9398C23.2003 43.0334 23.1855 43.1269 23.1526 43.2146C23.1197 43.3023 23.0694 43.3824 23.0047 43.4501C22.9399 43.5178 22.8622 43.5717 22.776 43.6085C22.6899 43.6454 22.5972 43.6643 22.5035 43.6643C22.4099 43.6643 22.3172 43.6454 22.231 43.6085C22.1449 43.5717 22.0671 43.5178 22.0024 43.4501C21.9377 43.3824 21.8873 43.3023 21.8544 43.2146C21.8215 43.1269 21.8067 43.0334 21.8109 42.9398V42.5953H23.1961Z" fill="#53BF9F"/>
<path d="M26.6063 40.2258C26.6063 40.7812 26.1563 41.2312 25.6008 41.2312H19.3992C19.1326 41.2312 18.8768 41.1253 18.6883 40.9368C18.4997 40.7482 18.3938 40.4924 18.3938 40.2258C18.3938 39.9591 18.4997 39.7034 18.6883 39.5148C18.8768 39.3262 19.1326 39.2203 19.3992 39.2203H25.6008C26.1563 39.2203 26.6063 39.6703 26.6063 40.2258ZM28.1883 33.4687C28.1883 34.0242 27.7383 34.4813 27.1828 34.4813H17.8172C17.5561 34.4715 17.309 34.3609 17.1277 34.1728C16.9465 33.9846 16.8452 33.7335 16.8452 33.4723C16.8452 33.211 16.9465 32.9599 17.1277 32.7718C17.309 32.5836 17.5561 32.473 17.8172 32.4633H27.1828C27.7383 32.4633 28.1883 32.9203 28.1883 33.4687V33.4687Z" fill="#F16150"/>
<path d="M27.4008 36.8508C27.4008 37.4063 26.9438 37.8563 26.3953 37.8563H18.6047C18.0562 37.8563 17.5992 37.4063 17.5992 36.8508C17.5992 36.2953 18.0562 35.8453 18.6047 35.8453H26.3953C26.9438 35.8453 27.4008 36.2953 27.4008 36.8508ZM20.025 13.0852V14.3578H18.7523C18.0492 14.3578 17.4727 13.7883 17.4727 13.0852C17.4727 12.382 18.0492 11.8055 18.7523 11.8055C19.4555 11.8055 20.025 12.382 20.025 13.0852ZM27.5273 13.0852C27.5273 13.7883 26.9508 14.3578 26.2477 14.3578H24.975V13.0852C24.975 12.382 25.5445 11.8055 26.2477 11.8055C26.9508 11.8055 27.5273 12.382 27.5273 13.0852ZM21.3891 15.7219H23.6109V31.0992H21.3891V15.7219Z" fill="#FFDC7C"/>
<path d="M30.2836 25.4391C28.9266 26.4164 27.8859 27.6469 27.2672 28.9898C26.9156 29.7352 26.7188 30.4453 26.6625 31.0992H24.975V15.7219H26.2477C26.9476 15.7219 27.619 15.4443 28.1146 14.95C28.6102 14.4557 28.8896 13.7851 28.8914 13.0852C28.8914 11.6297 27.7031 10.4414 26.2477 10.4414C25.5477 10.4433 24.8771 10.7226 24.3828 11.2182C23.8885 11.7138 23.6109 12.3852 23.611 13.0852V14.3578H21.3891V13.0852C21.3891 11.6297 20.2078 10.4414 18.7524 10.4414C17.2969 10.4414 16.1086 11.6297 16.1086 13.0852C16.1105 13.7851 16.3898 14.4557 16.8854 14.95C17.381 15.4443 18.0524 15.7219 18.7524 15.7219H20.025V31.0992H18.3375C18.2672 30.3961 18.0281 29.6156 17.6063 28.7719C16.9735 27.4922 15.975 26.3602 14.6602 25.3898C12.9722 24.1553 11.5986 22.5407 10.6507 20.6766C9.70279 18.8125 9.20715 16.7514 9.20392 14.6602C9.20392 10.8844 10.8211 7.27031 13.6406 4.74609C16.4953 2.19375 20.1867 1.01953 24.0258 1.44844C30.2203 2.1375 35.2617 7.35469 35.7539 13.5773C36.1195 18.2602 34.0734 22.6969 30.2836 25.4391V25.4391Z" fill="#FFDC7C"/>
<path opacity="0.07" d="M31.0781 26.543C29.918 27.3867 29.025 28.4273 28.5047 29.5594C28.2094 30.1852 28.0476 30.7547 28.0125 31.2609C28.9055 31.5984 29.5523 32.4563 29.5523 33.4688C29.5523 34.3477 29.0672 35.107 28.35 35.5219C28.6101 35.9016 28.7648 36.3586 28.7648 36.8508C28.7648 37.7297 28.2726 38.4891 27.5625 38.8969C27.8033 39.2533 27.9427 39.6685 27.9656 40.0981C27.9885 40.5276 27.8941 40.9553 27.6926 41.3354C27.491 41.7154 27.1898 42.0334 26.8214 42.2553C26.4529 42.4773 26.0309 42.5948 25.6008 42.5953H24.5601V42.9398C24.5673 43.2145 24.5194 43.4877 24.4193 43.7435C24.3192 43.9993 24.1688 44.2325 23.9772 44.4292C23.7855 44.626 23.5563 44.7824 23.3032 44.8892C23.0501 44.996 22.7782 45.051 22.5035 45.051C22.2288 45.051 21.9569 44.996 21.7038 44.8892C21.4507 44.7824 21.2215 44.626 21.0298 44.4292C20.8382 44.2325 20.6878 43.9993 20.5877 43.7435C20.4876 43.4877 20.4397 43.2145 20.4469 42.9398V42.5953H19.3992C18.969 42.5948 18.5471 42.4773 18.1786 42.2553C17.8101 42.0334 17.509 41.7154 17.3074 41.3354C17.1058 40.9553 17.0115 40.5276 17.0344 40.0981C17.0573 39.6685 17.1966 39.2533 17.4375 38.8969C16.7273 38.4891 16.2351 37.7297 16.2351 36.8508C16.2351 36.3586 16.3898 35.9016 16.65 35.5219C15.9328 35.107 15.4476 34.3477 15.4476 33.4688C15.4476 32.4633 16.0875 31.6055 16.9805 31.2609C16.9312 30.7195 16.7344 30.0797 16.3898 29.3836C15.8484 28.3008 14.9976 27.3305 13.8516 26.4938C13.4719 26.2195 13.1133 25.9242 12.7687 25.6148C13.2187 25.4039 13.6687 25.1859 14.1117 24.9609C16.1789 23.9273 18.1476 22.7391 20.025 21.4172C20.4891 21.0867 20.9391 20.7563 21.3891 20.4117C22.1484 19.8352 22.8867 19.2375 23.6109 18.6117C24.075 18.225 24.525 17.8172 24.975 17.4094C25.5867 16.8398 26.1844 16.2633 26.768 15.6656C27.4957 14.9389 28.197 14.186 28.8703 13.4086C30.5297 11.5242 32.0906 9.49922 33.5601 7.33359C33.8484 6.91875 34.1226 6.49688 34.3969 6.06797C35.9226 8.18438 36.893 10.7227 37.1109 13.4719C37.5187 18.6328 35.2617 23.5195 31.0781 26.543V26.543Z" fill="black"/>
<path d="M37.1109 13.4719C36.893 10.7227 35.9227 8.18438 34.3969 6.06797C32.0414 2.8125 28.3852 0.5625 24.1734 0.0914065C19.9406 -0.379687 15.8766 0.914062 12.7266 3.73359C11.1899 5.1092 9.9605 6.79327 9.11849 8.67598C8.27648 10.5587 7.84079 12.5977 7.83984 14.6602C7.83984 18.8578 9.66094 22.8586 12.7687 25.6148C13.1133 25.9242 13.4719 26.2195 13.8516 26.4937C14.9977 27.3305 15.8484 28.3008 16.3898 29.3836C16.7344 30.0797 16.9312 30.7195 16.9805 31.2609C16.0875 31.6055 15.4477 32.4633 15.4477 33.4687C15.4477 34.3477 15.9328 35.107 16.65 35.5219C16.3898 35.9016 16.2352 36.3586 16.2352 36.8508C16.2352 37.7297 16.7273 38.4891 17.4375 38.8969C17.1966 39.2533 17.0573 39.6685 17.0344 40.0981C17.0115 40.5276 17.1059 40.9553 17.3074 41.3354C17.509 41.7154 17.8101 42.0334 18.1786 42.2553C18.5471 42.4773 18.9691 42.5948 19.3992 42.5953H20.4469V42.9398C20.4397 43.2144 20.4876 43.4877 20.5877 43.7435C20.6878 43.9993 20.8382 44.2325 21.0299 44.4292C21.2215 44.626 21.4507 44.7824 21.7038 44.8892C21.9569 44.996 22.2288 45.051 22.5035 45.051C22.7782 45.051 23.0501 44.996 23.3032 44.8892C23.5563 44.7824 23.7855 44.626 23.9772 44.4292C24.1689 44.2325 24.3192 43.9993 24.4193 43.7435C24.5195 43.4877 24.5673 43.2144 24.5602 42.9398V42.5953H25.6008C26.0309 42.5948 26.4529 42.4773 26.8214 42.2553C27.1898 42.0334 27.491 41.7154 27.6926 41.3354C27.8941 40.9553 27.9885 40.5276 27.9656 40.0981C27.9427 39.6685 27.8034 39.2533 27.5625 38.8969C28.2727 38.4891 28.7648 37.7297 28.7648 36.8508C28.7648 36.3586 28.6102 35.9016 28.35 35.5219C29.0672 35.107 29.5523 34.3477 29.5523 33.4687C29.5523 32.4562 28.9055 31.5984 28.0125 31.2609C28.0477 30.7547 28.2094 30.1852 28.5047 29.5594C29.025 28.4273 29.918 27.3867 31.0781 26.543C35.2617 23.5195 37.5187 18.6328 37.1109 13.4719V13.4719ZM23.1961 42.9398C23.2003 43.0334 23.1855 43.1269 23.1526 43.2146C23.1197 43.3023 23.0694 43.3824 23.0047 43.4501C22.9399 43.5178 22.8621 43.5717 22.776 43.6085C22.6899 43.6454 22.5972 43.6643 22.5035 43.6643C22.4098 43.6643 22.3171 43.6454 22.231 43.6085C22.1449 43.5717 22.0671 43.5178 22.0024 43.4501C21.9376 43.3824 21.8873 43.3023 21.8544 43.2146C21.8215 43.1269 21.8067 43.0334 21.8109 42.9398V42.5953H23.1961V42.9398ZM25.6008 41.2312H19.3992C19.1326 41.2312 18.8768 41.1253 18.6882 40.9368C18.4997 40.7482 18.3937 40.4924 18.3937 40.2258C18.3937 39.9591 18.4997 39.7034 18.6882 39.5148C18.8768 39.3262 19.1326 39.2203 19.3992 39.2203H25.6008C25.8674 39.2203 26.1232 39.3262 26.3118 39.5148C26.5003 39.7034 26.6062 39.9591 26.6062 40.2258C26.6062 40.4924 26.5003 40.7482 26.3118 40.9368C26.1232 41.1253 25.8674 41.2312 25.6008 41.2312V41.2312ZM26.3953 37.8562H18.6047C18.0562 37.8562 17.5992 37.4062 17.5992 36.8508C17.5992 36.2953 18.0562 35.8453 18.6047 35.8453H26.3953C26.9437 35.8453 27.4008 36.2953 27.4008 36.8508C27.4008 37.4062 26.9437 37.8562 26.3953 37.8562V37.8562ZM28.1883 33.4687C28.1883 34.0242 27.7383 34.4812 27.1828 34.4812H17.8172C17.5561 34.4715 17.309 34.3609 17.1277 34.1728C16.9464 33.9846 16.8452 33.7335 16.8452 33.4723C16.8452 33.211 16.9464 32.9599 17.1277 32.7718C17.309 32.5836 17.5561 32.473 17.8172 32.4633H27.1828C27.7383 32.4633 28.1883 32.9203 28.1883 33.4687V33.4687ZM20.025 14.3578H18.7523C18.0492 14.3578 17.4727 13.7883 17.4727 13.0852C17.4727 12.382 18.0492 11.8055 18.7523 11.8055C19.4555 11.8055 20.025 12.382 20.025 13.0852V14.3578ZM21.3891 15.7219H23.6109V31.0992H21.3891V15.7219V15.7219ZM30.2836 25.4391C28.9266 26.4164 27.8859 27.6469 27.2672 28.9898C26.9156 29.7352 26.7187 30.4453 26.6625 31.0992H24.975V15.7219H26.2477C26.4234 15.7219 26.5992 15.7008 26.768 15.6656C27.3655 15.547 27.9036 15.2252 28.2907 14.7548C28.6778 14.2843 28.8901 13.6944 28.8914 13.0852C28.8914 11.6297 27.7031 10.4414 26.2477 10.4414C25.5477 10.4433 24.8771 10.7226 24.3828 11.2182C23.8885 11.7138 23.6109 12.3852 23.6109 13.0852V14.3578H21.3891V13.0852C21.3891 11.6297 20.2078 10.4414 18.7523 10.4414C17.2969 10.4414 16.1086 11.6297 16.1086 13.0852C16.1105 13.7851 16.3898 14.4557 16.8854 14.95C17.381 15.4443 18.0524 15.7219 18.7523 15.7219H20.025V31.0992H18.3375C18.2672 30.3961 18.0281 29.6156 17.6063 28.7719C16.9734 27.4922 15.975 26.3602 14.6602 25.3898C14.4703 25.2562 14.2875 25.1156 14.1117 24.9609C12.5808 23.7155 11.3462 22.1451 10.4974 20.3634C9.64851 18.5818 9.20668 16.6337 9.20391 14.6602C9.20391 10.8844 10.8211 7.27031 13.6406 4.74609C16.4953 2.19375 20.1867 1.01953 24.0258 1.44844C27.9562 1.88438 31.4227 4.14844 33.5602 7.33359C34.7836 9.16875 35.5711 11.2992 35.7539 13.5773C36.1195 18.2602 34.0734 22.6969 30.2836 25.4391ZM26.2477 14.3578H24.975V13.0852C24.975 12.382 25.5445 11.8055 26.2477 11.8055C26.9508 11.8055 27.5273 12.382 27.5273 13.0852C27.5273 13.7883 26.9508 14.3578 26.2477 14.3578Z" fill="black"/>
</g>
<defs>
<clipPath id="clip0_320_878">
<rect width="45" height="45" fill="white"/>
</clipPath>
</defs>
</svg>
