<svg xmlns="http://www.w3.org/2000/svg" viewBox="0 0 64 64"><path fill="#53bf9f" d="M32.99 60.58v.49a.986.986 0 1 1-1.97 0v-.49h1.97z"/><path fill="#f16150" d="M37.84 57.21c0 .79-.64 1.43-1.43 1.43h-8.82a1.43 1.43 0 1 1 0-2.86h8.82c.79 0 1.43.64 1.43 1.43zm2.25-9.61c0 .79-.64 1.44-1.43 1.44H25.34a1.436 1.436 0 0 1 0-2.87h13.32c.79 0 1.43.65 1.43 1.43z"/><path fill="#ffdc7c" d="M38.97 52.41c0 .79-.65 1.43-1.43 1.43H26.46c-.78 0-1.43-.64-1.43-1.43 0-.79.65-1.43 1.43-1.43h11.08c.78 0 1.43.64 1.43 1.43zm-10.49-33.8v1.81h-1.81c-1 0-1.82-.81-1.82-1.81s.82-1.82 1.82-1.82 1.81.82 1.81 1.82zm10.67 0c0 1-.82 1.81-1.82 1.81h-1.81v-1.81c0-1 .81-1.82 1.81-1.82s1.82.82 1.82 1.82zM30.42 22.36h3.16v21.87h-3.16z"/><path fill="#ffdc7c" d="M43.07 36.18c-1.93 1.39-3.41 3.14-4.29 5.05-.5 1.06-.78 2.07-.86 3h-2.4V22.36h1.81a3.76 3.76 0 0 0 3.76-3.75c0-2.07-1.69-3.76-3.76-3.76a3.76 3.76 0 0 0-3.75 3.76v1.81h-3.16v-1.81c0-2.07-1.68-3.76-3.75-3.76s-3.76 1.69-3.76 3.76a3.76 3.76 0 0 0 3.76 3.75h1.81v21.87h-2.4c-.1-1-.44-2.11-1.04-3.31-.9-1.82-2.32-3.43-4.19-4.81a18.942 18.942 0 0 1-7.76-15.26c0-5.37 2.3-10.51 6.31-14.1 4.06-3.63 9.31-5.3 14.77-4.69 8.81.98 15.98 8.4 16.68 17.25.52 6.66-2.39 12.97-7.78 16.87z"/><path d="M44.2 37.75c-1.65 1.2-2.92 2.68-3.66 4.29-.42.89-.65 1.7-.7 2.42 1.27.48 2.19 1.7 2.19 3.14 0 1.25-.69 2.33-1.71 2.92.37.54.59 1.19.59 1.89 0 1.25-.7 2.33-1.71 2.91a3.372 3.372 0 0 1-2.79 5.26h-1.48v.49a2.926 2.926 0 1 1-5.85 0v-.49h-1.49a3.372 3.372 0 0 1-2.79-5.26c-1.01-.58-1.71-1.66-1.71-2.91 0-.7.22-1.35.59-1.89-1.02-.59-1.71-1.67-1.71-2.92 0-1.43.91-2.65 2.18-3.14-.07-.77-.35-1.68-.84-2.67-.77-1.54-1.98-2.92-3.61-4.11-.54-.39-1.05-.81-1.54-1.25.64-.3 1.28-.61 1.91-.93 2.94-1.47 5.74-3.16 8.41-5.04.66-.47 1.3-.94 1.94-1.43 1.08-.82 2.13-1.67 3.16-2.56.66-.55 1.3-1.13 1.94-1.71.87-.81 1.72-1.63 2.55-2.48a60.68 60.68 0 0 0 2.99-3.21c2.36-2.68 4.58-5.56 6.67-8.64.41-.59.8-1.19 1.19-1.8 2.17 3.01 3.55 6.62 3.86 10.53.58 7.34-2.63 14.29-8.58 18.59z" opacity=".07"/><path fill="#2b2e63" d="M52.78 19.16c-.31-3.91-1.69-7.52-3.86-10.53C45.57 4 40.37.8 34.38.13 28.36-.54 22.58 1.3 18.1 5.31a20.87 20.87 0 0 0-6.95 15.54c0 5.97 2.59 11.66 7.01 15.58.49.44 1 .86 1.54 1.25 1.63 1.19 2.84 2.57 3.61 4.11.49.99.77 1.9.84 2.67-1.27.49-2.18 1.71-2.18 3.14 0 1.25.69 2.33 1.71 2.92-.37.54-.59 1.19-.59 1.89 0 1.25.7 2.33 1.71 2.91a3.372 3.372 0 0 0 2.79 5.26h1.49v.49a2.926 2.926 0 1 0 5.85 0v-.49h1.48a3.372 3.372 0 0 0 2.79-5.26c1.01-.58 1.71-1.66 1.71-2.91 0-.7-.22-1.35-.59-1.89 1.02-.59 1.71-1.67 1.71-2.92 0-1.44-.92-2.66-2.19-3.14.05-.72.28-1.53.7-2.42.74-1.61 2.01-3.09 3.66-4.29 5.95-4.3 9.16-11.25 8.58-18.59zM32.99 61.07a.986.986 0 1 1-1.97 0v-.49h1.97v.49zm3.42-2.43h-8.82a1.43 1.43 0 1 1 0-2.86h8.82a1.43 1.43 0 1 1 0 2.86zm1.13-4.8H26.46c-.78 0-1.43-.64-1.43-1.43 0-.79.65-1.43 1.43-1.43h11.08c.78 0 1.43.64 1.43 1.43 0 .79-.65 1.43-1.43 1.43zm2.55-6.24c0 .79-.64 1.44-1.43 1.44H25.34a1.436 1.436 0 0 1 0-2.87h13.32c.79 0 1.43.65 1.43 1.43zM28.48 20.42h-1.81c-1 0-1.82-.81-1.82-1.81s.82-1.82 1.82-1.82 1.81.82 1.81 1.82v1.81zm1.94 1.94h3.16v21.87h-3.16V22.36zm12.65 13.82c-1.93 1.39-3.41 3.14-4.29 5.05-.5 1.06-.78 2.07-.86 3h-2.4V22.36h1.81c.25 0 .5-.03.74-.08a3.75 3.75 0 0 0 3.02-3.67c0-2.07-1.69-3.76-3.76-3.76a3.76 3.76 0 0 0-3.75 3.76v1.81h-3.16v-1.81c0-2.07-1.68-3.76-3.75-3.76s-3.76 1.69-3.76 3.76a3.76 3.76 0 0 0 3.76 3.75h1.81v21.87h-2.4c-.1-1-.44-2.11-1.04-3.31-.9-1.82-2.32-3.43-4.19-4.81-.27-.19-.53-.39-.78-.61a18.92 18.92 0 0 1-6.98-14.65c0-5.37 2.3-10.51 6.31-14.1 4.06-3.63 9.31-5.3 14.77-4.69 5.59.62 10.52 3.84 13.56 8.37 1.74 2.61 2.86 5.64 3.12 8.88.52 6.66-2.39 12.97-7.78 16.87zm-5.74-15.76h-1.81v-1.81c0-1 .81-1.82 1.81-1.82s1.82.82 1.82 1.82-.82 1.81-1.82 1.81z"/></svg>