<svg width="50" height="50" viewBox="0 0 50 50" fill="none" xmlns="http://www.w3.org/2000/svg">
<path d="M14.8453 5.46875H33.5953V16.3813H14.8453V5.46875Z" fill="#2BBDA8" stroke="black" stroke-width="1.5" stroke-linecap="round" stroke-linejoin="round"/>
<path d="M13.2812 22.6562V25C13.2812 28.6406 21.0938 27.8656 21.0938 30.4688C21.0938 36.8922 18.5156 40.1063 21.0938 42.6844C22.5672 44.1578 25.8719 44.1578 27.3438 42.6844C29.9219 40.1063 27.3438 36.1359 27.3438 30.4688C27.3438 27.8656 35.1438 28.9844 35.1438 25V22.6562H13.2812Z" fill="#FF5A67" stroke="black" stroke-width="1.5"/>
<path d="M13.2828 16.4062H35.1578V22.6562H13.2828V16.4062Z" fill="#D9D9D9" stroke="black" stroke-width="1.5" stroke-linecap="round" stroke-linejoin="round"/>
<path d="M21.0938 5.50781V11.7578C21.0938 12.6234 21.7813 13.3203 22.6094 13.3203H22.7047C23.5328 13.3203 24.2188 12.6234 24.2188 11.7578V9.41875C24.2188 8.79375 24.5625 7.85625 25.7812 7.85625C26.9797 7.85625 27.3438 8.75312 27.3438 9.41875V10.9766C27.3438 11.8422 28.0312 12.5391 28.8578 12.5391H29.0047C29.8328 12.5391 30.4688 11.8422 30.4688 10.9766V5.50781H21.0938Z" fill="#FF5A67" stroke="black" stroke-linecap="round" stroke-linejoin="round"/>
</svg>
