<svg xmlns="http://www.w3.org/2000/svg" viewBox="0 0 512 512"><g data-name="Paint Brush"><path fill="#f58775" stroke="#000" stroke-miterlimit="10" stroke-width="15" d="M495.94,66.12A66.74,66.74,0,0,0,376.28,35.28S315.07,126.64,276,185.08l48.62,48.62L469.72,125.14C488.2,111.4,499.17,88.87,495.94,66.12Zm-65.6,36.5a28.87,28.87,0,1,1,28.87-28.87A28.88,28.88,0,0,1,430.34,102.62Z"/><path fill="#f58775" stroke="#000" stroke-miterlimit="10" stroke-width="15" d="M400.65,338.81l-43,43a20.7,20.7,0,0,1-29.11,0l-2.66-2.66L140,193.05l-8.66-8.66a20.49,20.49,0,0,1,0-29.11l43-43a20.56,20.56,0,0,1,29,0L400.65,309.7A20.5,20.5,0,0,1,400.65,338.81Z"/><path fill="#2cbec6" stroke="#000" stroke-linecap="round" stroke-linejoin="round" stroke-width="15" d="M325.93,379.12l-113.3,113.3a38.27,38.27,0,0,1-54.05,0L146.1,479.95l43.08-68-62.95,48.16L70,403.83l67.22-93-92.4,67.8L26.67,360.52a38.27,38.27,0,0,1,0-54.05L140,193.05Z"/></g></svg>