<svg xmlns="http://www.w3.org/2000/svg" width="512" height="512"><path fill="#009AFF" d="m375.629 494.824 13.681-127.988h82.559l13.683 127.988"/><path d="m478.094 495.621-12.966-121.285h-69.077l-12.965 121.285-14.915-1.594 13.682-127.988a7.499 7.499 0 0 1 7.457-6.703h82.56a7.499 7.499 0 0 1 7.457 6.703l13.683 127.988-14.916 1.594z"/><path fill="#FFDC03" d="M202.437 117.883c0 12.255 9.934 22.187 22.188 22.187 12.253 0 22.187-9.932 22.187-22.187v-52.2c0-12.254-9.934-22.187-22.187-22.187-12.254 0-22.188 9.933-22.188 22.187v52.2z"/><path d="M224.624 147.569c-16.37 0-29.688-13.317-29.688-29.687v-52.2c0-16.369 13.317-29.687 29.688-29.687 16.369 0 29.687 13.317 29.687 29.687v52.2c0 16.37-13.318 29.687-29.687 29.687zm0-96.573c-8.099 0-14.688 6.588-14.688 14.687v52.2c0 8.099 6.589 14.687 14.688 14.687s14.687-6.588 14.687-14.687v-52.2c0-8.099-6.588-14.687-14.687-14.687z"/><path fill="#FFDC03" d="M370.439 348.486c0 10.135 8.215 18.35 18.351 18.35h83.288c10.133 0 18.349-8.215 18.349-18.35 0-10.134-8.216-18.35-18.349-18.35H388.79c-10.136.001-18.351 8.217-18.351 18.35z"/><path d="M472.078 374.336H388.79c-14.254 0-25.851-11.596-25.851-25.85s11.597-25.85 25.851-25.85h83.288c14.253 0 25.849 11.596 25.849 25.85s-11.596 25.85-25.849 25.85zm-83.288-36.699c-5.983 0-10.851 4.867-10.851 10.85s4.867 10.85 10.851 10.85h83.288c5.982 0 10.849-4.867 10.849-10.85s-4.866-10.85-10.849-10.85H388.79z"/><path fill="#FFDC03" d="M40.418 268.395c10.133 0 18.35-8.216 18.35-18.35v-83.287c0-10.136-8.217-18.351-18.35-18.351-10.135 0-18.35 8.215-18.35 18.351v83.287c0 10.134 8.215 18.35 18.35 18.35z"/><path d="M40.418 275.895c-14.254 0-25.85-11.596-25.85-25.85v-83.287c0-14.254 11.596-25.851 25.85-25.851s25.85 11.597 25.85 25.851v83.287c0 14.254-11.596 25.85-25.85 25.85zm0-119.988c-5.982 0-10.85 4.867-10.85 10.851v83.287c0 5.982 4.867 10.85 10.85 10.85s10.85-4.867 10.85-10.85v-83.287c0-5.984-4.868-10.851-10.85-10.851z"/><path fill="#FF8500" d="M58.609 164.39h88.453c14.89-27.562 44.037-46.289 77.562-46.289s62.67 18.728 77.56 46.289h64.126c75.696 0 108.998 29.063 108.998 112.736v53.011h-86.431v-48.301c0-17.129-13.886-31.016-31.016-31.016h-57.283c-15.312 26.012-43.586 43.48-75.954 43.48-32.37 0-60.642-17.469-75.956-43.48H58.609v-86.43z"/><path d="M475.308 337.637h-86.431a7.499 7.499 0 0 1-7.5-7.5v-48.301c0-12.967-10.549-23.516-23.516-23.516H304.75c-17.561 26.927-47.869 43.48-80.126 43.48-32.256 0-62.565-16.554-80.128-43.48H58.609a7.499 7.499 0 0 1-7.5-7.5v-86.43c0-4.143 3.357-7.5 7.5-7.5h84.102a95.55 95.55 0 0 1 81.913-46.289 95.548 95.548 0 0 1 81.911 46.289h59.774c41.552 0 69.571 8.636 88.179 27.178 19.32 19.253 28.319 48.823 28.319 93.059v53.011a7.498 7.498 0 0 1-7.499 7.499zm-78.931-15h71.431v-45.511c0-76.714-27.509-105.236-101.498-105.236h-64.126a7.5 7.5 0 0 1-6.599-3.936c-14.113-26.124-41.304-42.354-70.961-42.354-29.658 0-56.85 16.229-70.963 42.354a7.5 7.5 0 0 1-6.599 3.936H66.109v71.431h82.559a7.5 7.5 0 0 1 6.463 3.695c14.448 24.54 41.077 39.785 69.493 39.785 28.417 0 55.045-15.245 69.491-39.785a7.499 7.499 0 0 1 6.463-3.695h57.283c21.237 0 38.516 17.278 38.516 38.516v40.8z"/><path fill="#FF8500" d="M97.076 43.496c0 13.382 10.851 24.23 24.233 24.23h206.63c13.381 0 24.231-10.849 24.231-24.23 0-13.384-10.851-24.231-24.231-24.231H121.31c-13.383 0-24.234 10.847-24.234 24.231z"/><path d="M327.939 75.227H121.31c-17.498 0-31.733-14.234-31.733-31.73 0-17.497 14.235-31.731 31.733-31.731h206.63c17.497 0 31.731 14.234 31.731 31.731 0 17.495-14.234 31.73-31.732 31.73zM121.31 26.765c-9.227 0-16.733 7.506-16.733 16.731s7.507 16.73 16.733 16.73h206.63c9.226 0 16.731-7.505 16.731-16.73s-7.506-16.731-16.731-16.731H121.31z"/></svg>