<svg width="43" height="49" viewBox="0 0 43 49" fill="none" xmlns="http://www.w3.org/2000/svg">
<g filter="url(#filter0_d_320_864)">
<path d="M30.1451 40.591L31.1337 30.092H37.0999L38.0887 40.591" fill="#009AFF"/>
<path d="M37.5497 40.6564L36.6127 30.7073H31.6208L30.6839 40.6564L29.6061 40.5257L30.5948 30.0266C30.609 29.8756 30.6719 29.736 30.7714 29.6344C30.8709 29.5329 30.9999 29.4768 31.1337 29.4768H37.1C37.2337 29.4768 37.3628 29.5329 37.4623 29.6344C37.5617 29.736 37.6246 29.8756 37.6388 30.0266L38.6276 40.5257L37.5497 40.6564Z" fill="black"/>
<path d="M17.6292 9.67009C17.6292 10.6754 18.3471 11.4901 19.2326 11.4901C20.1181 11.4901 20.836 10.6754 20.836 9.67009V5.38806C20.836 4.38285 20.1181 3.56803 19.2326 3.56803C18.3471 3.56803 17.6292 4.38285 17.6292 5.38806V9.67009Z" fill="#FFDC03"/>
<path d="M19.2326 12.1053C18.0496 12.1053 17.0872 11.0129 17.0872 9.67001V5.38797C17.0872 4.04521 18.0495 2.95271 19.2326 2.95271C20.4155 2.95271 21.3779 4.04512 21.3779 5.38797V9.67001C21.3779 11.0129 20.4155 12.1053 19.2326 12.1053ZM19.2326 4.18326C18.6473 4.18326 18.1711 4.72369 18.1711 5.38806V9.67009C18.1711 10.3345 18.6473 10.8749 19.2326 10.8749C19.8179 10.8749 20.2939 10.3345 20.2939 9.67009V5.38806C20.2939 4.72369 19.8179 4.18326 19.2326 4.18326Z" fill="black"/>
<path d="M29.77 28.5867C29.77 29.4181 30.3637 30.092 31.0962 30.092H37.115C37.8473 30.092 38.441 29.4181 38.441 28.5867C38.441 27.7554 37.8473 27.0815 37.115 27.0815H31.0962C30.3637 27.0815 29.77 27.7555 29.77 28.5867Z" fill="#FFDC03"/>
<path d="M37.115 30.7072H31.0962C30.0661 30.7072 29.228 29.756 29.228 28.5867C29.228 27.4175 30.0661 26.4662 31.0962 26.4662H37.115C38.145 26.4662 38.983 27.4175 38.983 28.5867C38.983 29.756 38.145 30.7072 37.115 30.7072V30.7072ZM31.0962 27.6968C30.6638 27.6968 30.312 28.096 30.312 28.5868C30.312 29.0776 30.6637 29.4769 31.0962 29.4769H37.115C37.5473 29.4769 37.899 29.0776 37.899 28.5868C37.899 28.096 37.5474 27.6968 37.115 27.6968H31.0962V27.6968Z" fill="black"/>
<path d="M5.92086 22.0168C6.65313 22.0168 7.24694 21.3428 7.24694 20.5115V13.6794C7.24694 12.8479 6.65313 12.174 5.92086 12.174C5.18845 12.174 4.59479 12.8479 4.59479 13.6794V20.5115C4.59479 21.3428 5.18845 22.0168 5.92086 22.0168Z" fill="#FFDC03"/>
<path d="M5.92086 22.632C4.89079 22.632 4.0528 21.6808 4.0528 20.5115V13.6794C4.0528 12.5101 4.89079 11.5588 5.92086 11.5588C6.95094 11.5588 7.78893 12.5101 7.78893 13.6794V20.5115C7.78893 21.6808 6.95094 22.632 5.92086 22.632ZM5.92086 12.7892C5.48857 12.7892 5.13678 13.1885 5.13678 13.6794V20.5115C5.13678 21.0022 5.4885 21.4015 5.92086 21.4015C6.35323 21.4015 6.70494 21.0023 6.70494 20.5115V13.6794C6.70494 13.1885 6.35315 12.7892 5.92086 12.7892Z" fill="black"/>
<path d="M7.23541 13.4851H13.6275C14.7036 11.2242 16.8099 9.68797 19.2326 9.68797C21.6553 9.68797 23.7615 11.2243 24.8375 13.4851H29.4716C34.9418 13.4851 37.3484 15.8692 37.3484 22.733V27.0815H31.1024V23.1194C31.1024 21.7142 30.099 20.5751 28.861 20.5751H24.7215C23.6149 22.7089 21.5717 24.1418 19.2326 24.1418C16.8934 24.1418 14.8503 22.7088 13.7436 20.5751H7.23541V13.4851V13.4851Z" fill="#FF8500"/>
<path d="M37.3484 27.6968H31.1024C31.0313 27.6968 30.9608 27.6809 30.895 27.65C30.8293 27.6191 30.7695 27.5737 30.7192 27.5166C30.6688 27.4595 30.6289 27.3917 30.6017 27.317C30.5744 27.2424 30.5604 27.1623 30.5604 27.0816V23.1194C30.5604 22.0557 29.7981 21.1903 28.861 21.1903H25.0229C23.7539 23.3992 21.5637 24.757 19.2326 24.757C16.9016 24.757 14.7113 23.3991 13.4421 21.1903H7.23541C7.16423 21.1903 7.09375 21.1744 7.02799 21.1435C6.96223 21.1126 6.90248 21.0673 6.85214 21.0101C6.80181 20.953 6.76189 20.8852 6.73466 20.8105C6.70742 20.7359 6.69341 20.6559 6.69342 20.5751V13.4851C6.69342 13.1453 6.93602 12.8699 7.23541 12.8699H13.3131C13.9273 11.711 14.7953 10.7523 15.8326 10.0869C16.8699 9.42156 18.0412 9.07217 19.2326 9.07274C20.424 9.07218 21.5953 9.42158 22.6325 10.087C23.6698 10.7523 24.5377 11.711 25.1519 12.8699H29.4715C32.4743 12.8699 34.4991 13.5783 35.8439 15.0993C37.24 16.6787 37.8903 19.1043 37.8903 22.7331V27.0816C37.8904 27.1624 37.8763 27.2424 37.8491 27.3171C37.8219 27.3917 37.782 27.4595 37.7316 27.5166C37.6813 27.5738 37.6216 27.6191 37.5558 27.65C37.4901 27.6809 37.4196 27.6968 37.3484 27.6968V27.6968ZM31.6444 26.4663H36.8064V22.733C36.8064 16.44 34.8185 14.1004 29.4716 14.1004H24.8375C24.7398 14.1004 24.6438 14.0703 24.5599 14.0135C24.4759 13.9567 24.4071 13.8751 24.3606 13.7775C23.3407 11.6345 21.3758 10.3031 19.2326 10.3031C17.0893 10.3031 15.1243 11.6344 14.1044 13.7775C14.058 13.8751 13.9891 13.9567 13.9052 14.0135C13.8212 14.0703 13.7253 14.1004 13.6275 14.1004H7.7774V19.9599H13.7436C13.8379 19.9599 13.9307 19.9879 14.0126 20.0411C14.0945 20.0942 14.1628 20.1707 14.2106 20.263C15.2547 22.2761 17.1791 23.5266 19.2326 23.5266C21.2862 23.5266 23.2105 22.2761 24.2544 20.263C24.3023 20.1707 24.3705 20.0942 24.4525 20.041C24.5344 19.9879 24.6271 19.9599 24.7215 19.9599H28.861C30.3957 19.9599 31.6444 21.3773 31.6444 23.1194V26.4663V26.4663Z" fill="black"/>
<path d="M10.0153 3.56803C10.0153 4.66577 10.7994 5.55565 11.7665 5.55565H26.6987C27.6657 5.55565 28.4498 4.66569 28.4498 3.56803C28.4498 2.47013 27.6656 1.58033 26.6987 1.58033H11.7665C10.7994 1.58033 10.0153 2.47013 10.0153 3.56803V3.56803Z" fill="#FF8500"/>
<path d="M26.6987 6.17096H11.7665C10.502 6.17096 9.47333 5.00333 9.47333 3.56811C9.47333 2.13281 10.502 0.965179 11.7665 0.965179H26.6988C27.9632 0.965179 28.9918 2.13281 28.9918 3.56811C28.9918 5.00325 27.9632 6.17096 26.6987 6.17096V6.17096ZM11.7665 2.19557C11.0997 2.19557 10.5573 2.81129 10.5573 3.56803C10.5573 4.32477 11.0998 4.94041 11.7665 4.94041H26.6988C27.3655 4.94041 27.9079 4.32477 27.9079 3.56803C27.9079 2.81129 27.3654 2.19557 26.6988 2.19557H11.7665V2.19557Z" fill="black"/>
</g>
<defs>
<filter id="filter0_d_320_864" x="-1" y="0" width="45" height="50" filterUnits="userSpaceOnUse" color-interpolation-filters="sRGB">
<feFlood flood-opacity="0" result="BackgroundImageFix"/>
<feColorMatrix in="SourceAlpha" type="matrix" values="0 0 0 0 0 0 0 0 0 0 0 0 0 0 0 0 0 0 127 0" result="hardAlpha"/>
<feOffset dy="4"/>
<feGaussianBlur stdDeviation="2"/>
<feComposite in2="hardAlpha" operator="out"/>
<feColorMatrix type="matrix" values="0 0 0 0 0 0 0 0 0 0 0 0 0 0 0 0 0 0 0.25 0"/>
<feBlend mode="normal" in2="BackgroundImageFix" result="effect1_dropShadow_320_864"/>
<feBlend mode="normal" in="SourceGraphic" in2="effect1_dropShadow_320_864" result="shape"/>
</filter>
</defs>
</svg>
