<svg width="50" height="50" viewBox="0 0 50 50" fill="none" xmlns="http://www.w3.org/2000/svg">
<path d="M13.2812 37.5V28.9062C13.2812 28.2846 13.5282 27.6885 13.9677 27.249C14.4073 26.8094 15.0034 26.5625 15.625 26.5625H34.375C34.9966 26.5625 35.5927 26.8094 36.0323 27.249C36.4718 27.6885 36.7188 28.2846 36.7188 28.9062V37.5" fill="#C0CEE8"/>
<path d="M19.5312 35.1562H36.7188V28.9062C36.7188 28.2846 36.4718 27.6885 36.0323 27.249C35.5927 26.8094 34.9966 26.5625 34.375 26.5625H15.625V31.25C15.625 32.286 16.0366 33.2796 16.7691 34.0121C17.5017 34.7447 18.4952 35.1562 19.5312 35.1562Z" fill="#D6DFEF"/>
<path d="M40.625 42.1875C40.625 41.7731 40.4604 41.3757 40.1674 41.0826C39.8743 40.7896 39.4769 40.625 39.0625 40.625H10.9375C10.5231 40.625 10.1257 40.7896 9.83265 41.0826C9.53962 41.3757 9.375 41.7731 9.375 42.1875V48.4375H40.625V42.1875Z" fill="#FF4B50"/>
<path d="M40.625 42.1875C40.625 41.7731 40.4604 41.3757 40.1673 41.0826C39.8743 40.7896 39.4769 40.625 39.0625 40.625H12.5539C12.7441 42.1345 13.4784 43.5228 14.6191 44.5296C15.7598 45.5364 17.2285 46.0926 18.75 46.0938H40.625V42.1875Z" fill="#FF797B"/>
<path d="M25 35.1562C24.3967 35.1562 23.8063 34.9816 23.3001 34.6534C22.7939 34.3252 22.3935 33.8576 22.1473 33.3068C21.901 32.7561 21.8195 32.1459 21.9124 31.5498C22.0054 30.9537 22.2689 30.3973 22.6711 29.9477L23.8352 30.9898C23.6341 31.2147 23.5025 31.4929 23.4561 31.7909C23.4097 32.0889 23.4505 32.394 23.5737 32.6693C23.6969 32.9446 23.8971 33.1784 24.1502 33.3424C24.4032 33.5065 24.6984 33.5938 25 33.5938C25.3016 33.5938 25.5967 33.5065 25.8498 33.3424C26.1029 33.1784 26.3031 32.9446 26.4263 32.6693C26.5494 32.394 26.5903 32.0889 26.5439 31.7909C26.4975 31.4929 26.3659 31.2147 26.1648 30.9898L27.3289 29.9477C27.7311 30.3973 27.9946 30.9537 28.0876 31.5498C28.1805 32.1459 28.099 32.7561 27.8527 33.3068C27.6065 33.8576 27.2061 34.3252 26.6999 34.6534C26.1937 34.9816 25.6033 35.1562 25 35.1562V35.1562Z" fill="#E9353F"/>
<path d="M25.7812 28.9062H24.2188V32.0312H25.7812V28.9062Z" fill="#E9353F"/>
<path d="M39.0625 40.625L36.7188 37.5H13.2812L10.9375 40.625H39.0625Z" fill="#E9353F"/>
<path d="M15.625 26.5625V8.59375C15.625 7.97215 15.8719 7.37601 16.3115 6.93647C16.751 6.49693 17.3471 6.25 17.9688 6.25H32.0312C32.6529 6.25 33.249 6.49693 33.6885 6.93647C34.1281 7.37601 34.375 7.97215 34.375 8.59375V26.5625" fill="#A3B8DB"/>
<path d="M21.875 24.2188H34.375V8.59375C34.375 7.97215 34.1281 7.37601 33.6885 6.93647C33.249 6.49693 32.6529 6.25 32.0312 6.25H17.9688V20.3125C17.9688 21.3485 18.3803 22.3421 19.1129 23.0746C19.8454 23.8072 20.839 24.2188 21.875 24.2188V24.2188Z" fill="#C0CEE8"/>
<path d="M29.6875 6.25V3.125C29.6875 2.7106 29.5229 2.31317 29.2299 2.02015C28.9368 1.72712 28.5394 1.5625 28.125 1.5625H21.875C21.4606 1.5625 21.0632 1.72712 20.7701 2.02015C20.4771 2.31317 20.3125 2.7106 20.3125 3.125V3.125V6.25" fill="#383838"/>
<path d="M31.25 9.375H18.75V23.4375H31.25V9.375Z" fill="#383838"/>
<path d="M31.25 9.375H20.3125V21.875H31.25V9.375Z" fill="#4C4C4C"/>
<path d="M22.6562 9.375H21.0938V23.4375H22.6562V9.375Z" fill="#C0CEE8"/>
<path d="M25.7812 9.375H24.2188V23.4375H25.7812V9.375Z" fill="#C0CEE8"/>
<path d="M28.9062 9.375H27.3438V23.4375H28.9062V9.375Z" fill="#C0CEE8"/>
<path d="M13.2812 42.9688H11.7188V46.0938H13.2812V42.9688Z" fill="white"/>
<path d="M16.4062 42.9688H14.8438V46.0938H16.4062V42.9688Z" fill="white"/>
<path d="M19.5312 42.9688H17.9688V46.0938H19.5312V42.9688Z" fill="white"/>
<path d="M32.0312 42.9688H30.4688V46.0938H32.0312V42.9688Z" fill="white"/>
<path d="M35.1562 42.9688H33.5938V46.0938H35.1562V42.9688Z" fill="white"/>
<path d="M38.2812 42.9688H36.7188V46.0938H38.2812V42.9688Z" fill="white"/>
<path d="M25 4.6875H29.6875V3.125C29.6875 2.7106 29.5229 2.31317 29.2299 2.02015C28.9368 1.72712 28.5394 1.5625 28.125 1.5625H21.875C21.875 2.3913 22.2042 3.18616 22.7903 3.77221C23.3763 4.35826 24.1712 4.6875 25 4.6875Z" fill="#4C4C4C"/>
<path d="M25 35.1562C25.6033 35.1562 26.1937 34.9816 26.6999 34.6534C27.2061 34.3252 27.6065 33.8576 27.8527 33.3068C28.099 32.7561 28.1805 32.1459 28.0876 31.5498C27.9946 30.9537 27.7311 30.3973 27.3289 29.9477L26.1648 30.9898C26.3659 31.2147 26.4975 31.4929 26.5439 31.7909C26.5903 32.0889 26.5494 32.394 26.4263 32.6693C26.3031 32.9446 26.1029 33.1784 25.8498 33.3424C25.5967 33.5065 25.3016 33.5938 25 33.5938C24.6984 33.5938 24.4032 33.5065 24.1502 33.3424C23.8971 33.1784 23.6969 32.9446 23.5737 32.6693C23.4505 32.394 23.4097 32.0889 23.4561 31.7909C23.5025 31.4929 23.6341 31.2147 23.8352 30.9898L22.6711 29.9477C22.2689 30.3973 22.0054 30.9537 21.9124 31.5498C21.8195 32.1459 21.901 32.7561 22.1473 33.3068C22.3935 33.8576 22.7939 34.3252 23.3001 34.6534C23.8063 34.9816 24.3967 35.1562 25 35.1562V35.1562Z" fill="black"/>
<path d="M25.7812 28.9062H24.2188V32.0312H25.7812V28.9062Z" fill="black"/>
<path d="M9.375 49.2188H40.625C40.8322 49.2188 41.0309 49.1364 41.1774 48.9899C41.3239 48.8434 41.4062 48.6447 41.4062 48.4375V42.1875C41.4052 41.64 41.2125 41.1101 40.8616 40.6899C40.5107 40.2696 40.0237 39.9855 39.4852 39.8867L37.5 37.2398V28.9062C37.4974 28.2155 37.266 27.545 36.842 26.9997C36.4179 26.4543 35.8251 26.0649 35.1562 25.8922V8.59375C35.1562 7.76495 34.827 6.97009 34.241 6.38404C33.6549 5.79799 32.8601 5.46875 32.0312 5.46875H30.4688V3.125C30.4688 2.5034 30.2218 1.90726 29.7823 1.46772C29.3427 1.02818 28.7466 0.78125 28.125 0.78125H21.875C21.2534 0.78125 20.6573 1.02818 20.2177 1.46772C19.7782 1.90726 19.5313 2.5034 19.5312 3.125V5.46875H17.9688C17.1399 5.46875 16.3451 5.79799 15.759 6.38404C15.173 6.97009 14.8438 7.76495 14.8438 8.59375V25.8922C14.1749 26.0649 13.5821 26.4543 13.158 26.9997C12.734 27.545 12.5026 28.2155 12.5 28.9062V37.2398L10.5148 39.8867C9.97631 39.9855 9.48934 40.2696 9.13843 40.6899C8.78752 41.1101 8.59481 41.64 8.59375 42.1875V48.4375C8.59375 48.6447 8.67606 48.8434 8.82257 48.9899C8.96909 49.1364 9.1678 49.2188 9.375 49.2188ZM36.3281 38.2812L37.5 39.8438H12.5L13.6719 38.2812H36.3281ZM21.0938 3.125C21.0938 2.9178 21.1761 2.71909 21.3226 2.57257C21.4691 2.42606 21.6678 2.34375 21.875 2.34375H28.125C28.3322 2.34375 28.5309 2.42606 28.6774 2.57257C28.8239 2.71909 28.9062 2.9178 28.9062 3.125V5.46875H21.0938V3.125ZM17.9688 7.03125H32.0312C32.4457 7.03125 32.8431 7.19587 33.1361 7.4889C33.4291 7.78192 33.5938 8.17935 33.5938 8.59375V25.7812H16.4062V8.59375C16.4062 8.17935 16.5709 7.78192 16.8639 7.4889C17.1569 7.19587 17.5543 7.03125 17.9688 7.03125V7.03125ZM15.625 27.3438H34.375C34.7894 27.3438 35.1868 27.5084 35.4799 27.8014C35.7729 28.0944 35.9375 28.4918 35.9375 28.9062V36.7188H14.0625V28.9062C14.0625 28.4918 14.2271 28.0944 14.5201 27.8014C14.8132 27.5084 15.2106 27.3438 15.625 27.3438V27.3438ZM10.1562 42.1875C10.1562 41.9803 10.2386 41.7816 10.3851 41.6351C10.5316 41.4886 10.7303 41.4062 10.9375 41.4062H39.0625C39.2697 41.4062 39.4684 41.4886 39.6149 41.6351C39.7614 41.7816 39.8438 41.9803 39.8438 42.1875V47.6562H10.1562V42.1875Z" fill="black"/>
<path d="M18.75 24.2188H31.25C31.4572 24.2188 31.6559 24.1364 31.8024 23.9899C31.9489 23.8434 32.0312 23.6447 32.0312 23.4375V9.375C32.0312 9.1678 31.9489 8.96909 31.8024 8.82257C31.6559 8.67606 31.4572 8.59375 31.25 8.59375H18.75C18.5428 8.59375 18.3441 8.67606 18.1976 8.82257C18.0511 8.96909 17.9688 9.1678 17.9688 9.375V23.4375C17.9688 23.6447 18.0511 23.8434 18.1976 23.9899C18.3441 24.1364 18.5428 24.2188 18.75 24.2188ZM24.2188 22.6562H22.6562V10.1562H24.2188V22.6562ZM25.7812 10.1562H27.3438V22.6562H25.7812V10.1562ZM30.4688 22.6562H28.9062V10.1562H30.4688V22.6562ZM19.5312 10.1562H21.0938V22.6562H19.5312V10.1562Z" fill="black"/>
<path d="M13.2812 42.9688H11.7188V46.0938H13.2812V42.9688Z" fill="black"/>
<path d="M16.4062 42.9688H14.8438V46.0938H16.4062V42.9688Z" fill="black"/>
<path d="M19.5312 42.9688H17.9688V46.0938H19.5312V42.9688Z" fill="black"/>
<path d="M32.0312 42.9688H30.4688V46.0938H32.0312V42.9688Z" fill="black"/>
<path d="M35.1562 42.9688H33.5938V46.0938H35.1562V42.9688Z" fill="black"/>
<path d="M38.2812 42.9688H36.7188V46.0938H38.2812V42.9688Z" fill="black"/>
</svg>
