<svg xmlns="http://www.w3.org/2000/svg" data-name="Layer 3" viewBox="0 0 64 64"><path fill="#c0cee8" d="M17,48V37h0a3,3,0,0,1,3-3H44a3,3,0,0,1,3,3V48"/><path fill="#d6dfef" d="M25,45H47V37a3,3,0,0,0-3-3H20v6A5,5,0,0,0,25,45Z"/><path fill="#ff4b50" d="M52,54a2,2,0,0,0-2-2H14a2,2,0,0,0-2,2v8H52Z"/><path fill="#ff797b" d="M52,54a2,2,0,0,0-2-2H16.069A8,8,0,0,0,24,59H52Z"/><path fill="#e9353f" d="M32,45a4,4,0,0,1-2.981-6.667l1.49,1.334a2,2,0,1,0,2.982,0l1.49-1.334A4,4,0,0,1,32,45Z"/><rect width="2" height="4" x="31" y="37" fill="#e9353f"/><polygon fill="#e9353f" points="50 52 47 48 17 48 14 52 50 52"/><path fill="#a3b8db" d="M20,34V11a3,3,0,0,1,3-3H41a3,3,0,0,1,3,3V34"/><path fill="#c0cee8" d="M28,31H44V11a3,3,0,0,0-3-3H23V26A5,5,0,0,0,28,31Z"/><path fill="#383838" d="M38,8V4a2,2,0,0,0-2-2H28a2,2,0,0,0-2,2h0V8"/><rect width="16" height="18" x="24" y="12" fill="#383838"/><rect width="14" height="16" x="26" y="12" fill="#4c4c4c"/><rect width="2" height="18" x="27" y="12" fill="#c0cee8"/><rect width="2" height="18" x="31" y="12" fill="#c0cee8"/><rect width="2" height="18" x="35" y="12" fill="#c0cee8"/><rect width="2" height="4" x="15" y="55" fill="#fff"/><rect width="2" height="4" x="19" y="55" fill="#fff"/><rect width="2" height="4" x="23" y="55" fill="#fff"/><rect width="2" height="4" x="39" y="55" fill="#fff"/><rect width="2" height="4" x="43" y="55" fill="#fff"/><rect width="2" height="4" x="47" y="55" fill="#fff"/><path fill="#4c4c4c" d="M32,6h6V4a2,2,0,0,0-2-2H28A4,4,0,0,0,32,6Z"/><path d="M32,45a4,4,0,0,0,2.981-6.667l-1.49,1.334a2,2,0,1,1-2.982,0l-1.49-1.334A4,4,0,0,0,32,45Z"/><rect width="2" height="4" x="31" y="37"/><path d="M12,63H52a1,1,0,0,0,1-1V54a3,3,0,0,0-2.459-2.945L48,47.667V37a4,4,0,0,0-3-3.858V11a4,4,0,0,0-4-4H39V4a3,3,0,0,0-3-3H28a3,3,0,0,0-3,3V7H23a4,4,0,0,0-4,4V33.142A4,4,0,0,0,16,37V47.667l-2.541,3.388A3,3,0,0,0,11,54v8A1,1,0,0,0,12,63ZM46.5,49,48,51H16l1.5-2ZM27,4a1,1,0,0,1,1-1h8a1,1,0,0,1,1,1V7H27ZM23,9H41a2,2,0,0,1,2,2V33H21V11A2,2,0,0,1,23,9ZM20,35H44a2,2,0,0,1,2,2V47H18V37A2,2,0,0,1,20,35ZM13,54a1,1,0,0,1,1-1H50a1,1,0,0,1,1,1v7H13Z"/><path d="M24,31H40a1,1,0,0,0,1-1V12a1,1,0,0,0-1-1H24a1,1,0,0,0-1,1V30A1,1,0,0,0,24,31Zm7-2H29V13h2Zm2-16h2V29H33Zm6,16H37V13h2ZM25,13h2V29H25Z"/><rect width="2" height="4" x="15" y="55"/><rect width="2" height="4" x="19" y="55"/><rect width="2" height="4" x="23" y="55"/><rect width="2" height="4" x="39" y="55"/><rect width="2" height="4" x="43" y="55"/><rect width="2" height="4" x="47" y="55"/></svg>