<svg width="30" height="30" viewBox="0 0 30 30" fill="none" xmlns="http://www.w3.org/2000/svg">
<g clip-path="url(#clip0_35_1958)">
<path d="M16.0635 27.0117L14.7598 25.708L11.6484 22.5967L7.86914 18.8174L4.62012 15.5684C4.09277 15.041 3.57422 14.5078 3.03809 13.9864L3.01465 13.9629V16.0342L4.31836 14.7305L7.42969 11.6192L11.209 7.83987L14.458 4.59085C14.9854 4.0635 15.5186 3.54202 16.04 3.00882L16.0635 2.98538C16.3301 2.71878 16.4912 2.3262 16.4912 1.94827C16.4912 1.58792 16.333 1.16018 16.0635 0.911159C15.7852 0.656277 15.4189 0.465847 15.0264 0.483425C14.6367 0.501003 14.2705 0.632839 13.9893 0.911159L12.6855 2.21487L9.57422 5.3262L5.79492 9.10549L2.5459 12.3545C2.01855 12.8819 1.48535 13.4033 0.963867 13.9366L0.94043 13.96C0.380859 14.5196 0.380859 15.4717 0.94043 16.0313C1.37695 16.4707 1.81348 16.9043 2.24707 17.3408L5.3584 20.4522L9.1377 24.2315L12.3867 27.4805C12.9141 28.0078 13.4355 28.541 13.9688 29.0625L13.9922 29.086C14.2588 29.3526 14.6514 29.5137 15.0293 29.5137C15.3896 29.5137 15.8174 29.3555 16.0664 29.086C16.3213 28.8076 16.5117 28.4414 16.4941 28.0489C16.4736 27.6592 16.3447 27.293 16.0635 27.0117Z" fill="black"/>
<path d="M1.97171 16.4649H26.9678C27.3047 16.4649 27.6446 16.4678 27.9815 16.4649H28.0254C28.4004 16.4649 28.7959 16.3008 29.0625 16.0371C29.3174 15.7822 29.5078 15.3662 29.4903 15C29.4727 14.6221 29.3496 14.2295 29.0625 13.9629C28.7754 13.6992 28.4239 13.5352 28.0254 13.5352H3.02932C2.69241 13.5352 2.35257 13.5322 2.01565 13.5352H1.97171C1.59671 13.5352 1.2012 13.6992 0.934597 13.9629C0.679714 14.2178 0.489284 14.6338 0.506862 15C0.524441 15.378 0.647487 15.7705 0.934597 16.0371C1.22464 16.2979 1.5762 16.4649 1.97171 16.4649Z" fill="black"/>
</g>
<defs>
<clipPath id="clip0_35_1958">
<rect width="30" height="30" fill="white"/>
</clipPath>
</defs>
</svg>
