<svg width="50" height="50" viewBox="0 0 50 50" fill="none" xmlns="http://www.w3.org/2000/svg">
<path d="M6.25001 22.9167C6.03551 22.9171 5.82612 22.8513 5.65043 22.7282C5.47473 22.6052 5.3413 22.4309 5.26837 22.2292C5.19543 22.0275 5.18655 21.8082 5.24292 21.6012C5.29929 21.3943 5.41818 21.2098 5.58334 21.0729L21.9375 7.44792C22.1502 7.27111 22.4245 7.18604 22.6999 7.21144C22.9754 7.23683 23.2294 7.37061 23.4063 7.58334C23.5831 7.79606 23.6681 8.07031 23.6427 8.34576C23.6173 8.6212 23.4836 8.87527 23.2708 9.05209C5.48959 23.8646 6.79167 22.9167 6.25001 22.9167ZM43.75 22.9167C43.2083 22.9167 44.5938 23.9583 26.7292 9.05209C26.5164 8.87527 26.3827 8.6212 26.3573 8.34576C26.3319 8.07031 26.4169 7.79606 26.5938 7.58334C26.7706 7.37061 27.0246 7.23683 27.3001 7.21144C27.5755 7.18604 27.8498 7.27111 28.0625 7.44792L44.4167 21.0729C44.5818 21.2098 44.7007 21.3943 44.7571 21.6012C44.8135 21.8082 44.8046 22.0275 44.7316 22.2292C44.6587 22.4309 44.5253 22.6052 44.3496 22.7282C44.1739 22.8513 43.9645 22.9171 43.75 22.9167V22.9167Z" fill="#DAD7E5"/>
<path d="M48.9583 21.875H1.04166V46.875H48.9583V21.875Z" fill="#DB5669"/>
<path d="M48.9583 21.875V44.7917H7.29167C6.56453 44.7873 5.8512 44.5927 5.22257 44.2272C4.59394 43.8617 4.0719 43.3381 3.70834 42.7083C2.88542 41.375 3.12501 41.8229 3.12501 21.875H48.9583Z" fill="#F26674"/>
<path d="M6.55207 28.8646L1.04166 23.3542V21.875H2.52082L8.03124 27.3854C8.22739 27.5816 8.33758 27.8476 8.33758 28.125C8.33758 28.4024 8.22739 28.6684 8.03124 28.8646C7.83509 29.0607 7.56905 29.1709 7.29166 29.1709C7.01426 29.1709 6.74822 29.0607 6.55207 28.8646V28.8646Z" fill="#C4455E"/>
<path d="M6.55208 28.8646L3.125 25.4375V22.4792L8.03125 27.3854C8.2274 27.5816 8.3376 27.8476 8.3376 28.125C8.3376 28.4024 8.2274 28.6684 8.03125 28.8646C7.8351 29.0607 7.56906 29.1709 7.29167 29.1709C7.01427 29.1709 6.74823 29.0607 6.55208 28.8646V28.8646ZM48.9583 21.875V23.3542L43.4479 28.8646C43.2518 29.0607 42.9857 29.1709 42.7083 29.1709C42.4309 29.1709 42.1649 29.0607 41.9688 28.8646C41.7726 28.6684 41.6624 28.4024 41.6624 28.125C41.6624 27.8476 41.7726 27.5816 41.9688 27.3854L47.4792 21.875H48.9583Z" fill="#DB5669"/>
<path d="M8.03124 41.3646L2.52082 46.875H1.04166V45.3958L6.55207 39.8854C6.74822 39.6893 7.01426 39.5791 7.29166 39.5791C7.56905 39.5791 7.83509 39.6893 8.03124 39.8854C8.22739 40.0816 8.33758 40.3476 8.33758 40.625C8.33758 40.9024 8.22739 41.1684 8.03124 41.3646V41.3646ZM48.9583 45.3958V46.875H47.4792L43.0104 42.4063C42.8143 42.2101 42.7041 41.9441 42.7041 41.6667C42.7041 41.3893 42.8143 41.1232 43.0104 40.9271C43.2066 40.7309 43.4726 40.6207 43.75 40.6207C44.0274 40.6207 44.2934 40.7309 44.4896 40.9271L48.9583 45.3958Z" fill="#C4455E"/>
<path d="M28.125 6.25C28.1252 6.82901 27.9645 7.3967 27.6609 7.88973C27.3573 8.38276 26.9227 8.78174 26.4056 9.04218C25.8884 9.30261 25.3091 9.41424 24.7322 9.36463C24.1554 9.31502 23.6036 9.10611 23.1385 8.76121C22.6734 8.4163 22.3133 7.94897 22.0984 7.41134C21.8834 6.87372 21.822 6.28694 21.9211 5.71646C22.0201 5.14598 22.2758 4.61425 22.6594 4.18057C23.043 3.7469 23.5396 3.42833 24.0938 3.26042C24.5606 3.11896 25.0541 3.08874 25.5347 3.1722C26.0153 3.25566 26.4697 3.45047 26.8615 3.74104C27.2533 4.03161 27.5716 4.40987 27.7911 4.84554C28.0105 5.28122 28.1248 5.7622 28.125 6.25V6.25Z" fill="#374F68"/>
<path d="M27.9896 7.15625C27.4484 7.31994 26.8728 7.33371 26.3244 7.19608C25.7759 7.05846 25.2751 6.7746 24.8753 6.37476C24.4754 5.97492 24.1916 5.47409 24.0539 4.92564C23.9163 4.37718 23.9301 3.80166 24.0938 3.26042C24.635 3.09673 25.2105 3.08296 25.759 3.22058C26.3074 3.35821 26.8083 3.64207 27.2081 4.04191C27.6079 4.44174 27.8918 4.94258 28.0294 5.49103C28.1671 6.03949 28.1533 6.615 27.9896 7.15625V7.15625Z" fill="#425B72"/>
<path d="M8.03126 41.3646L5.20834 44.2083C4.57855 43.8576 4.05909 43.3381 3.70834 42.7083L6.55209 39.8646C6.75101 39.6684 7.01969 39.5593 7.29904 39.5613C7.57839 39.5632 7.84553 39.6761 8.04168 39.875C8.23783 40.0739 8.34692 40.3426 8.34497 40.622C8.34302 40.9013 8.23017 41.1684 8.03126 41.3646ZM48.3542 44.7917H45.3958L43.0104 42.4063C42.8143 42.2101 42.7041 41.9441 42.7041 41.6667C42.7041 41.3893 42.8143 41.1232 43.0104 40.9271C43.2066 40.7309 43.4726 40.6207 43.75 40.6207C44.0274 40.6207 44.2934 40.7309 44.4896 40.9271L48.3542 44.7917Z" fill="#DB5669"/>
<path d="M44.7917 26.0417H5.20834V42.7083H44.7917V26.0417Z" fill="#DAD7E5"/>
<path d="M44.7917 26.0417V40.625H10.4167C9.58785 40.625 8.793 40.2958 8.20695 39.7097C7.6209 39.1237 7.29166 38.3288 7.29166 37.5V26.0417H44.7917Z" fill="#EDEBF2"/>
<path d="M25 29.1667C24.1712 29.1667 23.3764 29.4959 22.7903 30.082C22.2042 30.668 21.875 31.4629 21.875 32.2917V36.4583C21.875 37.2871 22.2042 38.082 22.7903 38.668C23.3764 39.2541 24.1712 39.5833 25 39.5833C25.8288 39.5833 26.6237 39.2541 27.2097 38.668C27.7958 38.082 28.125 37.2871 28.125 36.4583V32.2917C28.125 31.4629 27.7958 30.668 27.2097 30.082C26.6237 29.4959 25.8288 29.1667 25 29.1667ZM26.0417 36.4583C26.0417 36.7346 25.9319 36.9996 25.7366 37.1949C25.5412 37.3903 25.2763 37.5 25 37.5C24.7237 37.5 24.4588 37.3903 24.2634 37.1949C24.0681 36.9996 23.9583 36.7346 23.9583 36.4583V32.2917C23.9583 32.0154 24.0681 31.7505 24.2634 31.5551C24.4588 31.3598 24.7237 31.25 25 31.25C25.2763 31.25 25.5412 31.3598 25.7366 31.5551C25.9319 31.7505 26.0417 32.0154 26.0417 32.2917V36.4583ZM12.5 32.2917C12.5 32.5679 12.6098 32.8329 12.8051 33.0282C13.0005 33.2236 13.2654 33.3333 13.5417 33.3333C15.5313 33.3333 14.5833 29.1667 11.4583 29.1667C10.6295 29.1667 9.83469 29.4959 9.24863 30.082C8.66258 30.668 8.33334 31.4629 8.33334 32.2917V36.4583C8.33334 37.2871 8.66258 38.082 9.24863 38.668C9.83469 39.2541 10.6295 39.5833 11.4583 39.5833C12.2871 39.5833 13.082 39.2541 13.6681 38.668C14.2541 38.082 14.5833 37.2871 14.5833 36.4583C14.5833 36.1821 14.4736 35.9171 14.2782 35.7218C14.0829 35.5264 13.8179 35.4167 13.5417 35.4167C13.2654 35.4167 13.0005 35.5264 12.8051 35.7218C12.6098 35.9171 12.5 36.1821 12.5 36.4583C12.5 36.7346 12.3903 36.9996 12.1949 37.1949C11.9996 37.3903 11.7346 37.5 11.4583 37.5C11.1821 37.5 10.9171 37.3903 10.7218 37.1949C10.5264 36.9996 10.4167 36.7346 10.4167 36.4583V32.2917C10.4167 32.0154 10.5264 31.7505 10.7218 31.5551C10.9171 31.3598 11.1821 31.25 11.4583 31.25C11.7346 31.25 11.9996 31.3598 12.1949 31.5551C12.3903 31.7505 12.5 32.0154 12.5 32.2917ZM40.625 35.4167C40.9013 35.4167 41.1662 35.3069 41.3616 35.1116C41.5569 34.9162 41.6667 34.6513 41.6667 34.375C41.6667 34.0987 41.5569 33.8338 41.3616 33.6384C41.1662 33.4431 40.9013 33.3333 40.625 33.3333H38.5417V31.25H40.625C40.9013 31.25 41.1662 31.1403 41.3616 30.9449C41.5569 30.7496 41.6667 30.4846 41.6667 30.2083C41.6667 29.9321 41.5569 29.6671 41.3616 29.4718C41.1662 29.2764 40.9013 29.1667 40.625 29.1667H37.5C37.2237 29.1667 36.9588 29.2764 36.7634 29.4718C36.5681 29.6671 36.4583 29.9321 36.4583 30.2083V38.5417C36.4583 38.8179 36.5681 39.0829 36.7634 39.2782C36.9588 39.4736 37.2237 39.5833 37.5 39.5833H40.625C40.9013 39.5833 41.1662 39.4736 41.3616 39.2782C41.5569 39.0829 41.6667 38.8179 41.6667 38.5417C41.6667 38.2654 41.5569 38.0005 41.3616 37.8051C41.1662 37.6098 40.9013 37.5 40.625 37.5H38.5417V35.4167H40.625ZM32.2917 31.25H34.375C34.6513 31.25 34.9162 31.1403 35.1116 30.9449C35.3069 30.7496 35.4167 30.4846 35.4167 30.2083C35.4167 29.9321 35.3069 29.6671 35.1116 29.4718C34.9162 29.2764 34.6513 29.1667 34.375 29.1667H32.2917C31.4629 29.1667 30.668 29.4959 30.082 30.082C29.4959 30.668 29.1667 31.4629 29.1667 32.2917C29.1667 33.1205 29.4959 33.9153 30.082 34.5014C30.668 35.0874 31.4629 35.4167 32.2917 35.4167C32.5679 35.4167 32.8329 35.5264 33.0282 35.7218C33.2236 35.9171 33.3333 36.1821 33.3333 36.4583C33.3333 36.7346 33.2236 36.9996 33.0282 37.1949C32.8329 37.3903 32.5679 37.5 32.2917 37.5H30.2083C29.9321 37.5 29.6671 37.6098 29.4718 37.8051C29.2764 38.0005 29.1667 38.2654 29.1667 38.5417C29.1667 38.8179 29.2764 39.0829 29.4718 39.2782C29.6671 39.4736 29.9321 39.5833 30.2083 39.5833H32.2917C33.1205 39.5833 33.9153 39.2541 34.5014 38.668C35.0874 38.082 35.4167 37.2871 35.4167 36.4583C35.4167 35.6295 35.0874 34.8347 34.5014 34.2486C33.9153 33.6626 33.1205 33.3333 32.2917 33.3333C32.0154 33.3333 31.7505 33.2236 31.5551 33.0282C31.3598 32.8329 31.25 32.5679 31.25 32.2917C31.25 32.0154 31.3598 31.7505 31.5551 31.5551C31.7505 31.3598 32.0154 31.25 32.2917 31.25ZM19.7917 37.5H17.7083V30.2083C17.7083 29.9321 17.5986 29.6671 17.4032 29.4718C17.2079 29.2764 16.9429 29.1667 16.6667 29.1667C16.3904 29.1667 16.1255 29.2764 15.9301 29.4718C15.7348 29.6671 15.625 29.9321 15.625 30.2083V38.5417C15.625 38.8179 15.7348 39.0829 15.9301 39.2782C16.1255 39.4736 16.3904 39.5833 16.6667 39.5833H19.7917C20.0679 39.5833 20.3329 39.4736 20.5282 39.2782C20.7236 39.0829 20.8333 38.8179 20.8333 38.5417C20.8333 38.2654 20.7236 38.0005 20.5282 37.8051C20.3329 37.6098 20.0679 37.5 19.7917 37.5Z" fill="#C4455E"/>
<path d="M50 21.8021C49.9815 21.5386 49.8637 21.2921 49.6703 21.1122C49.4769 20.9324 49.2224 20.8327 48.9583 20.8333H44.125L28.75 8.02083C29.0576 7.38563 29.1989 6.68269 29.1605 5.97795C29.1221 5.27321 28.9053 4.58978 28.5305 3.99176C28.1557 3.39374 27.6351 2.90073 27.0175 2.55899C26.4 2.21724 25.7058 2.03796 25 2.03796C24.2942 2.03796 23.6 2.21724 22.9825 2.55899C22.3649 2.90073 21.8443 3.39374 21.4695 3.99176C21.0947 4.58978 20.8779 5.27321 20.8395 5.97795C20.8011 6.68269 20.9424 7.38563 21.25 8.02083L5.875 20.8333C0.84375 20.8333 0.4375 20.625 0.0833333 21.4792C0 21.7604 0 20.0417 0 46.875C0.00102654 47.0807 0.062904 47.2814 0.177834 47.4519C0.292765 47.6225 0.455605 47.7552 0.645833 47.8333C0.947917 47.9167 -2.26041 47.9167 48.9583 47.9167C49.2224 47.9173 49.4769 47.8176 49.6703 47.6378C49.8637 47.4579 49.9815 47.2114 50 46.9479C50 46.5625 50 22.0625 50 21.8021ZM25 4.16667C25.412 4.16667 25.8148 4.28885 26.1574 4.51777C26.5 4.74669 26.7671 5.07206 26.9247 5.45274C27.0824 5.83342 27.1237 6.25231 27.0433 6.65644C26.9629 7.06057 26.7645 7.43178 26.4731 7.72314C26.1818 8.0145 25.8106 8.21292 25.4064 8.2933C25.0023 8.37369 24.5834 8.33243 24.2027 8.17475C23.8221 8.01707 23.4967 7.75004 23.2678 7.40744C23.0389 7.06484 22.9167 6.66205 22.9167 6.25C22.9167 5.69747 23.1362 5.16756 23.5269 4.77686C23.9176 4.38616 24.4475 4.16667 25 4.16667V4.16667ZM22.5833 9.625C23.2847 10.138 24.1311 10.4144 25 10.4144C25.8689 10.4144 26.7153 10.138 27.4167 9.625L40.875 20.8333H9.125L22.5833 9.625ZM46.4479 22.9167L44.3646 25H5.63542L3.55208 22.9167H46.4479ZM43.75 27.0833V41.6667H6.25V27.0833H43.75ZM2.08333 24.3854L4.16667 26.4688V42.2813L2.08333 44.3646V24.3854ZM3.55208 45.8333L5.63542 43.75H44.3646L46.4479 45.8333H3.55208ZM47.9167 44.3646L45.8333 42.2813V26.4688L47.9167 24.3854V44.3646Z" fill="black"/>
<path d="M25 39.5833C25.8288 39.5833 26.6237 39.2541 27.2097 38.668C27.7958 38.082 28.125 37.2871 28.125 36.4583V32.2917C28.125 31.4629 27.7958 30.668 27.2097 30.082C26.6237 29.4959 25.8288 29.1667 25 29.1667C24.1712 29.1667 23.3764 29.4959 22.7903 30.082C22.2042 30.668 21.875 31.4629 21.875 32.2917V36.4583C21.875 37.2871 22.2042 38.082 22.7903 38.668C23.3764 39.2541 24.1712 39.5833 25 39.5833ZM23.9583 32.2917C23.9583 32.0154 24.0681 31.7505 24.2634 31.5551C24.4588 31.3598 24.7237 31.25 25 31.25C25.2763 31.25 25.5412 31.3598 25.7366 31.5551C25.9319 31.7505 26.0417 32.0154 26.0417 32.2917V36.4583C26.0417 36.7346 25.9319 36.9996 25.7366 37.1949C25.5412 37.3903 25.2763 37.5 25 37.5C24.7237 37.5 24.4588 37.3903 24.2634 37.1949C24.0681 36.9996 23.9583 36.7346 23.9583 36.4583V32.2917ZM11.4583 39.5833C14.5833 39.5833 15.5417 35.4167 13.5417 35.4167C13.2654 35.4167 13.0005 35.5264 12.8051 35.7218C12.6098 35.9171 12.5 36.1821 12.5 36.4583C12.5 36.7346 12.3903 36.9996 12.1949 37.1949C11.9996 37.3903 11.7346 37.5 11.4583 37.5C11.1821 37.5 10.9171 37.3903 10.7218 37.1949C10.5264 36.9996 10.4167 36.7346 10.4167 36.4583V32.2917C10.4167 32.0154 10.5264 31.7505 10.7218 31.5551C10.9171 31.3598 11.1821 31.25 11.4583 31.25C11.7346 31.25 11.9996 31.3598 12.1949 31.5551C12.3903 31.7505 12.5 32.0154 12.5 32.2917C12.5 32.5679 12.6098 32.8329 12.8051 33.0282C13.0005 33.2236 13.2654 33.3333 13.5417 33.3333C13.8179 33.3333 14.0829 33.2236 14.2782 33.0282C14.4736 32.8329 14.5833 32.5679 14.5833 32.2917C14.5833 31.4629 14.2541 30.668 13.6681 30.082C13.082 29.4959 12.2871 29.1667 11.4583 29.1667C10.6295 29.1667 9.83469 29.4959 9.24863 30.082C8.66258 30.668 8.33334 31.4629 8.33334 32.2917V36.4583C8.33334 37.2871 8.66258 38.082 9.24863 38.668C9.83469 39.2541 10.6295 39.5833 11.4583 39.5833ZM37.5 39.5833H40.625C40.9013 39.5833 41.1662 39.4736 41.3616 39.2782C41.5569 39.0829 41.6667 38.8179 41.6667 38.5417C41.6667 38.2654 41.5569 38.0005 41.3616 37.8051C41.1662 37.6098 40.9013 37.5 40.625 37.5H38.5417V35.4167H40.625C40.9013 35.4167 41.1662 35.3069 41.3616 35.1116C41.5569 34.9162 41.6667 34.6513 41.6667 34.375C41.6667 34.0987 41.5569 33.8338 41.3616 33.6384C41.1662 33.4431 40.9013 33.3333 40.625 33.3333H38.5417V31.25H40.625C40.9013 31.25 41.1662 31.1403 41.3616 30.9449C41.5569 30.7496 41.6667 30.4846 41.6667 30.2083C41.6667 29.9321 41.5569 29.6671 41.3616 29.4718C41.1662 29.2764 40.9013 29.1667 40.625 29.1667H37.5C37.2237 29.1667 36.9588 29.2764 36.7634 29.4718C36.5681 29.6671 36.4583 29.9321 36.4583 30.2083V38.5417C36.4583 38.8179 36.5681 39.0829 36.7634 39.2782C36.9588 39.4736 37.2237 39.5833 37.5 39.5833ZM32.2917 37.5H30.2083C29.9321 37.5 29.6671 37.6098 29.4718 37.8051C29.2764 38.0005 29.1667 38.2654 29.1667 38.5417C29.1667 38.8179 29.2764 39.0829 29.4718 39.2782C29.6671 39.4736 29.9321 39.5833 30.2083 39.5833H32.2917C33.1205 39.5833 33.9153 39.2541 34.5014 38.668C35.0874 38.082 35.4167 37.2871 35.4167 36.4583C35.4167 35.6295 35.0874 34.8347 34.5014 34.2486C33.9153 33.6626 33.1205 33.3333 32.2917 33.3333C32.0154 33.3333 31.7505 33.2236 31.5551 33.0282C31.3598 32.8329 31.25 32.5679 31.25 32.2917C31.25 32.0154 31.3598 31.7505 31.5551 31.5551C31.7505 31.3598 32.0154 31.25 32.2917 31.25H34.375C34.6513 31.25 34.9162 31.1403 35.1116 30.9449C35.3069 30.7496 35.4167 30.4846 35.4167 30.2083C35.4167 29.9321 35.3069 29.6671 35.1116 29.4718C34.9162 29.2764 34.6513 29.1667 34.375 29.1667H32.2917C31.4629 29.1667 30.668 29.4959 30.082 30.082C29.4959 30.668 29.1667 31.4629 29.1667 32.2917C29.1667 33.1205 29.4959 33.9153 30.082 34.5014C30.668 35.0874 31.4629 35.4167 32.2917 35.4167C32.5679 35.4167 32.8329 35.5264 33.0282 35.7218C33.2236 35.9171 33.3333 36.1821 33.3333 36.4583C33.3333 36.7346 33.2236 36.9996 33.0282 37.1949C32.8329 37.3903 32.5679 37.5 32.2917 37.5ZM16.6667 39.5833H19.7917C20.0679 39.5833 20.3329 39.4736 20.5282 39.2782C20.7236 39.0829 20.8333 38.8179 20.8333 38.5417C20.8333 38.2654 20.7236 38.0005 20.5282 37.8051C20.3329 37.6098 20.0679 37.5 19.7917 37.5H17.7083V30.2083C17.7083 29.9321 17.5986 29.6671 17.4032 29.4718C17.2079 29.2764 16.9429 29.1667 16.6667 29.1667C16.3904 29.1667 16.1255 29.2764 15.9301 29.4718C15.7348 29.6671 15.625 29.9321 15.625 30.2083V38.5417C15.625 38.8179 15.7348 39.0829 15.9301 39.2782C16.1255 39.4736 16.3904 39.5833 16.6667 39.5833Z" fill="black"/>
</svg>
