<svg width="20" height="20" viewBox="0 0 20 20" fill="none" xmlns="http://www.w3.org/2000/svg">
<g clip-path="url(#clip0_353_1092)">
<path d="M16.85 2.93751V3.75313C16.85 4.08751 16.5781 4.35938 16.2438 4.35938H3.75627C3.4219 4.35938 3.15002 4.08751 3.15002 3.75313V2.93751C3.15002 2.60626 3.4219 2.33438 3.75627 2.33438H16.2438C16.5781 2.33438 16.85 2.60626 16.85 2.93751Z" fill="#53BF9F"/>
<path d="M11.7375 0.971872V1.72812H8.26249V0.971872C8.26249 0.771872 8.42499 0.606247 8.62811 0.606247H11.3719C11.575 0.606247 11.7375 0.771872 11.7375 0.971872ZM4.40936 4.96562V18.8031C4.40936 19.1281 4.67499 19.3937 5.00311 19.3937H14.9969C15.325 19.3937 15.5906 19.1281 15.5906 18.8031V4.96562H4.40936ZM6.55624 17.625C6.55624 17.7906 6.42186 17.9281 6.25624 17.9281C6.17584 17.9281 6.09874 17.8962 6.0419 17.8393C5.98505 17.7825 5.95311 17.7054 5.95311 17.625V6.73437C5.95311 6.65439 5.98488 6.57769 6.04144 6.52113C6.09799 6.46458 6.1747 6.43281 6.25468 6.43281C6.33465 6.43281 6.41136 6.46458 6.46791 6.52113C6.52447 6.57769 6.55624 6.65439 6.55624 6.73437V17.625ZM9.05311 17.625C9.05311 17.7906 8.91874 17.9281 8.75311 17.9281C8.67272 17.9281 8.59562 17.8962 8.53877 17.8393C8.48192 17.7825 8.44999 17.7054 8.44999 17.625V6.73437C8.44999 6.65439 8.48176 6.57769 8.53831 6.52113C8.59487 6.46458 8.67157 6.43281 8.75155 6.43281C8.83153 6.43281 8.90823 6.46458 8.96479 6.52113C9.02134 6.57769 9.05311 6.65439 9.05311 6.73437V17.625ZM11.5531 17.625C11.5531 17.7906 11.4156 17.9281 11.25 17.9281C11.1696 17.9281 11.0925 17.8962 11.0356 17.8393C10.9788 17.7825 10.9469 17.7054 10.9469 17.625V6.73437C10.9469 6.65398 10.9788 6.57688 11.0356 6.52003C11.0925 6.46318 11.1696 6.43125 11.25 6.43125C11.3304 6.43125 11.4075 6.46318 11.4643 6.52003C11.5212 6.57688 11.5531 6.65398 11.5531 6.73437V17.625ZM14.0469 17.625C14.0469 17.7906 13.9125 17.9281 13.7437 17.9281C13.5781 17.9281 13.4437 17.7906 13.4437 17.625V6.73437C13.4437 6.65439 13.4755 6.57769 13.5321 6.52113C13.5886 6.46458 13.6653 6.43281 13.7453 6.43281C13.8253 6.43281 13.902 6.46458 13.9585 6.52113C14.0151 6.57769 14.0469 6.65439 14.0469 6.73437V17.625Z" fill="#E0C28B"/>
<path opacity="0.07" d="M17.4562 2.93749V3.75312C17.4562 4.42187 16.9125 4.96562 16.2437 4.96562H16.1969V18.8031C16.1969 19.4625 15.6594 20 14.9969 20H5.4906L4.38748 19.8281C4.20968 19.7225 4.06236 19.5725 3.95992 19.3928C3.85749 19.2131 3.80345 19.0099 3.8031 18.8031V13.9219C4.00935 13.7906 4.20935 13.6594 4.40935 13.5219C4.93435 13.1687 5.44998 12.8031 5.9531 12.4187C6.15623 12.2719 6.35623 12.1187 6.55623 11.9562C7.20623 11.45 7.83748 10.9187 8.44998 10.3594C8.6531 10.1812 8.8531 9.99687 9.0531 9.80312C9.71243 9.18643 10.3443 8.54101 10.9469 7.86874C11.15 7.64374 11.3531 7.41562 11.5531 7.18124C12.1594 6.47187 12.7437 5.73437 13.3 4.96562C13.4469 4.76562 13.5906 4.56562 13.7312 4.35937C14.1875 3.70624 14.6219 3.03124 15.0406 2.33437C15.1625 2.13437 15.2812 1.93124 15.3969 1.72812H16.2437C16.9125 1.72812 17.4562 2.27187 17.4562 2.93749V2.93749Z" fill="black"/>
<path d="M16.2438 1.72813H12.3438V0.971875C12.3438 0.4375 11.9094 0 11.3719 0H8.62814C8.09064 0 7.65626 0.4375 7.65626 0.971875V1.72813H3.75626C3.08751 1.72813 2.54376 2.27187 2.54376 2.9375V3.75313C2.54376 4.42188 3.08751 4.96563 3.75626 4.96563H3.80314V18.8031C3.80314 19.2375 4.03751 19.6188 4.38751 19.8281C4.56564 19.9375 4.77814 20 5.00314 20H14.9969C15.6594 20 16.1969 19.4625 16.1969 18.8031V4.96563H16.2438C16.9125 4.96563 17.4563 4.42188 17.4563 3.75313V2.9375C17.4563 2.27187 16.9125 1.72813 16.2438 1.72813ZM8.26251 0.971875C8.26251 0.771875 8.42501 0.60625 8.62814 0.60625H11.3719C11.575 0.60625 11.7375 0.771875 11.7375 0.971875V1.72813H8.26251V0.971875ZM15.5906 18.8031C15.5906 19.1281 15.325 19.3938 14.9969 19.3938H5.00314C4.67501 19.3938 4.40939 19.1281 4.40939 18.8031V4.96563H15.5906V18.8031ZM16.85 3.75313C16.85 4.0875 16.5781 4.35937 16.2438 4.35937H3.75626C3.42189 4.35937 3.15001 4.0875 3.15001 3.75313V2.9375C3.15001 2.60625 3.42189 2.33437 3.75626 2.33437H16.2438C16.5781 2.33437 16.85 2.60625 16.85 2.9375V3.75313V3.75313Z" fill="#2B2E63"/>
<path d="M6.55625 6.73437V17.625C6.55625 17.7906 6.42188 17.9281 6.25625 17.9281C6.17586 17.9281 6.09876 17.8962 6.04191 17.8393C5.98506 17.7825 5.95312 17.7054 5.95312 17.625V6.73437C5.95312 6.65439 5.9849 6.57769 6.04145 6.52113C6.098 6.46458 6.17471 6.43281 6.25469 6.43281C6.33467 6.43281 6.41137 6.46458 6.46792 6.52113C6.52448 6.57769 6.55625 6.65439 6.55625 6.73437V6.73437ZM9.05312 6.73437V17.625C9.05312 17.7906 8.91875 17.9281 8.75313 17.9281C8.67273 17.9281 8.59563 17.8962 8.53878 17.8393C8.48194 17.7825 8.45 17.7054 8.45 17.625V6.73437C8.45 6.65439 8.48177 6.57769 8.53833 6.52113C8.59488 6.46458 8.67158 6.43281 8.75156 6.43281C8.83154 6.43281 8.90825 6.46458 8.9648 6.52113C9.02135 6.57769 9.05312 6.65439 9.05312 6.73437V6.73437ZM11.5531 6.73437V17.625C11.5531 17.7906 11.4156 17.9281 11.25 17.9281C11.1696 17.9281 11.0925 17.8962 11.0357 17.8393C10.9788 17.7825 10.9469 17.7054 10.9469 17.625V6.73437C10.9469 6.65397 10.9788 6.57687 11.0357 6.52003C11.0925 6.46318 11.1696 6.43124 11.25 6.43124C11.3304 6.43124 11.4075 6.46318 11.4643 6.52003C11.5212 6.57687 11.5531 6.65397 11.5531 6.73437ZM14.0469 6.73437V17.625C14.0469 17.7906 13.9125 17.9281 13.7437 17.9281C13.5781 17.9281 13.4437 17.7906 13.4437 17.625V6.73437C13.4437 6.65439 13.4755 6.57769 13.5321 6.52113C13.5886 6.46458 13.6653 6.43281 13.7453 6.43281C13.8253 6.43281 13.902 6.46458 13.9585 6.52113C14.0151 6.57769 14.0469 6.65439 14.0469 6.73437V6.73437Z" fill="#2B2E63"/>
</g>
<defs>
<clipPath id="clip0_353_1092">
<rect width="20" height="20" fill="white"/>
</clipPath>
</defs>
</svg>
