<svg width="21" height="21" viewBox="0 0 21 21" fill="none" xmlns="http://www.w3.org/2000/svg">
<path d="M18.1899 6.92743L14.3131 3.05059C13.9013 2.63884 13.2338 2.63884 12.822 3.05059C12.4103 3.46235 12.4103 4.12993 12.822 4.54168L16.6988 8.41852C17.1106 8.83027 17.7782 8.83027 18.1899 8.41852C18.6017 8.00676 18.6017 7.33918 18.1899 6.92743Z" fill="#FAD461"/>
<path d="M14.164 2.90175L15.6551 1.41065C16.1507 0.915012 16.9487 0.915012 17.4444 1.41065L19.8301 3.7964C20.3258 4.29203 20.3258 5.09007 19.8301 5.58571L18.339 7.07679L14.164 2.90175Z" fill="#F75D70"/>
<path d="M12.6729 4.39283L16.8479 8.56789L5.51566 19.9002L5.06834 18.26L3.42814 17.8126L2.98081 16.1724L1.34062 15.7251L12.6729 4.39283Z" fill="#47C5FE"/>
<path d="M11.9273 6.03303C11.7585 5.86422 11.5472 5.76797 11.3286 5.73715L6.56176 10.504C6.59259 10.7226 6.68883 10.9339 6.85764 11.1027C7.27067 11.5158 7.93571 11.5158 8.34874 11.1027L11.9273 7.52412C12.3404 7.11109 12.3404 6.44606 11.9273 6.03303ZM6.2612 11.6992C6.0924 11.5304 5.88103 11.4341 5.66245 11.4033L3.57958 13.4862C3.61041 13.7047 3.70666 13.9161 3.87547 14.0849C4.2885 14.498 4.95353 14.498 5.36656 14.0849L6.2612 13.1903C6.67424 12.7772 6.67424 12.1122 6.2612 11.6992Z" fill="#57E3FE"/>
<path d="M2.98081 16.1724L3.42814 17.8126L5.06834 18.26L5.51566 19.9002L1.0424 20.1984L1.34062 15.7251L2.98081 16.1724Z" fill="#FBD895"/>
<path d="M13.5676 2.7407C13.3035 2.7407 13.0402 2.84212 12.8354 3.04054L16.2876 6.49274C16.7006 6.90578 16.7006 7.57147 16.2876 7.9845C16.2838 7.98829 16.2792 7.99133 16.2752 7.99521L16.6988 8.41852C17.1119 8.83155 17.7769 8.83155 18.1899 8.41852C18.603 8.00549 18.603 7.34046 18.1899 6.92743L14.3131 3.05059C14.1066 2.84408 13.8372 2.7407 13.5676 2.7407Z" fill="#ECB751"/>
<path d="M16.5495 1.0389C16.2979 1.0389 16.048 1.11628 15.832 1.26625L17.9284 3.36179C18.424 3.85743 18.424 4.65527 17.9284 5.15091L17.1706 5.90873L18.339 7.07679L19.8301 5.58571C20.3258 5.09007 20.3258 4.29203 19.8301 3.7964L17.4444 1.41065C17.1966 1.16283 16.8729 1.0389 16.5495 1.0389Z" fill="#E7426C"/>
<path d="M12.6729 4.39283L11.9392 5.12702L14.9457 8.13359L4.8733 18.206L5.06834 18.26L5.51566 19.9002L16.8479 8.56789L12.6729 4.39283Z" fill="#3EA2FE"/>
<path d="M3.16656 17.8255L3.61384 19.0175L1.08008 19.1863L1.0424 20.1984L5.51566 19.9002L5.06834 18.26L3.42814 17.8126L3.16656 17.8255Z" fill="#F6B66C"/>
<path fill-rule="evenodd" clip-rule="evenodd" d="M16.5495 0.620453C16.117 0.620453 15.6846 0.784366 15.3568 1.11221L14.0578 2.41122C13.5382 2.22964 12.9358 2.34043 12.5232 2.75306C12.1104 3.16585 12.0003 3.76798 12.1821 4.28765L1.04219 15.4268C0.969899 15.499 0.926285 15.595 0.919452 15.697L0.621266 20.1706C0.617265 20.2306 0.626133 20.2907 0.647278 20.347C0.668423 20.4033 0.701359 20.4544 0.743872 20.4969C0.786384 20.5394 0.837495 20.5724 0.893775 20.5935C0.950056 20.6146 1.0102 20.6235 1.07019 20.6195L5.54381 20.3213C5.64576 20.3145 5.74176 20.2709 5.81399 20.1986L16.9531 9.05863C17.4727 9.24018 18.0751 9.1294 18.4877 8.71678C18.9002 8.30425 19.0109 7.70247 18.8296 7.18302L20.1286 5.88401C20.7843 5.22833 20.7843 4.15422 20.1286 3.49853L17.7422 1.11221C17.4144 0.784366 16.982 0.620453 16.5495 0.620453ZM16.5495 1.45735C16.7638 1.45735 16.9781 1.54079 17.1459 1.70859L19.5322 4.0949C19.8678 4.43048 19.8678 4.95206 19.5322 5.28764L18.3394 6.48039L14.7604 2.90133L15.9531 1.70859C16.1209 1.54079 16.3352 1.45735 16.5495 1.45735ZM13.5668 3.15915C13.7272 3.15915 13.8884 3.22294 14.0149 3.34943L17.8913 7.22585C18.1443 7.47883 18.1443 7.86743 17.8913 8.12041C17.6384 8.37339 17.2498 8.37339 16.9968 8.12041L13.1195 4.24399C13.1183 4.24273 13.1174 4.24104 13.1162 4.23978C12.867 3.98672 12.8678 3.60104 13.1195 3.34934C13.246 3.22285 13.4064 3.15915 13.5668 3.15915ZM12.6723 4.98946L13.2686 5.58583L12.0767 6.77857C12.0565 6.79801 12.0404 6.82128 12.0293 6.84703C12.0181 6.87277 12.0123 6.90049 12.012 6.92853C12.0117 6.95657 12.017 6.98438 12.0277 7.01035C12.0383 7.03631 12.0539 7.0599 12.0738 7.07973C12.0936 7.09956 12.1172 7.11524 12.1431 7.12584C12.1691 7.13645 12.1969 7.14177 12.225 7.14149C12.253 7.14122 12.2807 7.13535 12.3065 7.12423C12.3322 7.11312 12.3555 7.09698 12.3749 7.07676L13.5668 5.88401L14.164 6.48039L3.64432 17.0001L3.38732 16.0619C3.36821 15.9914 3.33115 15.9271 3.27975 15.8753C3.22835 15.8235 3.16437 15.7859 3.09408 15.7662L2.15751 15.5042L12.6723 4.98946ZM14.7604 7.07676L16.2513 8.56769L5.74397 19.0759L5.47626 18.15L6.30492 17.3213C6.33524 17.2917 6.35593 17.2536 6.36427 17.212C6.37261 17.1704 6.36822 17.1273 6.35168 17.0883C6.33514 17.0492 6.30721 17.0161 6.27154 16.9931C6.23586 16.9702 6.1941 16.9586 6.15171 16.9597C6.09698 16.9613 6.045 16.984 6.00674 17.0232L5.17725 17.8526L4.24068 17.5965L14.7604 7.07676ZM8.04626 10.2934C7.99154 10.2949 7.93955 10.3176 7.90129 10.3568L5.75056 12.5075C5.73033 12.527 5.71418 12.5502 5.70305 12.576C5.69193 12.6017 5.68606 12.6295 5.68578 12.6575C5.6855 12.6856 5.69081 12.7134 5.70142 12.7393C5.71202 12.7653 5.7277 12.7889 5.74753 12.8087C5.76737 12.8286 5.79096 12.8443 5.81693 12.8549C5.8429 12.8655 5.87073 12.8708 5.89878 12.8705C5.92683 12.8702 5.95454 12.8644 5.98029 12.8532C6.00604 12.8421 6.02931 12.826 6.04875 12.8057L8.19947 10.6558C8.23009 10.6262 8.25104 10.5881 8.25955 10.5463C8.26806 10.5046 8.26375 10.4613 8.24717 10.4221C8.23059 10.3828 8.20251 10.3495 8.16665 10.3266C8.13079 10.3036 8.08882 10.292 8.04626 10.2934ZM5.10806 13.2316C5.05322 13.2333 5.00121 13.2564 4.96308 13.2958L4.62124 13.6377C4.601 13.6571 4.58484 13.6804 4.57371 13.7061C4.56258 13.7319 4.5567 13.7596 4.55641 13.7877C4.55613 13.8157 4.56143 13.8436 4.57204 13.8695C4.58264 13.8955 4.59833 13.9191 4.61817 13.9389C4.638 13.9588 4.6616 13.9745 4.68758 13.9851C4.71355 13.9957 4.74139 14.001 4.76945 14.0007C4.7975 14.0004 4.82521 13.9945 4.85097 13.9834C4.87672 13.9723 4.9 13.9561 4.91943 13.9359L5.26127 13.594C5.29189 13.5644 5.31284 13.5263 5.32135 13.4845C5.32986 13.4428 5.32554 13.3995 5.30896 13.3603C5.29237 13.321 5.26431 13.2878 5.22845 13.2648C5.19259 13.2418 5.15062 13.2302 5.10806 13.2316ZM7.3008 15.8106C7.24607 15.8122 7.19408 15.8349 7.15582 15.8741L6.79421 16.2357C6.75467 16.2753 6.73249 16.3291 6.73257 16.3851C6.73265 16.4411 6.75497 16.4947 6.79462 16.5343C6.83427 16.5738 6.88801 16.596 6.94401 16.5959C7.00001 16.5958 7.05368 16.5735 7.09322 16.5339L7.45401 16.1723C7.48433 16.1426 7.50501 16.1045 7.51335 16.0629C7.52169 16.0214 7.51731 15.9782 7.50077 15.9392C7.48422 15.9001 7.45629 15.867 7.42062 15.8441C7.38495 15.8211 7.34319 15.8095 7.3008 15.8106ZM1.72752 16.2604L2.6369 16.5141L3.02158 17.9235C3.04091 17.9942 3.07835 18.0587 3.13021 18.1106C3.18207 18.1624 3.24655 18.1999 3.3173 18.2192L4.72915 18.6047L4.99191 19.5124L2.49358 19.6788L1.56195 18.7472L1.72752 16.2604Z" fill="#2D3A66"/>
</svg>
