<svg width="33" height="33" viewBox="0 0 33 33" fill="none" xmlns="http://www.w3.org/2000/svg">
<path d="M28.0902 19.1396C27.9193 19.1396 27.7553 19.2075 27.6345 19.3284C27.5136 19.4493 27.4457 19.6132 27.4457 19.7842V25.507C27.4451 26.0197 27.2412 26.5111 26.8787 26.8736C26.5162 27.2361 26.0247 27.44 25.5121 27.4406H7.42712C6.91448 27.44 6.423 27.2361 6.06051 26.8736C5.69801 26.5111 5.49411 26.0197 5.49353 25.507V8.71118C5.49411 8.19854 5.69801 7.70706 6.06051 7.34457C6.423 6.98207 6.91448 6.77817 7.42712 6.77759H13.15C13.3209 6.77759 13.4849 6.70968 13.6057 6.58881C13.7266 6.46794 13.7945 6.304 13.7945 6.13306C13.7945 5.96212 13.7266 5.79818 13.6057 5.6773C13.4849 5.55643 13.3209 5.48853 13.15 5.48853H7.42712C6.57272 5.4895 5.75359 5.82934 5.14944 6.43349C4.54528 7.03765 4.20544 7.85678 4.20447 8.71118V25.5071C4.20544 26.3615 4.54528 27.1806 5.14944 27.7848C5.75359 28.3889 6.57272 28.7288 7.42712 28.7297H25.5121C26.3665 28.7288 27.1856 28.3889 27.7898 27.7848C28.3939 27.1806 28.7338 26.3615 28.7347 25.5071V19.7842C28.7348 19.6996 28.7181 19.6158 28.6857 19.5376C28.6533 19.4594 28.6058 19.3883 28.546 19.3284C28.4861 19.2686 28.4151 19.2211 28.3369 19.1887C28.2587 19.1563 28.1749 19.1396 28.0902 19.1396V19.1396Z" fill="black"/>
<path d="M23.6938 6.33674L14.2827 15.7478L17.3178 18.7829L26.7289 9.37187L23.6938 6.33674Z" fill="black"/>
<path d="M12.7472 20.3185L16.1013 19.3893L13.6763 16.9644L12.7472 20.3185Z" fill="black"/>
<path d="M27.5679 4.74148C27.2655 4.43973 26.8558 4.27026 26.4285 4.27026C26.0013 4.27026 25.5916 4.43973 25.2892 4.74148L24.6056 5.42507L27.6408 8.46023L28.3243 7.77664C28.6261 7.47422 28.7955 7.06447 28.7955 6.63727C28.7955 6.21008 28.6261 5.80033 28.3243 5.4979L27.5679 4.74148Z" fill="black"/>
</svg>
