<svg width="25" height="25" viewBox="0 0 25 25" fill="none" xmlns="http://www.w3.org/2000/svg">
<path d="M21.875 1.04166H3.12502C1.97606 1.04166 1.04169 1.97603 1.04169 3.12499V21.875C1.04169 23.0239 1.97606 23.9583 3.12502 23.9583H11.9792C12.1173 23.9583 12.2498 23.9034 12.3475 23.8058C12.4451 23.7081 12.5 23.5756 12.5 23.4375V15.1042C12.5 14.966 12.4451 14.8335 12.3475 14.7359C12.2498 14.6382 12.1173 14.5833 11.9792 14.5833H10.4386V12.5H11.9792C12.1173 12.5 12.2498 12.4451 12.3475 12.3474C12.4451 12.2498 12.5 12.1173 12.5 11.9792V9.89582C12.5 7.88541 14.1354 6.24999 16.1459 6.24999H18.75V8.33332H16.1459C15.2844 8.33332 14.5834 9.03436 14.5834 9.89582V11.9792C14.5834 12.1173 14.6382 12.2498 14.7359 12.3474C14.8336 12.4451 14.9661 12.5 15.1042 12.5H18.6563L18.3094 14.5833H15.1042C14.9661 14.5833 14.8336 14.6382 14.7359 14.7359C14.6382 14.8335 14.5834 14.966 14.5834 15.1042V23.4375C14.5834 23.5756 14.6382 23.7081 14.7359 23.8058C14.8336 23.9034 14.9661 23.9583 15.1042 23.9583H21.875C23.024 23.9583 23.9584 23.0239 23.9584 21.875V3.12499C23.9584 1.97603 23.024 1.04166 21.875 1.04166Z" fill="black"/>
<path d="M22.9166 21.875C22.9166 22.449 22.4489 22.9167 21.875 22.9167H15.625V15.625H18.75C18.8733 15.625 18.9925 15.5812 19.0866 15.5014C19.1806 15.4217 19.2433 15.3112 19.2635 15.1896L19.7844 12.0646C19.7968 11.99 19.7928 11.9136 19.7727 11.8407C19.7526 11.7679 19.7169 11.7002 19.668 11.6425C19.6191 11.5848 19.5583 11.5385 19.4897 11.5067C19.4211 11.4749 19.3464 11.4584 19.2708 11.4583H15.625V9.89584C15.625 9.75771 15.6799 9.62523 15.7775 9.52756C15.8752 9.42988 16.0077 9.37501 16.1458 9.37501H19.2708C19.4089 9.37501 19.5414 9.32014 19.6391 9.22246C19.7368 9.12479 19.7916 8.99231 19.7916 8.85418V5.72918C19.7916 5.59104 19.7368 5.45857 19.6391 5.36089C19.5414 5.26322 19.4089 5.20834 19.2708 5.20834H16.1458C14.903 5.20972 13.7116 5.70403 12.8328 6.5828C11.954 7.46158 11.4597 8.65306 11.4583 9.89584V11.4583H9.91769C9.77955 11.4583 9.64708 11.5132 9.5494 11.6109C9.45173 11.7086 9.39686 11.841 9.39686 11.9792V15.1042C9.39686 15.2423 9.45173 15.3748 9.5494 15.4725C9.64708 15.5701 9.77955 15.625 9.91769 15.625H11.4583V22.9167H3.12498C2.55102 22.9167 2.08331 22.449 2.08331 21.875V3.12501C2.08331 2.55105 2.55102 2.08334 3.12498 2.08334H21.875C22.4489 2.08334 22.9166 2.55105 22.9166 3.12501V21.875Z" fill="#5262BC"/>
<path opacity="0.2" d="M2.60415 22.3958V3.64584C2.60415 3.07189 3.07185 2.60418 3.64581 2.60418H22.3958C22.5427 2.60517 22.6877 2.63786 22.8208 2.70001C22.7392 2.5171 22.6066 2.36163 22.4388 2.25224C22.271 2.14286 22.0753 2.08421 21.875 2.08334H3.12498C2.55102 2.08334 2.08331 2.55105 2.08331 3.12501V21.875C2.08331 22.2969 2.33852 22.6573 2.69998 22.8208C2.63782 22.6877 2.60514 22.5428 2.60415 22.3958Z" fill="white"/>
<path d="M9.63855 15.5333L11.4583 17.3521V15.625H9.91772C9.81769 15.6225 9.72061 15.5906 9.63855 15.5333ZM19.65 5.37708C19.7405 5.47204 19.7911 5.59801 19.7917 5.72916V8.85416C19.7917 8.99229 19.7368 9.12477 19.6391 9.22244C19.5415 9.32012 19.409 9.37499 19.2708 9.37499H16.1458C16.0077 9.37499 15.8752 9.42986 15.7776 9.52754C15.6799 9.62522 15.625 9.75769 15.625 9.89583V11.4583H19.2708C19.3464 11.4584 19.4211 11.4749 19.4897 11.5067C19.5583 11.5385 19.6191 11.5848 19.668 11.6425C19.7169 11.7002 19.7526 11.7678 19.7727 11.8407C19.7928 11.9136 19.7968 11.99 19.7844 12.0646L19.2635 15.1896C19.2433 15.3112 19.1806 15.4217 19.0866 15.5014C18.9926 15.5811 18.8733 15.6249 18.75 15.625H15.625V22.9167H21.875C22.449 22.9167 22.9167 22.449 22.9167 21.875V8.6427L19.65 5.37708Z" fill="url(#paint0_linear_356_1108)"/>
<path d="M21.875 1.04166H3.12502C1.97606 1.04166 1.04169 1.97603 1.04169 3.12499V21.875C1.04169 23.0239 1.97606 23.9583 3.12502 23.9583H11.9792C12.1173 23.9583 12.2498 23.9034 12.3475 23.8058C12.4451 23.7081 12.5 23.5756 12.5 23.4375V15.1042C12.5 14.966 12.4451 14.8335 12.3475 14.7359C12.2498 14.6382 12.1173 14.5833 11.9792 14.5833H10.4386V12.5H11.9792C12.1173 12.5 12.2498 12.4451 12.3475 12.3474C12.4451 12.2498 12.5 12.1173 12.5 11.9792V9.89582C12.5 7.88541 14.1354 6.24999 16.1459 6.24999H18.75V8.33332H16.1459C15.2844 8.33332 14.5834 9.03436 14.5834 9.89582V11.9792C14.5834 12.1173 14.6382 12.2498 14.7359 12.3474C14.8336 12.4451 14.9661 12.5 15.1042 12.5H18.6563L18.3094 14.5833H15.1042C14.9661 14.5833 14.8336 14.6382 14.7359 14.7359C14.6382 14.8335 14.5834 14.966 14.5834 15.1042V23.4375C14.5834 23.5756 14.6382 23.7081 14.7359 23.8058C14.8336 23.9034 14.9661 23.9583 15.1042 23.9583H21.875C23.024 23.9583 23.9584 23.0239 23.9584 21.875V3.12499C23.9584 1.97603 23.024 1.04166 21.875 1.04166Z" fill="url(#paint1_linear_356_1108)"/>
<defs>
<linearGradient id="paint0_linear_356_1108" x1="14.2583" y1="10.7677" x2="24.3563" y2="20.8656" gradientUnits="userSpaceOnUse">
<stop stop-opacity="0.1"/>
<stop offset="1" stop-opacity="0"/>
</linearGradient>
<linearGradient id="paint1_linear_356_1108" x1="-0.679146" y1="6.35416" x2="25.6792" y2="18.6458" gradientUnits="userSpaceOnUse">
<stop stop-color="white" stop-opacity="0.2"/>
<stop offset="1" stop-color="white" stop-opacity="0"/>
</linearGradient>
</defs>
</svg>
