<svg width="40" height="40" viewBox="0 0 40 40" fill="none" xmlns="http://www.w3.org/2000/svg">
<path d="M4.80469 5.42969C4.80469 5.42969 4.57031 3.86719 13.8672 3.86719C23.1641 3.86719 33.8672 3.86719 33.8672 3.86719L35.7031 7.92969V20.5859H25.9766C25.9766 20.5859 20.3516 16.7319 17.3828 13.9714C14.4141 11.2109 12.5391 11.0547 10.5078 12.6172C8.47656 14.1797 3.55469 21.4453 3.55469 21.4453V7.38281L4.80469 5.42969Z" fill="#3498DB" stroke="black" stroke-miterlimit="10"/>
<path d="M23.1901 17.2137C24.9808 17.2137 26.4324 15.762 26.4324 13.9714C26.4324 12.1807 24.9808 10.7291 23.1901 10.7291C21.3995 10.7291 19.9479 12.1807 19.9479 13.9714C19.9479 15.762 21.3995 17.2137 23.1901 17.2137Z" fill="#FFCD02" stroke="black" stroke-miterlimit="10"/>
<path d="M3.98438 29.5312H36.4367V21.0547H26.4324C26.4324 21.0547 17.7137 14.1793 16.0547 12.2266C14.3957 10.2738 12.3385 11.4453 11.0716 12.2266C9.80461 13.0078 3.98438 20.8193 3.98438 20.8193V29.5312Z" fill="#D35400" stroke="black" stroke-miterlimit="10"/>
<path d="M3.98438 29.5312H35.7031C35.7031 29.5312 36.8359 36.4453 32.0703 36.4453C27.3047 36.4453 8.00781 36.4453 8.00781 36.4453C8.00781 36.4453 3.98438 36.6476 3.98438 29.5312Z" fill="#2ECC71" stroke="black" stroke-miterlimit="10"/>
<path d="M35.7031 28.3594H3.98438V30.7031H35.7031V28.3594Z" fill="black"/>
<path d="M4.63068 22.603L2.49561 21.6362C2.54725 21.5222 3.78084 18.8135 5.641 16.0624C8.29521 12.1366 10.8646 10.146 13.2779 10.146C16.2284 10.146 18.6222 12.8039 20.9374 15.3744C22.8637 17.5132 24.8556 19.7249 26.6611 19.7249H36.4367V22.0687H26.6611C23.8124 22.0687 21.4655 19.4629 19.1958 16.943C17.224 14.7538 15.1851 12.4899 13.2779 12.4899C11.7351 12.4899 9.71248 14.2249 7.58264 17.3752C5.83271 19.9632 4.64248 22.5769 4.63068 22.603Z" fill="black"/>
<path d="M23.1898 9.07812C21.896 9.07812 20.7195 9.58203 19.8438 10.4055C19.1766 11.0313 18.6844 11.8414 18.45 12.7547C18.35 13.1437 18.2969 13.5508 18.2969 13.9711C18.2969 14.107 18.3023 14.2422 18.3133 14.375C18.3266 14.5375 18.3477 14.6977 18.3773 14.8547V14.8555C18.5687 15.9047 19.0961 16.8367 19.8438 17.5367C20.7195 18.3602 21.8961 18.8641 23.1898 18.8641C23.3039 18.8641 23.4172 18.8602 23.5297 18.8523C23.5758 18.8492 23.6211 18.8453 23.6664 18.8414C23.8883 18.8195 24.1055 18.7828 24.318 18.7328C26.4743 18.2227 28.0828 16.2813 28.0828 13.9711C28.0828 11.2734 25.8883 9.07812 23.1898 9.07812ZM23.1898 16.5203C21.7844 16.5203 20.6406 15.3773 20.6406 13.9711C20.6406 12.5656 21.7844 11.4219 23.1898 11.4219C24.5961 11.4219 25.7391 12.5656 25.7391 13.9711C25.7391 15.3773 24.5961 16.5203 23.1898 16.5203Z" fill="black"/>
<path d="M31.6539 2.48672H8.34607C5.11482 2.48672 2.48669 5.11485 2.48669 8.3461V31.6539C2.48669 34.8852 5.11482 37.5133 8.34607 37.5133H31.6539C34.8851 37.5133 37.5133 34.8852 37.5133 31.6539V8.3461C37.5133 5.11485 34.8852 2.48672 31.6539 2.48672ZM35.1695 31.6539C35.1695 33.593 33.5929 35.1695 31.6539 35.1695H8.34607C6.40701 35.1695 4.83044 33.593 4.83044 31.6539V8.3461C4.83044 6.40704 6.40701 4.83048 8.34607 4.83048H31.6539C33.5929 4.83048 35.1695 6.40704 35.1695 8.3461V31.6539V31.6539Z" fill="black"/>
<path opacity="0.1" d="M37.5133 8.3461V31.6539C37.5133 34.8852 34.8852 37.5133 31.6539 37.5133H19.8438V2.48672H31.6539C34.8852 2.48672 37.5133 5.11485 37.5133 8.3461Z" fill="white"/>
</svg>
