<svg xmlns="http://www.w3.org/2000/svg" width="32" height="32" enable-background="new 0 0 32 32" viewBox="0 0 32 32"><rect width="29" height="23" x="1.5" y="4.5" fill="#FFF"/><path fill="#455A64" d="M30.5,28h-29C1.224,28,1,27.776,1,27.5v-23C1,4.224,1.224,4,1.5,4h29C30.776,4,31,4.224,31,4.5v23
			C31,27.776,30.776,28,30.5,28z M2,27h28V5H2V27z"/><rect width="25" height="19" x="3.5" y="6.5" fill="#A9E4FF"/><path fill="#1DE9B6" d="M28.5,12.025l-0.023,0.001c-7.82,0-7.039,9.546-17.22,9.546C9.18,19.028,7.553,16.5,3.666,16.5l-0.166,9h25
		C28.5,25.5,28.611,12.019,28.5,12.025z"/><path fill="#455A64" d="M28.5 26h-23C5.224 26 5 25.776 5 25.5S5.224 25 5.5 25H28V6.5C28 6.224 28.224 6 28.5 6S29 6.224 29 6.5v19C29 25.776 28.776 26 28.5 26zM3.5 26C3.224 26 3 25.776 3 25.5v-19C3 6.224 3.224 6 3.5 6h23C26.776 6 27 6.224 27 6.5S26.776 7 26.5 7H4v18.5C4 25.776 3.776 26 3.5 26z"/><path fill="#455A64" d="M16.834,26c-2.557,0-4.2-2.038-5.939-4.195C8.989,19.442,7.02,17,3.666,17c-0.277,0-0.5-0.224-0.5-0.5
		s0.223-0.5,0.5-0.5c3.832,0,6.049,2.751,8.006,5.178C13.326,23.229,14.756,25,16.834,25c0.276,0,0.5,0.224,0.5,0.5
		S17.11,26,16.834,26z"/><path fill="#455A64" d="M11.612,22.077c-0.276,0-0.5-0.224-0.5-0.5s0.224-0.5,0.5-0.5c5.048,0,7.093-2.524,9.07-4.965
		c1.802-2.223,3.663-4.521,7.642-4.607c0.279-0.01,0.505,0.214,0.511,0.489c0.006,0.276-0.214,0.505-0.489,0.511
		c-3.514,0.075-5.076,2.004-6.887,4.237C19.434,19.242,17.137,22.077,11.612,22.077z"/><circle cx="13" cy="12" r="2.5" fill="#FFF5A2"/><path fill="#455A64" d="M13,15c-1.654,0-3-1.346-3-3s1.346-3,3-3s3,1.346,3,3S14.654,15,13,15z M13,10c-1.104,0-2,0.897-2,2
			s0.896,2,2,2s2-0.897,2-2S14.104,10,13,10z"/></svg>