<svg width="25" height="25" viewBox="0 0 25 25" fill="none" xmlns="http://www.w3.org/2000/svg">
<g clip-path="url(#clip0_356_1104)">
<path d="M7.26875 25C5.34155 24.9981 3.49384 24.2316 2.1311 22.8689C0.768363 21.5062 0.00193037 19.6584 0 17.7312L0 7.26875C0.00193037 5.34155 0.768363 3.49384 2.1311 2.1311C3.49384 0.768363 5.34155 0.00193037 7.26875 0L17.7312 0C19.6584 0.00193037 21.5062 0.768363 22.8689 2.1311C24.2316 3.49384 24.9981 5.34155 25 7.26875V17.7312C24.9981 19.6584 24.2316 21.5062 22.8689 22.8689C21.5062 24.2316 19.6584 24.9981 17.7312 25H7.26875ZM7.26875 4.16667C6.44628 4.16749 5.65773 4.49459 5.07616 5.07616C4.49459 5.65773 4.16749 6.44628 4.16667 7.26875V17.7312C4.16749 18.5537 4.49459 19.3423 5.07616 19.9238C5.65773 20.5054 6.44628 20.8325 7.26875 20.8333H17.7312C18.5537 20.8325 19.3423 20.5054 19.9238 19.9238C20.5054 19.3423 20.8325 18.5537 20.8333 17.7312V7.26875C20.8333 7.07708 20.8156 6.88958 20.7823 6.70833C20.667 7.21687 20.3654 7.66381 19.937 7.9611C19.5086 8.2584 18.9844 8.3845 18.4677 8.31458C19.3306 9.53953 19.7931 11.0016 19.7917 12.5C19.7917 16.5208 16.5208 19.7917 12.5 19.7917C8.47917 19.7917 5.20833 16.5208 5.20833 12.5C5.20833 8.47917 8.47917 5.20833 12.5 5.20833C14.0562 5.20833 15.5 5.69896 16.6854 6.53229C16.6155 6.01555 16.7416 5.49136 17.0389 5.06296C17.3362 4.63456 17.7831 4.33301 18.2917 4.21771C18.1068 4.18373 17.9192 4.16664 17.7312 4.16667H7.26875ZM12.5 9.375C10.7771 9.375 9.375 10.7771 9.375 12.5C9.375 14.2229 10.7771 15.625 12.5 15.625C14.2229 15.625 15.625 14.2229 15.625 12.5C15.625 10.7771 14.2229 9.375 12.5 9.375Z" fill="black"/>
<path d="M17.7313 1.04166H7.26877C5.61784 1.04359 4.03508 1.70027 2.86769 2.86766C1.7003 4.03504 1.04362 5.61781 1.04169 7.26874V17.7312C1.04362 19.3822 1.7003 20.9649 2.86769 22.1323C4.03508 23.2997 5.61784 23.9564 7.26877 23.9583H17.7313C19.3822 23.9564 20.965 23.2997 22.1324 22.1323C23.2997 20.9649 23.9564 19.3822 23.9584 17.7312V7.26874C23.9564 5.61781 23.2997 4.03504 22.1324 2.86766C20.965 1.70027 19.3822 1.04359 17.7313 1.04166V1.04166ZM21.875 17.7312C21.8736 18.8298 21.4366 19.883 20.6598 20.6598C19.883 21.4366 18.8298 21.8736 17.7313 21.875H7.26877C6.1702 21.8736 5.11702 21.4366 4.34022 20.6598C3.56341 19.883 3.1264 18.8298 3.12502 17.7312V7.26874C3.1264 6.17017 3.56341 5.11699 4.34022 4.34019C5.11702 3.56338 6.1702 3.12637 7.26877 3.12499H17.7313C18.8298 3.12637 19.883 3.56338 20.6598 4.34019C21.4366 5.11699 21.8736 6.17017 21.875 7.26874V17.7312ZM12.5 6.24999C9.05315 6.24999 6.25002 9.05311 6.25002 12.5C6.25002 15.9469 9.05315 18.75 12.5 18.75C15.9469 18.75 18.75 15.9469 18.75 12.5C18.75 9.05311 15.9469 6.24999 12.5 6.24999ZM12.5 16.6667C10.2021 16.6667 8.33335 14.7979 8.33335 12.5C8.33335 10.2021 10.2021 8.33332 12.5 8.33332C14.7979 8.33332 16.6667 10.2021 16.6667 12.5C16.6667 14.7979 14.7979 16.6667 12.5 16.6667ZM18.75 5.20832C18.1761 5.20832 17.7084 5.67603 17.7084 6.24999C17.7084 6.82395 18.1761 7.29166 18.75 7.29166C19.324 7.29166 19.7917 6.82395 19.7917 6.24999C19.7917 5.67603 19.324 5.20832 18.75 5.20832Z" fill="url(#paint0_radial_356_1104)"/>
<path d="M7.26875 25C5.34155 24.9981 3.49384 24.2316 2.1311 22.8689C0.768363 21.5062 0.00193037 19.6584 0 17.7312L0 7.26875C0.00193037 5.34155 0.768363 3.49384 2.1311 2.1311C3.49384 0.768363 5.34155 0.00193037 7.26875 0L17.7312 0C19.6584 0.00193037 21.5062 0.768363 22.8689 2.1311C24.2316 3.49384 24.9981 5.34155 25 7.26875V17.7312C24.9981 19.6584 24.2316 21.5062 22.8689 22.8689C21.5062 24.2316 19.6584 24.9981 17.7312 25H7.26875ZM7.26875 4.16667C6.44628 4.16749 5.65773 4.49459 5.07616 5.07616C4.49459 5.65773 4.16749 6.44628 4.16667 7.26875V17.7312C4.16749 18.5537 4.49459 19.3423 5.07616 19.9238C5.65773 20.5054 6.44628 20.8325 7.26875 20.8333H17.7312C18.5537 20.8325 19.3423 20.5054 19.9238 19.9238C20.5054 19.3423 20.8325 18.5537 20.8333 17.7312V7.26875C20.8333 7.07708 20.8156 6.88958 20.7823 6.70833C20.667 7.21687 20.3654 7.66381 19.937 7.9611C19.5086 8.2584 18.9844 8.3845 18.4677 8.31458C19.3306 9.53953 19.7931 11.0016 19.7917 12.5C19.7917 16.5208 16.5208 19.7917 12.5 19.7917C8.47917 19.7917 5.20833 16.5208 5.20833 12.5C5.20833 8.47917 8.47917 5.20833 12.5 5.20833C14.0562 5.20833 15.5 5.69896 16.6854 6.53229C16.6155 6.01555 16.7416 5.49136 17.0389 5.06296C17.3362 4.63456 17.7831 4.33301 18.2917 4.21771C18.1068 4.18373 17.9192 4.16664 17.7312 4.16667H7.26875ZM12.5 9.375C10.7771 9.375 9.375 10.7771 9.375 12.5C9.375 14.2229 10.7771 15.625 12.5 15.625C14.2229 15.625 15.625 14.2229 15.625 12.5C15.625 10.7771 14.2229 9.375 12.5 9.375Z" fill="url(#paint1_linear_356_1104)"/>
</g>
<defs>
<radialGradient id="paint0_radial_356_1104" cx="0" cy="0" r="1" gradientUnits="userSpaceOnUse" gradientTransform="translate(3.86252 21.7885) scale(27.1104)">
<stop stop-color="#FFD44F"/>
<stop offset="0.255" stop-color="#F79938"/>
<stop offset="0.6" stop-color="#F73379"/>
<stop offset="0.721" stop-color="#B043A7"/>
<stop offset="0.855" stop-color="#6854D6"/>
<stop offset="0.952" stop-color="#3A5EF4"/>
<stop offset="1" stop-color="#2962FF"/>
</radialGradient>
<linearGradient id="paint1_linear_356_1104" x1="-0.3875" y1="6.49063" x2="25.3875" y2="18.5094" gradientUnits="userSpaceOnUse">
<stop stop-color="white" stop-opacity="0.2"/>
<stop offset="1" stop-color="white" stop-opacity="0"/>
</linearGradient>
<clipPath id="clip0_356_1104">
<rect width="25" height="25" fill="white"/>
</clipPath>
</defs>
</svg>
