<svg width="30" height="30" viewBox="0 0 30 30" fill="none" xmlns="http://www.w3.org/2000/svg">
<path d="M15 4C8.93097 4 3.99997 8.931 3.99997 15C3.99997 16.775 4.45397 18.513 5.27497 20.084L4.01347 25.384C3.99358 25.4672 3.99535 25.554 4.01861 25.6363C4.04188 25.7186 4.08586 25.7936 4.14635 25.854C4.20684 25.9145 4.28182 25.9584 4.36413 25.9816C4.44644 26.0048 4.53332 26.0065 4.61647 25.9865L9.91647 24.725C11.487 25.546 13.225 26 15 26C21.0685 26 26 21.0695 26 15C26 8.9305 21.0695 4 15 4ZM15 5C20.529 5 25 9.4715 25 15C25 20.5285 20.5285 25 15 25C13.3175 25 11.6615 24.575 10.1865 23.765C10.0777 23.7053 9.95065 23.6882 9.82997 23.717L5.17497 24.825L6.28297 20.17C6.31191 20.0494 6.29498 19.9223 6.23547 19.8135C5.42525 18.3385 5.0003 16.6829 4.99997 15C4.99997 9.471 9.47147 5 15 5Z" fill="black"/>
<path d="M10 13.5C9.1775 13.5 8.5 14.1775 8.5 15C8.5 15.8225 9.1775 16.5 10 16.5C10.8225 16.5 11.5 15.8225 11.5 15C11.5 14.1775 10.8225 13.5 10 13.5ZM10 14.5C10.282 14.5 10.5 14.718 10.5 15C10.5 15.282 10.282 15.5 10 15.5C9.718 15.5 9.5 15.282 9.5 15C9.5 14.718 9.718 14.5 10 14.5ZM15 13.5C14.1775 13.5 13.5 14.1775 13.5 15C13.5 15.8225 14.1775 16.5 15 16.5C15.8225 16.5 16.5 15.8225 16.5 15C16.5 14.1775 15.8225 13.5 15 13.5ZM15 14.5C15.282 14.5 15.5 14.718 15.5 15C15.5 15.282 15.282 15.5 15 15.5C14.718 15.5 14.5 15.282 14.5 15C14.5 14.718 14.718 14.5 15 14.5ZM20 13.5C19.1775 13.5 18.5 14.1775 18.5 15C18.5 15.8225 19.1775 16.5 20 16.5C20.8225 16.5 21.5 15.8225 21.5 15C21.5 14.1775 20.8225 13.5 20 13.5ZM20 14.5C20.282 14.5 20.5 14.718 20.5 15C20.5 15.282 20.282 15.5 20 15.5C19.718 15.5 19.5 15.282 19.5 15C19.5 14.718 19.718 14.5 20 14.5Z" fill="black"/>
</svg>
