<svg width="21" height="31" viewBox="0 0 21 31" fill="none" xmlns="http://www.w3.org/2000/svg">
<path fill-rule="evenodd" clip-rule="evenodd" d="M20.2311 8.17079L20.1459 27.5015C20.1414 28.5168 19.2264 29.3402 18.1088 29.3345L3.74102 29.2609C2.62349 29.2551 1.71572 28.4224 1.72019 27.407L1.80538 8.0764C1.80768 7.55508 2.0203 7.10751 2.43613 6.74886L8.40574 1.59966C9.11716 0.986104 10.0124 0.674829 11.0511 0.68015C12.0897 0.685471 12.9822 1.00587 13.6882 1.62673L19.6121 6.83686C20.0247 7.19967 20.2334 7.64956 20.2311 8.17079Z" fill="#FBD307"/>
<path fill-rule="evenodd" clip-rule="evenodd" d="M20.2311 8.17079L20.1459 27.5015C20.1414 28.5168 19.2264 29.3402 18.1088 29.3345L3.74102 29.2609C2.87243 29.2564 2.13067 28.7523 1.84533 28.0512L15.913 28.1233C17.0305 28.129 17.9456 27.3056 17.9501 26.2902L18.0353 6.95961C18.0376 6.43838 17.8288 5.98849 17.4163 5.62564L11.8806 0.757035C12.5704 0.886362 13.178 1.17802 13.6882 1.62673L19.6121 6.83686C20.0247 7.19967 20.2334 7.64956 20.2311 8.17079Z" fill="#F9C301"/>
<path d="M13.4742 9.2589C13.5921 8.02427 12.586 6.93492 11.2269 6.82577C9.8678 6.71662 8.67046 7.629 8.55256 8.86363C8.43465 10.0983 9.44082 11.1876 10.7999 11.2968C12.159 11.4059 13.3563 10.4935 13.4742 9.2589Z" fill="#F4F8F8"/>
<path fill-rule="evenodd" clip-rule="evenodd" d="M11.024 6.81742C11.2808 6.81874 11.5283 6.8556 11.7609 6.92291C10.6496 7.13705 9.81416 8.03087 9.80943 9.10551C9.80499 10.1116 10.5299 10.9668 11.5327 11.2569C11.3623 11.2897 11.1856 11.3068 11.0042 11.3058C9.64009 11.2988 8.53866 10.2884 8.54407 9.04891C8.54954 7.80949 9.65983 6.81039 11.024 6.81742Z" fill="#E5ECF1"/>
<path fill-rule="evenodd" clip-rule="evenodd" d="M12.2274 10.1746C11.5537 10.7809 10.4603 10.7754 9.79117 10.1616C9.12218 9.54784 9.12678 8.55444 9.80049 7.94821C10.4763 7.34006 11.5696 7.3455 12.2386 7.95922C12.9078 8.57305 12.9032 9.56645 12.2274 10.1746ZM8.74824 6.98291C7.4902 8.11496 7.48141 9.96985 8.73065 11.1159C9.98011 12.2621 12.0217 12.272 13.2797 11.1399C14.5398 10.006 14.5486 8.15112 13.2992 7.0049C12.0499 5.85885 10.0084 5.84895 8.74824 6.98291ZM19.484 8.16681C19.4857 7.83203 19.3581 7.55628 19.0927 7.32421L13.1695 2.11336C12.604 1.61721 11.8903 1.36309 11.0486 1.35802C10.2069 1.35299 9.48913 1.60145 8.92035 2.09231L2.95043 7.24163C2.94398 7.24704 2.93567 7.25451 2.92736 7.26199C2.67782 7.48654 2.55443 7.75501 2.55344 8.07907L2.4668 27.4112C2.4652 28.0522 3.03787 28.5775 3.74348 28.5824L18.1121 28.6551C18.8198 28.6582 19.3958 28.1399 19.3993 27.4969L19.484 8.16681ZM14.2077 1.13862C13.3693 0.399642 12.278 0.00695327 11.0552 -7.11685e-05C9.8306 -0.00502524 8.73822 0.375916 7.89118 1.10657L1.92126 6.25589C1.36114 6.73968 1.06162 7.36799 1.05865 8.07197L0.973901 27.4021C0.966931 28.7939 2.20714 29.9316 3.73896 29.9387L18.1054 30.0132C18.8713 30.0167 19.5673 29.7369 20.0726 29.2823C20.5758 28.8294 20.8905 28.1999 20.8939 27.504L20.9787 8.1739C20.9816 7.46992 20.6891 6.83878 20.131 6.34943L14.2077 1.13862Z" fill="black"/>
</svg>
