<svg width="21" height="30" viewBox="0 0 21 30" fill="none" xmlns="http://www.w3.org/2000/svg">
<path fill-rule="evenodd" clip-rule="evenodd" d="M20.2179 21.847L20.17 2.51619C20.1675 1.50083 19.254 0.67564 18.1365 0.679209L3.76853 0.725132C2.65099 0.728701 1.74162 1.55971 1.74413 2.57508L1.79201 21.9058C1.7933 22.4271 2.00506 22.8751 2.4202 23.2346L8.37986 28.3953C9.0901 29.0102 9.98475 29.3232 11.0234 29.3199C12.0621 29.3166 12.9552 28.9979 13.6623 28.3784L19.5963 23.1797C20.0096 22.8177 20.2192 22.3682 20.2179 21.847Z" fill="#FBD307"/>
<path fill-rule="evenodd" clip-rule="evenodd" d="M20.2179 21.847L20.17 2.51619C20.1675 1.50083 19.254 0.67564 18.1365 0.679209L3.76853 0.725132C2.89994 0.727866 2.15721 1.2306 1.87051 1.93115L15.9383 1.88619C17.0558 1.88262 17.9693 2.70781 17.9718 3.72318L18.0197 23.0539C18.021 23.5752 17.8114 24.0246 17.3982 24.3867L11.8531 29.2446C12.5431 29.1166 13.1513 28.8261 13.6623 28.3784L19.5963 23.1797C20.0096 22.8177 20.2192 22.3682 20.2179 21.847Z" fill="#F9C301"/>
<path d="M13.4631 20.7458C13.5787 21.9807 12.5704 23.0681 11.2111 23.1746C9.8518 23.2812 8.65622 22.3665 8.5407 21.1316C8.42517 19.8968 9.43345 18.8093 10.7927 18.7028C12.152 18.5963 13.3476 19.511 13.4631 20.7458Z" fill="#F4F8F8"/>
<path fill-rule="evenodd" clip-rule="evenodd" d="M11.0082 23.1826C11.265 23.1818 11.5126 23.1454 11.7453 23.0785C10.6344 22.8622 9.80069 21.9668 9.79803 20.8922C9.79554 19.8861 10.5221 19.0322 11.5255 18.7441C11.3552 18.7109 11.1784 18.6936 10.9971 18.6942C9.63293 18.6985 8.52955 19.7068 8.53257 20.9463C8.53564 22.1857 9.644 23.187 11.0082 23.1826Z" fill="#E5ECF1"/>
<path fill-rule="evenodd" clip-rule="evenodd" d="M12.2181 19.8277C11.5455 19.2202 10.4522 19.2235 9.78182 19.8361C9.11164 20.4485 9.11432 21.4419 9.78686 22.0494C10.4615 22.6589 11.5548 22.6556 12.225 22.0431C12.8954 21.4306 12.8927 20.4372 12.2181 19.8277ZM8.73275 23.0127C7.47689 21.8782 7.47168 20.0233 8.72313 18.8797C9.9748 17.7359 12.0164 17.73 13.2722 18.8644C14.5302 20.0008 14.5354 21.8557 13.2837 22.9995C12.0322 24.1431 9.99073 24.1491 8.73275 23.0127ZM19.4708 21.8495C19.4718 22.1843 19.3437 22.4598 19.0779 22.6914L13.1446 27.8908C12.5781 28.3858 11.864 28.6386 11.0223 28.642C10.1806 28.6454 9.46325 28.3956 8.89542 27.9036L2.93545 22.7428C2.92901 22.7374 2.92072 22.7299 2.91242 22.7224C2.66332 22.4974 2.54044 22.2287 2.54008 21.9046L2.49074 2.57229C2.49039 1.93138 3.06406 1.40714 3.76969 1.40356L18.1384 1.3586C18.8461 1.3569 19.4211 1.87635 19.4233 2.51934L19.4708 21.8495ZM14.181 28.8675C13.3411 29.6049 12.2491 29.9955 11.0263 30.0001C9.80163 30.0027 8.70998 29.6197 7.86435 28.8874L1.90438 23.7265C1.34519 23.2417 1.04688 22.6128 1.04527 21.9088L0.99783 2.57854C0.993546 1.18676 2.23595 0.0514301 3.76778 0.0472985L18.1344 0.000500347C18.9003 -0.00154541 19.5957 0.279614 20.1001 0.735254C20.6024 1.18906 20.9159 1.81922 20.918 2.51509L20.9655 21.8453C20.967 22.5493 20.6733 23.1799 20.1142 23.6682L14.181 28.8675Z" fill="black"/>
</svg>
