<svg width="15" height="15" viewBox="0 0 15 15" fill="none" xmlns="http://www.w3.org/2000/svg">
<g clip-path="url(#clip0_16_937)">
<path d="M12.2318 14.0212C11.732 14.3772 8.52487 12.1204 7.91064 12.1154C7.2964 12.1105 4.05321 14.3154 3.55922 13.9514C3.06523 13.5874 4.22658 9.84852 4.0415 9.26451C3.85643 8.6805 0.751268 6.28611 0.945777 5.70514C1.14033 5.12416 5.06517 5.0702 5.56499 4.71419C6.06482 4.35822 7.38895 0.673554 8.00322 0.678472C8.61741 0.683432 9.88171 4.38892 10.3757 4.75293C10.8697 5.1169 14.7932 5.23406 14.9783 5.81806C15.1634 6.40207 12.0199 8.74618 11.8254 9.32715C11.6309 9.90812 12.7316 13.6651 12.2318 14.0212Z" fill="#F8B84E"/>
<g clip-path="url(#clip1_16_937)">
<path d="M12.2318 14.0212C11.732 14.3772 8.52487 12.1204 7.91064 12.1154C7.2964 12.1105 4.05321 14.3154 3.55922 13.9514C3.06523 13.5874 4.22658 9.84852 4.0415 9.26451C3.85643 8.6805 0.751268 6.28611 0.945777 5.70514C1.14033 5.12416 5.06517 5.0702 5.56499 4.71419C6.06482 4.35822 7.38895 0.673554 8.00322 0.678472C8.61741 0.683432 9.88171 4.38892 10.3757 4.75293C10.8697 5.1169 14.7932 5.23406 14.9783 5.81806C15.1634 6.40207 12.0199 8.74618 11.8254 9.32715C11.6309 9.90812 12.7316 13.6651 12.2318 14.0212Z" fill="#F8B84E"/>
</g>
</g>
<defs>
<clipPath id="clip0_16_937">
<rect width="15" height="15" fill="white"/>
</clipPath>
<clipPath id="clip1_16_937">
<rect width="15" height="15" fill="white"/>
</clipPath>
</defs>
</svg>
