<svg width="25" height="22" viewBox="0 0 25 22" fill="none" xmlns="http://www.w3.org/2000/svg">
<path d="M24.8604 2.673C24.7824 2.58467 24.6792 2.52576 24.5665 2.5053C24.4538 2.48484 24.3378 2.50395 24.2364 2.5597C23.9851 2.68114 23.7249 2.78048 23.4581 2.8567C23.8655 2.2924 24.1957 1.6511 24.3374 1.0769C24.364 0.967682 24.3582 0.852492 24.3208 0.746874C24.2834 0.641256 24.2162 0.550293 24.1283 0.486259C24.0404 0.422225 23.936 0.388202 23.8292 0.388782C23.7224 0.389361 23.6183 0.424515 23.5311 0.4895C23.2258 0.7194 21.809 1.3816 20.8954 1.595C19.7379 0.4939 18.5836 0 17.1877 0C16.1407 0 15.1708 0.3157 14.0435 1.0219C12.0777 2.2539 11.7381 4.917 11.8829 6.5494C6.54687 6.0137 3.55382 2.7357 2.49016 1.309C2.43597 1.2405 2.36755 1.18611 2.29022 1.15006C2.21289 1.114 2.12873 1.09725 2.04428 1.1011C1.95954 1.10718 1.87752 1.13514 1.80541 1.18251C1.7333 1.22989 1.6733 1.29523 1.63069 1.3728C0.358673 3.6751 0.879565 6.0434 1.8578 7.6395C1.69008 7.51839 1.52774 7.38919 1.37129 7.2523C1.29515 7.18569 1.20263 7.14334 1.10454 7.1302C1.00645 7.11705 0.90684 7.13366 0.817358 7.17807C0.727875 7.22249 0.652213 7.29288 0.599214 7.38102C0.546215 7.46915 0.518069 7.5714 0.518066 7.6758C0.518066 10.0936 1.85884 11.8206 3.16732 12.8018C3.0298 12.7622 2.89296 12.72 2.75686 12.6753C2.66128 12.6444 2.55932 12.6432 2.4631 12.6718C2.36688 12.7003 2.28045 12.7574 2.21407 12.8363C2.14769 12.9152 2.10416 13.0126 2.08865 13.1168C2.07314 13.2211 2.0863 13.3278 2.12658 13.4244C2.96313 15.4099 4.6279 16.8905 6.49166 17.4053C4.87168 18.4492 2.64226 18.9618 0.579531 18.7055C0.46056 18.6913 0.340577 18.7207 0.239778 18.789C0.138979 18.8572 0.0635179 18.96 0.0260958 19.0801C-0.0113263 19.2002 -0.0084244 19.3302 0.0343131 19.4483C0.0770506 19.5664 0.157014 19.6654 0.260745 19.7285C2.79541 21.2564 5.43008 22 8.31269 22H8.33145C12.2704 21.9967 15.9698 20.1872 18.7472 16.9048C21.4277 13.7379 22.8341 9.6822 22.5455 5.9895C23.2352 5.4461 24.277 4.4308 24.9208 3.3385C24.9816 3.23603 25.0086 3.11525 24.9976 2.99492C24.9867 2.87458 24.9385 2.76142 24.8604 2.673Z" fill="black"/>
<path d="M21.709 5.2679C21.6296 5.32408 21.5663 5.40222 21.5261 5.49377C21.4858 5.58533 21.4702 5.6868 21.4808 5.7871C21.8434 9.207 20.4974 13.1868 17.9711 16.1722C15.3937 19.217 11.9704 20.8956 8.33145 20.9H8.31373C6.36977 20.9 4.5456 20.5381 2.7902 19.8C4.85189 19.5657 6.84586 18.7231 8.16163 17.4559C8.23843 17.3818 8.29246 17.2851 8.31676 17.1783C8.34106 17.0715 8.33452 16.9595 8.29798 16.8567C8.26145 16.7538 8.19659 16.6649 8.11175 16.6013C8.02692 16.5378 7.92601 16.5025 7.82201 16.5C6.21142 16.4615 4.64249 15.5067 3.64863 14.0327C4.35391 14.1416 5.03316 14.08 5.54467 13.6169C5.62248 13.5476 5.67926 13.4556 5.70793 13.3525C5.73661 13.2493 5.73591 13.1396 5.70592 13.0369C5.67593 12.9341 5.61799 12.843 5.5393 12.7748C5.46061 12.7066 5.36466 12.6643 5.26339 12.6533C4.68937 12.5851 2.26826 11.3872 1.68486 8.8242C2.30681 9.1993 3.0496 9.4886 3.7476 9.339C3.85074 9.31668 3.94511 9.262 4.01835 9.18212C4.09158 9.10224 4.14028 9.00088 4.15806 8.8913C4.17511 8.78171 4.16047 8.66924 4.11606 8.56857C4.07164 8.4679 3.9995 8.38371 3.90907 8.327C2.95584 7.7308 1.25148 5.2822 2.20055 2.6521C3.73197 4.4451 7.04797 7.392 12.4705 7.6989C12.5516 7.70354 12.6326 7.68809 12.707 7.65379C12.7814 7.61949 12.8472 7.56728 12.8992 7.50134C12.9511 7.43539 12.9877 7.35754 13.0061 7.274C13.0244 7.19046 13.024 7.10355 13.0049 7.0202C12.7507 5.9048 12.7924 3.0833 14.5749 1.9679C15.5448 1.3596 16.3261 1.1 17.1877 1.1C18.3909 1.1 19.3441 1.5444 20.3765 2.585C20.4335 2.64285 20.5023 2.68612 20.5777 2.71148C20.653 2.73685 20.7328 2.74363 20.811 2.7313C21.3235 2.6521 22.0309 2.4068 22.6706 2.1373C22.2924 2.6719 21.8392 3.1185 21.509 3.2604C21.3965 3.30806 21.3034 3.39561 21.2455 3.50798C21.1876 3.62036 21.1686 3.75052 21.1918 3.87608C21.215 4.00164 21.2789 4.11474 21.3725 4.1959C21.4662 4.27707 21.5837 4.32124 21.7048 4.3208H21.7069C22.0413 4.3197 22.5112 4.2394 22.9873 4.125C22.5948 4.54604 22.167 4.92858 21.709 5.2679Z" fill="#26C6DA"/>
<path d="M13.0059 7.1027C13.1372 7.1137 13.2539 7.1401 13.3872 7.1478C13.4683 7.15244 13.5493 7.13699 13.6238 7.10269C13.6982 7.06839 13.764 7.01618 13.8159 6.95024C13.8679 6.88429 13.9045 6.80644 13.9228 6.7229C13.9412 6.63936 13.9408 6.55245 13.9217 6.4691C13.6758 5.3911 13.7227 2.7368 15.3312 1.5499C15.0722 1.67383 14.8201 1.81302 14.5759 1.9668C12.7944 3.0833 12.7517 5.9037 13.0059 7.0191C13.0111 7.0477 13.0028 7.0752 13.0059 7.1027ZM7.24903 18.1874C7.9127 17.8535 8.52825 17.422 9.07736 16.9059C9.15453 16.8319 9.20888 16.7351 9.2334 16.6281C9.25792 16.5212 9.25148 16.4089 9.2149 16.3058C9.17832 16.2027 9.11329 16.1136 9.02822 16.05C8.94316 15.9864 8.84197 15.9511 8.73774 15.9489C7.30841 15.9148 5.91451 15.1569 4.92481 13.9579C4.5331 14.0866 4.09972 14.1009 3.64967 14.0316C4.64353 15.5056 6.21142 16.4604 7.82305 16.4989C7.92728 16.5011 8.02847 16.5364 8.11354 16.6C8.1986 16.6636 8.26363 16.7527 8.30021 16.8558C8.33679 16.9589 8.34324 17.0712 8.31872 17.1781C8.2942 17.2851 8.2388 17.3819 8.16163 17.4559C7.88556 17.721 7.57719 17.9619 7.24903 18.1874ZM9.24613 20.3489H9.22842C7.53031 20.3489 5.92701 20.0552 4.37788 19.4942C3.86115 19.635 3.3288 19.7395 2.7902 19.8C4.5456 20.5381 6.36977 20.9 8.31373 20.9H8.33145C10.7067 20.8978 12.9841 20.1696 14.9999 18.8265C13.2185 19.8099 11.2693 20.3467 9.24613 20.3489ZM3.90907 8.327C4.07472 8.4304 4.15598 8.624 4.14868 8.8231C4.32058 8.833 4.49351 8.8253 4.66332 8.789C4.76612 8.76644 4.86007 8.71167 4.93293 8.63185C5.00578 8.55203 5.05414 8.45086 5.07169 8.34157C5.08924 8.23227 5.07517 8.11993 5.03131 8.01921C4.98745 7.91849 4.91584 7.83408 4.82584 7.777C4.02679 7.2776 2.70894 5.4802 2.85479 3.366C2.62926 3.13577 2.41106 2.89767 2.20055 2.6521C1.25148 5.2822 2.95584 7.7308 3.90907 8.327ZM5.26443 12.6533C5.36526 12.6653 5.46058 12.7081 5.53868 12.7765C5.61678 12.8449 5.67426 12.9359 5.70407 13.0383C5.72262 13.1121 5.7258 13.1892 5.71339 13.2644C5.70098 13.3396 5.67327 13.4111 5.63218 13.4739C5.93534 13.4101 6.21767 13.2869 6.4604 13.0669C6.53821 12.9976 6.59499 12.9056 6.62366 12.8025C6.65233 12.6993 6.65163 12.5896 6.62165 12.4869C6.59166 12.3841 6.53372 12.293 6.45503 12.2248C6.37634 12.1566 6.28039 12.1143 6.17912 12.1033C5.69261 12.0461 3.88303 11.1639 2.98814 9.3335C2.52851 9.24683 2.08718 9.07437 1.68486 8.8242C2.26826 11.3861 4.69041 12.5851 5.26443 12.6533Z" fill="white"/>
<path d="M24.8604 2.673C24.7824 2.58467 24.6792 2.52576 24.5665 2.5053C24.4538 2.48484 24.3378 2.50395 24.2364 2.5597C23.9851 2.68114 23.7249 2.78048 23.4581 2.8567C23.8655 2.2924 24.1957 1.6511 24.3374 1.0769C24.364 0.967682 24.3582 0.852492 24.3208 0.746874C24.2834 0.641256 24.2162 0.550293 24.1283 0.486259C24.0404 0.422225 23.936 0.388202 23.8292 0.388782C23.7224 0.389361 23.6183 0.424515 23.5311 0.4895C23.2258 0.7194 21.809 1.3816 20.8954 1.595C19.7379 0.4939 18.5836 0 17.1877 0C16.1407 0 15.1708 0.3157 14.0435 1.0219C12.0777 2.2539 11.7381 4.917 11.8829 6.5494C6.54687 6.0137 3.55382 2.7357 2.49016 1.309C2.43597 1.2405 2.36755 1.18611 2.29022 1.15006C2.21289 1.114 2.12873 1.09725 2.04428 1.1011C1.95954 1.10718 1.87752 1.13514 1.80541 1.18251C1.7333 1.22989 1.6733 1.29523 1.63069 1.3728C0.358673 3.6751 0.879565 6.0434 1.8578 7.6395C1.69008 7.51839 1.52774 7.38919 1.37129 7.2523C1.29515 7.18569 1.20263 7.14334 1.10454 7.1302C1.00645 7.11705 0.90684 7.13366 0.817358 7.17807C0.727875 7.22249 0.652213 7.29288 0.599214 7.38102C0.546215 7.46915 0.518069 7.5714 0.518066 7.6758C0.518066 10.0936 1.85884 11.8206 3.16732 12.8018C3.0298 12.7622 2.89296 12.72 2.75686 12.6753C2.66128 12.6444 2.55932 12.6432 2.4631 12.6718C2.36688 12.7003 2.28045 12.7574 2.21407 12.8363C2.14769 12.9152 2.10416 13.0126 2.08865 13.1168C2.07314 13.2211 2.0863 13.3278 2.12658 13.4244C2.96313 15.4099 4.6279 16.8905 6.49166 17.4053C4.87168 18.4492 2.64226 18.9618 0.579531 18.7055C0.46056 18.6913 0.340577 18.7207 0.239778 18.789C0.138979 18.8572 0.0635179 18.96 0.0260958 19.0801C-0.0113263 19.2002 -0.0084244 19.3302 0.0343131 19.4483C0.0770506 19.5664 0.157014 19.6654 0.260745 19.7285C2.79541 21.2564 5.43008 22 8.31269 22H8.33145C12.2704 21.9967 15.9698 20.1872 18.7472 16.9048C21.4277 13.7379 22.8341 9.6822 22.5455 5.9895C23.2352 5.4461 24.277 4.4308 24.9208 3.3385C24.9816 3.23603 25.0086 3.11525 24.9976 2.99492C24.9867 2.87458 24.9385 2.76142 24.8604 2.673Z" fill="url(#paint0_linear_356_1114)"/>
<defs>
<linearGradient id="paint0_linear_356_1114" x1="0.31596" y1="4.2889" x2="21.0275" y2="13.4347" gradientUnits="userSpaceOnUse">
<stop stop-color="white" stop-opacity="0.2"/>
<stop offset="1" stop-color="white" stop-opacity="0"/>
</linearGradient>
</defs>
</svg>
