<svg xmlns="http://www.w3.org/2000/svg" data-name="Layer 1" viewBox="0 0 128 128"><path d="M110,9H18A18,18,0,0,0,0,27v74a18,18,0,0,0,18,18h92a18,18,0,0,0,18-18V27A18,18,0,0,0,110,9Zm14,92a14,14,0,0,1-14,14H18A14,14,0,0,1,4,101V27A14,14,0,0,1,18,13h92a14,14,0,0,1,14,14Z"/><path d="M108,19H20A10,10,0,0,0,10,29V99a10,10,0,0,0,10,10h88a10,10,0,0,0,10-10V29A10,10,0,0,0,108,19ZM92,105H38V85.26c.58-7.79,11-10.16,12.92-10.54A15.55,15.55,0,0,0,64.31,82.5h1.36a15.33,15.33,0,0,0,11.19-4.86,16.51,16.51,0,0,0,2.2-2.92c1.8.34,12.35,2.7,12.93,10.54ZM57.93,69.25a12.21,12.21,0,0,0,14.14,0,9.85,9.85,0,0,0,3.21,4A12.54,12.54,0,0,1,74,74.89a11.37,11.37,0,0,1-8.29,3.61H64.31a11.54,11.54,0,0,1-9.61-5.25A9.84,9.84,0,0,0,57.93,69.25ZM51,48.7c0-7.28,6.28-13.2,14-13.2s14,5.92,14,13.2S72.59,67.5,65,67.5,51,56,51,48.7ZM114,99a6,6,0,0,1-6,6H96V85.19s0-.09,0-.13C95.2,73.27,80.05,70.82,79.45,70.73a5.45,5.45,0,0,1-4.14-4.18C80,61.7,83,54.27,83,48.7c0-9.48-8.08-17.2-18-17.2S47,39.22,47,48.7c0,5.57,3,13,7.69,17.85-.43,1.46-1.5,3.73-4.1,4.18-.64.1-15.79,2.55-16.58,14.34,0,0,0,.09,0,.13V105H20a6,6,0,0,1-6-6V29a6,6,0,0,1,6-6h88a6,6,0,0,1,6,6Z"/><path d="M84,89H76a2,2,0,0,0,0,4h8a2,2,0,0,0,0-4Z"/></svg>