<svg width="62" height="46" viewBox="0 0 62 46" fill="none" xmlns="http://www.w3.org/2000/svg">
<path d="M61.3333 2.67774V13.3444H0V2.67774C0 1.9705 0.280952 1.29222 0.781049 0.792127C1.28115 0.29203 1.95942 0.0110779 2.66667 0.0110779H58.6667C59.3739 0.0110779 60.0522 0.29203 60.5523 0.792127C61.0524 1.29222 61.3333 1.9705 61.3333 2.67774Z" fill="#B7B7B7" fill-opacity="0.8"/>
<path d="M61.3333 2.14442V13.3444H4V0.0110827H58.6667C59.3012 -0.0494182 59.9344 0.139419 60.4321 0.537609C60.9298 0.935798 61.2531 1.51208 61.3333 2.14442Z" fill="#F9F9F9"/>
<path d="M61.3333 13.3444V21.3444C61.3333 22.0517 61.0524 22.7299 60.5523 23.23C60.0522 23.7301 59.3739 24.0111 58.6667 24.0111H54.6667V18.6778H6.66667V24.0111H2.66667C1.95942 24.0111 1.28115 23.7301 0.781049 23.23C0.280952 22.7299 0 22.0517 0 21.3444V13.3444H61.3333Z" fill="#474747" fill-opacity="0.8"/>
<path d="M6.66667 18.6777H54.6667V24.0111H6.66667V18.6777Z" fill="#DBDCDC"/>
<path d="M6.66667 21.3444H52V24.0111H6.66667V21.3444Z" fill="#B7B7B7" fill-opacity="0.8"/>
<path d="M56 29.3444H5.33333L6.66666 24.0111H54.6667L56 29.3444Z" fill="#474747" fill-opacity="0.8"/>
<path d="M56 29.3444H8C8.64 27.4244 8.96 25.3444 11.2533 25.3444H55L56 29.3444Z" fill="#FEFFFF"/>
<path d="M57.3333 6.67775C57.3333 6.32413 57.1929 5.98499 56.9428 5.73494C56.6928 5.4849 56.3536 5.34442 56 5.34442C55.6464 5.34442 55.3072 5.4849 55.0572 5.73494C54.8071 5.98499 54.6667 6.32413 54.6667 6.67775C54.6667 7.03138 54.8071 7.37052 55.0572 7.62056C55.3072 7.87061 55.6464 8.01109 56 8.01109C56.3536 8.01109 56.6928 7.87061 56.9428 7.62056C57.1929 7.37052 57.3333 7.03138 57.3333 6.67775Z" fill="#B7B7B7" fill-opacity="0.8"/>
<path d="M52 6.67775C52 6.32413 51.8595 5.98499 51.6095 5.73494C51.3594 5.4849 51.0203 5.34442 50.6667 5.34442C50.313 5.34442 49.9739 5.4849 49.7239 5.73494C49.4738 5.98499 49.3333 6.32413 49.3333 6.67775C49.3333 7.03138 49.4738 7.37052 49.7239 7.62056C49.9739 7.87061 50.313 8.01109 50.6667 8.01109C51.0203 8.01109 51.3594 7.87061 51.6095 7.62056C51.8595 7.37052 52 7.03138 52 6.67775Z" fill="#B7B7B7" fill-opacity="0.8"/>
<path d="M29.3333 44.0111V33.3444C29.3333 32.9908 29.4738 32.6517 29.7239 32.4016C29.9739 32.1516 30.313 32.0111 30.6667 32.0111C31.0203 32.0111 31.3594 32.1516 31.6095 32.4016C31.8595 32.6517 32 32.9908 32 33.3444V44.0111C32 44.3647 31.8595 44.7038 31.6095 44.9539C31.3594 45.2039 31.0203 45.3444 30.6667 45.3444C30.313 45.3444 29.9739 45.2039 29.7239 44.9539C29.4738 44.7038 29.3333 44.3647 29.3333 44.0111ZM12 45.3444C11.6464 45.3444 11.3072 45.2039 11.0572 44.9539C10.8071 44.7038 10.6667 44.3647 10.6667 44.0111C10.6667 43.6575 10.8071 43.3183 11.0572 43.0683C11.3072 42.8182 11.6464 42.6778 12 42.6778C13.7681 42.6778 15.4638 41.9754 16.714 40.7251C17.9643 39.4749 18.6667 37.7792 18.6667 36.0111V33.3444C18.6667 32.9908 18.8071 32.6517 19.0572 32.4016C19.3072 32.1516 19.6464 32.0111 20 32.0111C20.3536 32.0111 20.6928 32.1516 20.9428 32.4016C21.1929 32.6517 21.3333 32.9908 21.3333 33.3444V36.0111C21.3333 38.4864 20.35 40.8604 18.5997 42.6108C16.8493 44.3611 14.4754 45.3444 12 45.3444ZM49.3333 45.3444C46.858 45.3444 44.484 44.3611 42.7337 42.6108C40.9833 40.8604 40 38.4864 40 36.0111V33.3444C40 32.9908 40.1405 32.6517 40.3905 32.4016C40.6406 32.1516 40.9797 32.0111 41.3333 32.0111C41.687 32.0111 42.0261 32.1516 42.2761 32.4016C42.5262 32.6517 42.6667 32.9908 42.6667 33.3444V36.0111C42.6667 37.7792 43.369 39.4749 44.6193 40.7251C45.8695 41.9754 47.5652 42.6778 49.3333 42.6778C49.687 42.6778 50.0261 42.8182 50.2761 43.0683C50.5262 43.3183 50.6667 43.6575 50.6667 44.0111C50.6667 44.3647 50.5262 44.7038 50.2761 44.9539C50.0261 45.2039 49.687 45.3444 49.3333 45.3444ZM4 13.3444V18.6778C4 19.385 4.28095 20.0633 4.78105 20.5634C5.28115 21.0635 5.95942 21.3444 6.66667 21.3444V18.6778H54.6667V21.3444H61.3333V13.3444H4Z" fill="#FEFFFF"/>
</svg>
