<svg width="50" height="50" viewBox="0 0 50 50" fill="none" xmlns="http://www.w3.org/2000/svg">
<path d="M47.1094 0.78125H2.96875V44.9219H47.1094V0.78125Z" fill="white"/>
<path d="M47.8125 45.625H2.1875V0H47.8125V45.625ZM3.67187 44.1406H46.25V1.5625H3.67187V44.1406Z" fill="#919191"/>
<path d="M46.7188 15.3125H2.57812V16.875H46.7188V15.3125Z" fill="#919191"/>
<path d="M46.7188 28.4375H2.57812V30H46.7188V28.4375Z" fill="#919191"/>
<path d="M29.6094 10.5469H20.3906C19.6875 10.5469 19.2188 10 19.2188 9.375V7.73437C19.2188 7.03125 19.7656 6.5625 20.3906 6.5625H29.5312C30.2344 6.5625 30.7031 7.10937 30.7031 7.73437V9.375C30.7812 10 30.2344 10.5469 29.6094 10.5469Z" fill="#BEBEBE"/>
<path d="M29.6094 10.9375H20.3906C19.5312 10.9375 18.8281 10.2344 18.8281 9.375V7.73437C18.8281 6.875 19.5312 6.17188 20.3906 6.17188H29.6094C30.4688 6.17188 31.1719 6.875 31.1719 7.73437V9.375C31.1719 10.2344 30.4688 10.9375 29.6094 10.9375ZM20.3906 6.875C19.9219 6.875 19.6094 7.26562 19.6094 7.65625V9.375C19.6094 9.84375 20 10.1562 20.3906 10.1562H29.6094C30.0781 10.1562 30.3906 9.76562 30.3906 9.375V7.73437C30.3906 7.26562 30 6.95312 29.6094 6.95312H20.3906V6.875Z" fill="#919191"/>
<path d="M29.6094 24.8437H20.3906C19.6875 24.8437 19.2188 24.2969 19.2188 23.6719V22.0312C19.2188 21.3281 19.7656 20.8594 20.3906 20.8594H29.5312C30.2344 20.8594 30.7031 21.4062 30.7031 22.0312V23.6719C30.7812 24.2969 30.2344 24.8437 29.6094 24.8437Z" fill="#BEBEBE"/>
<path d="M29.6094 25.2344H20.3906C19.5312 25.2344 18.8281 24.5312 18.8281 23.6719V22.0312C18.8281 21.1719 19.5312 20.4688 20.3906 20.4688H29.6094C30.4688 20.4688 31.1719 21.1719 31.1719 22.0312V23.6719C31.1719 24.5312 30.4688 25.2344 29.6094 25.2344ZM20.3906 21.1719C19.9219 21.1719 19.6094 21.5625 19.6094 21.9531V23.5937C19.6094 24.0625 20 24.375 20.3906 24.375H29.6094C30.0781 24.375 30.3906 23.9844 30.3906 23.5937V21.9531C30.3906 21.4844 30 21.1719 29.6094 21.1719H20.3906Z" fill="#919191"/>
<path d="M29.6094 39.0625H20.3906C19.6875 39.0625 19.2188 38.5156 19.2188 37.8906V36.25C19.2188 35.5469 19.7656 35.0781 20.3906 35.0781H29.5312C30.2344 35.0781 30.7031 35.625 30.7031 36.25V37.8906C30.7812 38.5156 30.2344 39.0625 29.6094 39.0625Z" fill="#BEBEBE"/>
<path d="M29.6094 39.4531H20.3906C19.5313 39.4531 18.8281 38.75 18.8281 37.8906V36.25C18.8281 35.3906 19.5313 34.6875 20.3906 34.6875H29.6094C30.4688 34.6875 31.1719 35.3906 31.1719 36.25V37.8906C31.1719 38.75 30.4688 39.4531 29.6094 39.4531ZM20.3906 35.3906C19.9219 35.3906 19.6094 35.7812 19.6094 36.1719V37.8125C19.6094 38.2812 20 38.5937 20.3906 38.5937H29.6094C30.0781 38.5937 30.3906 38.2031 30.3906 37.8125V36.1719C30.3906 35.7031 30 35.3906 29.6094 35.3906H20.3906ZM11.1719 44.8437V47.6562C11.1719 48.75 10.2344 49.6875 9.14062 49.6875H7.8125C6.71875 49.6875 5.78125 48.75 5.78125 47.6562V44.8437" fill="#919191"/>
<path d="M9.14062 50H7.8125C6.48438 50 5.46875 48.9844 5.46875 47.7344V44.9219H6.01562V47.7344C6.01562 48.6719 6.79687 49.4531 7.73437 49.4531H9.0625C10 49.4531 10.7812 48.6719 10.7812 47.7344V44.9219H11.3281V47.7344C11.4844 48.9844 10.3906 50 9.14062 50ZM44.2188 44.8438V47.6562C44.2188 48.75 43.2812 49.6875 42.1875 49.6875H40.8594C39.7656 49.6875 38.8281 48.75 38.8281 47.6562V44.8438" fill="#919191"/>
<path d="M42.1875 50H40.8594C39.6094 50 38.5938 48.9844 38.5938 47.7344V44.9219H39.1406V47.7344C39.1406 48.6719 39.9219 49.4531 40.8594 49.4531H42.1875C43.125 49.4531 43.9062 48.6719 43.9062 47.7344V44.9219H44.4531V47.7344C44.4531 48.9844 43.4375 50 42.1875 50Z" fill="#919191"/>
<path d="M25 9.60938C25.6041 9.60938 26.0938 9.11969 26.0938 8.51562C26.0938 7.91156 25.6041 7.42188 25 7.42188C24.3959 7.42188 23.9062 7.91156 23.9062 8.51562C23.9062 9.11969 24.3959 9.60938 25 9.60938Z" fill="white"/>
<path d="M23.75 22.8906C23.75 23.5156 24.2187 23.9844 24.8437 23.9844C25.4687 23.9844 25.9375 23.5156 25.9375 22.8906C25.9375 22.2656 25.4687 21.7969 24.8437 21.7969C24.2969 21.7969 23.75 22.2656 23.75 22.8906Z" fill="white"/>
<path d="M23.6719 37.0313C23.6719 37.6563 24.1406 38.125 24.7656 38.125C25.3906 38.125 25.8594 37.6563 25.8594 37.0313C25.8594 36.4063 25.3906 35.9375 24.7656 35.9375C24.1406 35.9375 23.6719 36.4063 23.6719 37.0313Z" fill="white"/>
</svg>
