<svg width="100" height="100" viewBox="0 0 100 100" fill="none" xmlns="http://www.w3.org/2000/svg">
<g clip-path="url(#clip0_379_1157)">
<rect width="100" height="100" fill="#F0F0F0"/>
<path d="M77.08 85.52V86.97H69.36V70.46C71.7408 72.186 73.6808 74.4493 75.0222 77.0662C76.3636 79.683 77.0687 82.5794 77.08 85.52V85.52ZM31.55 70.46V86.97H23.82V85.52C23.8317 82.5784 24.5379 79.6811 25.8812 77.0641C27.2244 74.4471 29.1668 72.1843 31.55 70.46V70.46ZM40.45 67.06V74.71C40.45 77.3754 41.5088 79.9317 43.3936 81.8164C45.2783 83.7012 47.8346 84.76 50.5 84.76C53.1654 84.76 55.7217 83.7012 57.6064 81.8164C59.4912 79.9317 60.55 77.3754 60.55 74.71V67.06L61.11 67.14C61.55 67.2 61.98 67.27 62.4 67.35L63.1 67.52C63.5 67.62 63.89 67.73 64.27 67.86L64.96 68.09L65.41 68.28V100.44H35.55V68.28L35.99 68.09L36.68 67.85C37.0733 67.73 37.4633 67.62 37.85 67.52L38.55 67.35C38.9833 67.27 39.4133 67.2 39.84 67.14L40.45 67.06Z" fill="#6C95A4"/>
<path d="M79.9 33.14C79.8911 34.8903 79.4405 36.6101 78.59 38.14C78.1864 36.7346 77.4519 35.4465 76.448 34.3834C75.444 33.3203 74.2 32.5133 72.82 32.03L72.74 31.93L67.45 26.79C67.1924 26.5346 66.8702 26.3541 66.5179 26.2678C66.1656 26.1815 65.7965 26.1926 65.45 26.3C63.66 26.82 61.28 25.91 58.75 24.94C56.1022 23.7674 53.262 23.0895 50.37 22.94C47.4812 23.0896 44.6444 23.7675 42 24.94C39.47 25.94 37.08 26.82 35.29 26.3C34.9435 26.1926 34.5744 26.1815 34.2221 26.2678C33.8698 26.3541 33.5476 26.5346 33.29 26.79L28.16 31.92L28.07 32.03C26.6939 32.5183 25.4538 33.3271 24.4523 34.3895C23.4507 35.452 22.7164 36.7376 22.31 38.14C21.4623 36.609 21.0119 34.89 21 33.14C21 23.69 34.21 16 50.45 16C66.69 16 79.9 23.69 79.9 33.14V33.14Z" fill="#999999"/>
<path d="M56.5 66.95V74.71C56.5 76.3146 55.8626 77.8534 54.728 78.988C53.5934 80.1226 52.0546 80.76 50.45 80.76C48.8454 80.76 47.3066 80.1226 46.172 78.988C45.0374 77.8534 44.4 76.3146 44.4 74.71V66.95H51.4H56.5ZM69.36 90.97H77.08V100.44H69.36V90.97ZM23.82 90.97H31.55V100.44H23.82V90.97ZM58.94 37.85C58.3878 37.848 57.8474 38.01 57.3873 38.3153C56.9271 38.6207 56.568 39.0557 56.3553 39.5654C56.1426 40.075 56.0859 40.6363 56.1924 41.1781C56.2989 41.72 56.5638 42.2181 56.9536 42.6093C57.3434 43.0004 57.8405 43.2672 58.382 43.3756C58.9235 43.4841 59.485 43.4294 59.9954 43.2186C60.5058 43.0077 60.9421 42.6501 61.2491 42.1911C61.5561 41.732 61.72 41.1922 61.72 40.64C61.72 39.9018 61.4274 39.1936 60.9064 38.6707C60.3853 38.1478 59.6782 37.8526 58.94 37.85V37.85ZM60.33 32.55H57.54C57.0096 32.55 56.5009 32.7607 56.1258 33.1358C55.7507 33.5109 55.54 34.0196 55.54 34.55C55.54 35.0804 55.7507 35.5891 56.1258 35.9642C56.5009 36.3393 57.0096 36.55 57.54 36.55H60.33C60.8604 36.55 61.3691 36.3393 61.7442 35.9642C62.1193 35.5891 62.33 35.0804 62.33 34.55C62.33 34.0196 62.1193 33.5109 61.7442 33.1358C61.3691 32.7607 60.8604 32.55 60.33 32.55ZM35.45 30.39C38.14 30.73 40.86 29.69 43.45 28.68C45.6588 27.6748 48.0293 27.072 50.45 26.9C52.8709 27.0708 55.2416 27.6736 57.45 28.68C60.09 29.68 62.81 30.73 65.45 30.39L68.93 33.78C68.9696 34.2259 69.1577 34.6456 69.4641 34.9719C69.7705 35.2982 70.1775 35.5124 70.62 35.58C71.6095 35.7358 72.5315 36.1784 73.2719 36.8531C74.0124 37.5277 74.5386 38.4047 74.7856 39.3754C75.0325 40.3462 74.9893 41.368 74.6612 42.3145C74.3332 43.2609 73.7347 44.0903 72.94 44.7C73.2093 43.0033 73.343 41.2879 73.34 39.57C73.34 39.0396 73.1293 38.5309 72.7542 38.1558C72.3791 37.7807 71.8704 37.57 71.34 37.57C70.8096 37.57 70.3009 37.7807 69.9258 38.1558C69.5507 38.5309 69.34 39.0396 69.34 39.57C69.3585 43.5337 68.5265 47.4553 66.9 51.07C63.71 58.07 57.9 62.52 51.45 62.95H49.45C43.06 62.52 37.22 58.07 34.03 51.1C32.3854 47.4796 31.5428 43.5464 31.56 39.57C31.56 39.0396 31.3493 38.5309 30.9742 38.1558C30.5991 37.7807 30.0904 37.57 29.56 37.57C29.0296 37.57 28.5209 37.7807 28.1458 38.1558C27.7707 38.5309 27.56 39.0396 27.56 39.57C27.5603 41.2882 27.6974 43.0036 27.97 44.7C27.1697 44.0943 26.5659 43.266 26.2343 42.3187C25.9026 41.3714 25.8578 40.3474 26.1055 39.3748C26.3532 38.4022 26.8824 37.5243 27.6267 36.851C28.3711 36.1778 29.2975 35.7391 30.29 35.59C30.734 35.5219 31.1422 35.3064 31.4488 34.978C31.7554 34.6497 31.9425 34.2277 31.98 33.78L35.45 30.39ZM41.97 37.85C41.4178 37.848 40.8774 38.01 40.4172 38.3153C39.9571 38.6207 39.598 39.0557 39.3853 39.5654C39.1726 40.075 39.1159 40.6363 39.2224 41.1781C39.3289 41.72 39.5939 42.2181 39.9836 42.6093C40.3734 43.0004 40.8705 43.2672 41.412 43.3756C41.9535 43.4841 42.515 43.4294 43.0254 43.2186C43.5358 43.0077 43.9721 42.6501 44.2791 42.1911C44.5861 41.732 44.75 41.1922 44.75 40.64C44.75 39.9018 44.4574 39.1936 43.9364 38.6707C43.4153 38.1478 42.7082 37.8526 41.97 37.85ZM38.75 36.55H48.45V44.41C48.45 44.9404 48.6607 45.4491 49.0358 45.8242C49.4109 46.1993 49.9196 46.41 50.45 46.41C50.9804 46.41 51.4891 46.1993 51.8642 45.8242C52.2393 45.4491 52.45 44.9404 52.45 44.41V34.55C52.45 34.0196 52.2393 33.5109 51.8642 33.1358C51.4891 32.7607 50.9804 32.55 50.45 32.55H38.75C38.2196 32.55 37.7109 32.7607 37.3358 33.1358C36.9607 33.5109 36.75 34.0196 36.75 34.55C36.75 35.0804 36.9607 35.5891 37.3358 35.9642C37.7109 36.3393 38.2196 36.55 38.75 36.55V36.55ZM53.84 54.62C53.84 54.0896 53.6293 53.5809 53.2542 53.2058C52.8791 52.8307 52.3704 52.62 51.84 52.62H49.06C48.5296 52.62 48.0209 52.8307 47.6458 53.2058C47.2707 53.5809 47.06 54.0896 47.06 54.62C47.06 55.1504 47.2707 55.6591 47.6458 56.0342C48.0209 56.4093 48.5296 56.62 49.06 56.62H51.84C52.3704 56.62 52.8791 56.4093 53.2542 56.0342C53.6293 55.6591 53.84 55.1504 53.84 54.62Z" fill="#F9D4B2"/>
<path d="M83.9 33.14C83.9 37.74 81.65 42.08 77.4 45.72C76.0978 47.6788 74.0805 49.05 71.78 49.54C71.431 50.6272 71.0169 51.6925 70.54 52.73C68.6922 56.9217 65.7576 60.5434 62.04 63.22C64.1828 63.5543 66.265 64.2012 68.22 65.14C72.062 66.9854 75.3062 69.8761 77.5807 73.4807C79.8552 77.0853 81.068 81.2578 81.08 85.52V102.44C81.08 102.97 80.8693 103.479 80.4942 103.854C80.1191 104.229 79.6104 104.44 79.08 104.44H21.82C21.2896 104.44 20.7809 104.229 20.4058 103.854C20.0307 103.479 19.82 102.97 19.82 102.44V85.52C19.832 81.2578 21.0448 77.0853 23.3193 73.4807C25.5938 69.8761 28.838 66.9854 32.68 65.14C34.638 64.1998 36.7237 63.5529 38.87 63.22C35.1666 60.5503 32.2399 56.9437 30.39 52.77C29.9064 51.7192 29.4857 50.6407 29.13 49.54C26.8345 49.0446 24.8201 47.679 23.51 45.73C19.26 42.09 17 37.73 17 33.14C17 21.29 31.69 12 50.45 12C69.21 12 83.9 21.29 83.9 33.14ZM78.59 38.14C79.4405 36.6101 79.8911 34.8903 79.9 33.14C79.9 23.69 66.69 16 50.45 16C34.21 16 21 23.69 21 33.14C21.0119 34.89 21.4623 36.609 22.31 38.14C22.7164 36.7376 23.4507 35.452 24.4523 34.3895C25.4538 33.3271 26.6939 32.5183 28.07 32.03L28.16 31.92L33.45 26.79C33.7076 26.5346 34.0298 26.3541 34.3821 26.2678C34.7344 26.1815 35.1035 26.1926 35.45 26.3C37.24 26.82 39.63 25.91 42.16 24.94C44.8044 23.7675 47.6412 23.0896 50.53 22.94C53.422 23.0895 56.2622 23.7674 58.91 24.94C61.44 25.94 63.82 26.82 65.61 26.3C65.9565 26.1926 66.3256 26.1815 66.6779 26.2678C67.0302 26.3541 67.3524 26.5346 67.61 26.79L72.86 31.92L72.94 32.02C74.2977 32.5193 75.5177 33.3334 76.4998 34.3955C77.482 35.4576 78.1983 36.7374 78.59 38.13V38.14ZM77.08 100.44V90.97H69.36V100.44H77.08ZM77.08 86.97V85.52C77.0687 82.5794 76.3636 79.683 75.0222 77.0662C73.6808 74.4493 71.7408 72.186 69.36 70.46V86.97H77.08ZM74.95 40.64C74.9503 39.4188 74.5141 38.2377 73.7201 37.3098C72.9261 36.3819 71.8266 35.7684 70.62 35.58C70.1775 35.5124 69.7705 35.2983 69.4641 34.9719C69.1577 34.6456 68.9696 34.2259 68.93 33.78L65.45 30.39C62.76 30.73 60.04 29.69 57.45 28.68C55.2416 27.6736 52.8709 27.0708 50.45 26.9C48.0293 27.072 45.6588 27.6748 43.45 28.68C40.81 29.68 38.09 30.73 35.45 30.39L31.98 33.78C31.9425 34.2277 31.7554 34.6497 31.4488 34.978C31.1422 35.3064 30.734 35.5219 30.29 35.59C29.2975 35.7391 28.3711 36.1778 27.6267 36.851C26.8824 37.5243 26.3532 38.4022 26.1055 39.3748C25.8578 40.3474 25.9026 41.3714 26.2343 42.3187C26.5659 43.266 27.1697 44.0943 27.97 44.7C27.6974 43.0036 27.5603 41.2882 27.56 39.57C27.56 39.0396 27.7707 38.5309 28.1458 38.1558C28.5209 37.7807 29.0296 37.57 29.56 37.57C30.0904 37.57 30.5991 37.7807 30.9742 38.1558C31.3493 38.5309 31.56 39.0396 31.56 39.57C31.5428 43.5464 32.3854 47.4796 34.03 51.1C37.22 58.1 43.03 62.52 49.45 62.95H51.45C57.86 62.52 63.71 58.06 66.9 51.07C68.5265 47.4553 69.3585 43.5337 69.34 39.57C69.34 39.0396 69.5507 38.5309 69.9258 38.1558C70.3009 37.7807 70.8096 37.57 71.34 37.57C71.8704 37.57 72.3791 37.7807 72.7542 38.1558C73.1293 38.5309 73.34 39.0396 73.34 39.57C73.343 41.2879 73.2092 43.0033 72.94 44.7C73.5646 44.2233 74.0709 43.6091 74.4195 42.9049C74.7681 42.2008 74.9497 41.4257 74.95 40.64ZM65.36 100.44V68.28L64.91 68.09L64.22 67.86C63.84 67.73 63.45 67.62 63.05 67.52L62.35 67.35C61.93 67.27 61.5 67.2 61.06 67.14L60.5 67.06V74.71C60.5 77.3754 59.4412 79.9317 57.5564 81.8164C55.6717 83.7012 53.1154 84.76 50.45 84.76C47.7846 84.76 45.2283 83.7012 43.3436 81.8164C41.4588 79.9317 40.4 77.3754 40.4 74.71V67.06L39.84 67.14C39.4133 67.2 38.9833 67.27 38.55 67.35L37.85 67.52C37.4567 67.62 37.0667 67.73 36.68 67.85L35.99 68.09L35.55 68.28V100.44H65.36ZM56.5 74.71V66.95H44.45V74.71C44.45 75.5045 44.6065 76.2912 44.9105 77.0252C45.2146 77.7593 45.6602 78.4262 46.222 78.988C46.7838 79.5498 47.4507 79.9954 48.1848 80.2995C48.9188 80.6035 49.7055 80.76 50.5 80.76C51.2945 80.76 52.0812 80.6035 52.8152 80.2995C53.5493 79.9954 54.2162 79.5498 54.778 78.988C55.3398 78.4262 55.7854 77.7593 56.0895 77.0252C56.3935 76.2912 56.55 75.5045 56.55 74.71H56.5ZM31.55 100.44V90.97H23.82V100.44H31.55ZM31.55 86.97V70.46C29.1668 72.1843 27.2244 74.4471 25.8812 77.0641C24.5379 79.6811 23.8317 82.5784 23.82 85.52V86.97H31.55Z" fill="black"/>
<path d="M60.33 32.55C60.8604 32.55 61.3691 32.7607 61.7442 33.1358C62.1193 33.5108 62.33 34.0196 62.33 34.55C62.33 35.0804 62.1193 35.5891 61.7442 35.9642C61.3691 36.3393 60.8604 36.55 60.33 36.55H57.54C57.0096 36.55 56.5009 36.3393 56.1258 35.9642C55.7507 35.5891 55.54 35.0804 55.54 34.55C55.54 34.0196 55.7507 33.5108 56.1258 33.1358C56.5009 32.7607 57.0096 32.55 57.54 32.55H60.33ZM58.94 37.85C59.4918 37.85 60.0312 38.0136 60.49 38.3202C60.9489 38.6268 61.3065 39.0625 61.5176 39.5723C61.7288 40.0821 61.784 40.6431 61.6764 41.1843C61.5687 41.7255 61.303 42.2226 60.9128 42.6128C60.5226 43.003 60.0255 43.2687 59.4843 43.3764C58.9431 43.484 58.3821 43.4288 57.8723 43.2176C57.3625 43.0064 56.9268 42.6488 56.6202 42.19C56.3136 41.7312 56.15 41.1918 56.15 40.64C56.1487 40.2732 56.2199 39.9098 56.3597 39.5707C56.4994 39.2316 56.7049 38.9236 56.9642 38.6642C57.2236 38.4049 57.5317 38.1994 57.8708 38.0597C58.2098 37.9199 58.5732 37.8487 58.94 37.85V37.85ZM51.84 52.62C52.3704 52.62 52.8791 52.8307 53.2542 53.2058C53.6293 53.5808 53.84 54.0896 53.84 54.62C53.84 55.1504 53.6293 55.6591 53.2542 56.0342C52.8791 56.4093 52.3704 56.62 51.84 56.62H49.06C48.5296 56.62 48.0209 56.4093 47.6458 56.0342C47.2707 55.6591 47.06 55.1504 47.06 54.62C47.06 54.0896 47.2707 53.5808 47.6458 53.2058C48.0209 52.8307 48.5296 52.62 49.06 52.62H51.84ZM52.45 34.55V44.41C52.45 44.9404 52.2393 45.4491 51.8642 45.8242C51.4891 46.1993 50.9804 46.41 50.45 46.41C49.9196 46.41 49.4109 46.1993 49.0358 45.8242C48.6607 45.4491 48.45 44.9404 48.45 44.41V36.55H38.75C38.2196 36.55 37.7109 36.3393 37.3358 35.9642C36.9607 35.5891 36.75 35.0804 36.75 34.55C36.75 34.0196 36.9607 33.5108 37.3358 33.1358C37.7109 32.7607 38.2196 32.55 38.75 32.55H50.45C50.9804 32.55 51.4891 32.7607 51.8642 33.1358C52.2393 33.5108 52.45 34.0196 52.45 34.55Z" fill="black"/>
<path d="M41.97 37.85C42.5218 37.85 43.0612 38.0136 43.5201 38.3202C43.9789 38.6268 44.3365 39.0625 44.5476 39.5723C44.7588 40.0821 44.8141 40.6431 44.7064 41.1843C44.5987 41.7255 44.333 42.2226 43.9428 42.6128C43.5527 43.003 43.0555 43.2687 42.5143 43.3764C41.9731 43.484 41.4121 43.4288 40.9023 43.2176C40.3925 43.0064 39.9568 42.6488 39.6502 42.19C39.3436 41.7312 39.18 41.1918 39.18 40.64C39.1787 40.2732 39.25 39.9098 39.3897 39.5707C39.5294 39.2317 39.7349 38.9236 39.9942 38.6642C40.2536 38.4049 40.5617 38.1994 40.9008 38.0597C41.2399 37.9199 41.6033 37.8487 41.97 37.85V37.85Z" fill="black"/>
</g>
<defs>
<clipPath id="clip0_379_1157">
<rect width="100" height="100" fill="white"/>
</clipPath>
</defs>
</svg>
