<svg width="50" height="50" viewBox="0 0 50 50" fill="none" xmlns="http://www.w3.org/2000/svg">
<path d="M10.9375 40.625V39.8438C10.9375 37.5645 11.8429 35.3787 13.4546 33.7671C15.0662 32.1554 17.252 31.25 19.5312 31.25H30.4688C31.5973 31.25 32.7148 31.4723 33.7574 31.9042C34.8001 32.336 35.7474 32.969 36.5455 33.7671C37.3435 34.5651 37.9765 35.5124 38.4083 36.5551C38.8402 37.5977 39.0625 38.7152 39.0625 39.8438V40.625H10.9375Z" fill="white"/>
<path d="M19.5312 31.25V28.9062C19.5312 28.4918 19.6959 28.0944 19.9889 27.8014C20.2819 27.5084 20.6793 27.3438 21.0938 27.3438H28.9062C29.3207 27.3438 29.7181 27.5084 30.0111 27.8014C30.3041 28.0944 30.4688 28.4918 30.4688 28.9062V31.25H19.5312Z" fill="#929292" fill-opacity="0.8"/>
<path d="M21.875 27.3438V3.125C21.875 2.7106 22.0396 2.31317 22.3326 2.02015C22.6257 1.72712 23.0231 1.5625 23.4375 1.5625H26.5625C26.9769 1.5625 27.3743 1.72712 27.6674 2.02015C27.9604 2.31317 28.125 2.7106 28.125 3.125V27.3438H21.875Z" fill="#E6E6E6"/>
<path d="M25.7812 3.90625H24.2188V5.46875H25.7812V3.90625Z" fill="#929292" fill-opacity="0.8"/>
<path d="M28.125 7.03125H21.875V8.59375H28.125V7.03125Z" fill="#929292" fill-opacity="0.8"/>
<path d="M40.625 40.625H9.375C7.21764 40.625 5.46875 42.3739 5.46875 44.5312C5.46875 46.6886 7.21764 48.4375 9.375 48.4375H40.625C42.7824 48.4375 44.5312 46.6886 44.5312 44.5312C44.5312 42.3739 42.7824 40.625 40.625 40.625Z" fill="#979797"/>
<path d="M5.46875 44.5312C5.46843 44.7936 5.4946 45.0554 5.54688 45.3125H44.4531C44.5584 44.797 44.5584 44.2655 44.4531 43.75H5.54688C5.49466 44.0071 5.46849 44.2689 5.46875 44.5312Z" fill="white"/>
<path opacity="0.2" d="M30.4688 31.25H19.5313C18.8706 31.2525 18.2123 31.3311 17.5696 31.4844V32.5719C17.5696 33.3547 17.7238 34.1299 18.0234 34.8532C18.323 35.5765 18.7622 36.2336 19.3158 36.7872C19.8694 37.3407 20.5266 37.7798 21.2499 38.0793C21.9732 38.3788 22.7484 38.5329 23.5313 38.5328H38.9524C38.6407 36.506 37.614 34.6576 36.058 33.3218C34.5021 31.9861 32.5195 31.2512 30.4688 31.25Z" fill="white"/>
</svg>
