<svg width="40" height="40" viewBox="0 0 40 40" fill="none" xmlns="http://www.w3.org/2000/svg">
<path d="M25.625 37.5H14.375C13.7478 37.5308 13.1337 37.3132 12.6657 36.8944C12.1978 36.4756 11.9137 35.8893 11.875 35.2625V28.8375C11.952 27.7506 12.4547 26.7381 13.2738 26.0196C14.0929 25.3011 15.1624 24.9347 16.25 25H23.75C24.8376 24.9347 25.9071 25.3011 26.7262 26.0196C27.5453 26.7381 28.0479 27.7506 28.125 28.8375V35.2625C28.0863 35.8893 27.8022 36.4756 27.3343 36.8944C26.8663 37.3132 26.2522 37.5308 25.625 37.5ZM16.25 26.25C15.4942 26.187 14.7438 26.4226 14.1597 26.9063C13.5755 27.39 13.2041 28.0832 13.125 28.8375V35.2625C13.1626 35.558 13.3145 35.8269 13.5483 36.0116C13.782 36.1962 14.0788 36.2818 14.375 36.25H25.625C25.9212 36.2818 26.218 36.1962 26.4517 36.0116C26.6854 35.8269 26.8374 35.558 26.875 35.2625V28.8375C26.7959 28.0832 26.4245 27.39 25.8403 26.9063C25.2562 26.4226 24.5058 26.187 23.75 26.25H16.25ZM20 22.8125C19.3201 22.8125 18.6555 22.6109 18.0902 22.2332C17.5249 21.8554 17.0843 21.3186 16.8242 20.6905C16.564 20.0623 16.4959 19.3712 16.6285 18.7044C16.7612 18.0376 17.0886 17.4251 17.5693 16.9443C18.0501 16.4636 18.6626 16.1362 19.3294 16.0035C19.9962 15.8709 20.6873 15.939 21.3155 16.1992C21.9436 16.4593 22.4805 16.8999 22.8582 17.4652C23.2359 18.0305 23.4375 18.6951 23.4375 19.375C23.4375 20.2867 23.0753 21.161 22.4307 21.8057C21.786 22.4503 20.9117 22.8125 20 22.8125ZM20 17.1875C19.5673 17.1875 19.1444 17.3158 18.7847 17.5561C18.425 17.7965 18.1446 18.1382 17.979 18.5379C17.8134 18.9376 17.7701 19.3774 17.8545 19.8017C17.9389 20.2261 18.1473 20.6159 18.4532 20.9218C18.7591 21.2277 19.1489 21.436 19.5732 21.5205C19.9976 21.6049 20.4374 21.5615 20.8371 21.396C21.2368 21.2304 21.5785 20.95 21.8188 20.5903C22.0592 20.2306 22.1875 19.8076 22.1875 19.375C22.1842 18.7958 21.9527 18.2413 21.5432 17.8318C21.1336 17.4223 20.5791 17.1908 20 17.1875ZM11.25 18.75C11.1455 18.749 11.0427 18.7233 10.95 18.675L8.12499 17.125L5.33749 18.675C5.23767 18.7357 5.12308 18.7678 5.00624 18.7678C4.88941 18.7678 4.77482 18.7357 4.67499 18.675C4.57792 18.6081 4.50175 18.515 4.4553 18.4066C4.40885 18.2983 4.39401 18.1789 4.41249 18.0625L4.99999 14.7125L2.67499 12.375C2.59021 12.2977 2.52884 12.1981 2.4979 12.0876C2.46696 11.9771 2.46769 11.8601 2.49999 11.75C2.53477 11.6414 2.59857 11.5444 2.6845 11.4695C2.77042 11.3946 2.8752 11.3446 2.98749 11.325L6.11249 10.85L7.56249 7.86249C7.6196 7.76387 7.70163 7.682 7.80035 7.62508C7.89908 7.56817 8.01104 7.53821 8.12499 7.53821C8.23895 7.53821 8.35091 7.56817 8.44963 7.62508C8.54836 7.682 8.63039 7.76387 8.68749 7.86249L10.1 10.85L13.225 11.325C13.344 11.3381 13.4568 11.3851 13.5499 11.4605C13.6429 11.5358 13.7124 11.6363 13.75 11.75C13.7869 11.8567 13.7936 11.9716 13.7694 12.0819C13.7451 12.1922 13.6908 12.2936 13.6125 12.375L11.25 14.7125L11.8 18.025C11.8185 18.1414 11.8036 18.2608 11.7572 18.3691C11.7107 18.4775 11.6346 18.5706 11.5375 18.6375C11.4521 18.6975 11.3535 18.7361 11.25 18.75ZM8.12499 15.7875C8.23156 15.7855 8.33619 15.816 8.42499 15.875L10.3875 16.95L9.99999 14.6125C9.98119 14.5164 9.98616 14.4172 10.0145 14.3236C10.0428 14.2299 10.0936 14.1445 10.1625 14.075L11.825 12.375L9.57499 12.0375C9.47382 12.0208 9.37805 11.9803 9.29549 11.9195C9.21294 11.8587 9.14595 11.7792 9.09999 11.6875L8.12499 9.59999L7.14999 11.6875C7.10404 11.7792 7.03705 11.8587 6.95449 11.9195C6.87194 11.9803 6.77616 12.0208 6.67499 12.0375L4.42499 12.375L6.07499 14.075C6.14387 14.1445 6.19468 14.2299 6.223 14.3236C6.25133 14.4172 6.2563 14.5164 6.23749 14.6125L5.86249 16.95L7.82499 15.875C7.91379 15.816 8.01843 15.7855 8.12499 15.7875ZM35 18.75C34.8955 18.749 34.7927 18.7233 34.7 18.675L31.875 17.125L29.0875 18.675C28.9877 18.7357 28.8731 18.7678 28.7562 18.7678C28.6394 18.7678 28.5248 18.7357 28.425 18.675C28.3279 18.6081 28.2518 18.515 28.2053 18.4066C28.1589 18.2983 28.144 18.1789 28.1625 18.0625L28.75 14.7125L26.425 12.375C26.3402 12.2977 26.2788 12.1981 26.2479 12.0876C26.217 11.9771 26.2177 11.8601 26.25 11.75C26.2848 11.6414 26.3486 11.5444 26.4345 11.4695C26.5204 11.3946 26.6252 11.3446 26.7375 11.325L29.8625 10.85L31.275 7.86249C31.3321 7.76387 31.4141 7.682 31.5129 7.62508C31.6116 7.56817 31.7235 7.53821 31.8375 7.53821C31.9515 7.53821 32.0634 7.56817 32.1621 7.62508C32.2609 7.682 32.3429 7.76387 32.4 7.86249L33.8125 10.85L36.9375 11.325C37.0631 11.331 37.184 11.3748 37.2844 11.4506C37.3847 11.5264 37.4599 11.6308 37.5 11.75C37.5369 11.8567 37.5436 11.9716 37.5194 12.0819C37.4951 12.1922 37.4408 12.2936 37.3625 12.375L35 14.7125L35.55 18.025C35.5685 18.1414 35.5536 18.2608 35.5072 18.3691C35.4607 18.4775 35.3846 18.5706 35.2875 18.6375C35.2021 18.6975 35.1035 18.7361 35 18.75ZM31.875 15.7875C31.9816 15.7855 32.0862 15.816 32.175 15.875L34.1375 16.95L33.75 14.6125C33.7312 14.5164 33.7362 14.4172 33.7645 14.3236C33.7928 14.2299 33.8436 14.1445 33.9125 14.075L35.575 12.375L33.325 12.0375C33.2238 12.0208 33.128 11.9803 33.0455 11.9195C32.9629 11.8587 32.8959 11.7792 32.85 11.6875L31.875 9.59999L30.9 11.6875C30.854 11.7792 30.787 11.8587 30.7045 11.9195C30.6219 11.9803 30.5262 12.0208 30.425 12.0375L28.175 12.375L29.825 14.075C29.8939 14.1445 29.9447 14.2299 29.973 14.3236C30.0013 14.4172 30.0063 14.5164 29.9875 14.6125L29.6125 16.95L31.575 15.875C31.6638 15.816 31.7684 15.7855 31.875 15.7875ZM23.0875 13.75C22.983 13.749 22.8802 13.7233 22.7875 13.675L20 12.125L17.2125 13.675C17.1127 13.7357 16.9981 13.7678 16.8812 13.7678C16.7644 13.7678 16.6498 13.7357 16.55 13.675C16.4529 13.6081 16.3768 13.515 16.3303 13.4066C16.2839 13.2983 16.269 13.1789 16.2875 13.0625L16.8375 9.74999L14.55 7.37499C14.4717 7.29361 14.4174 7.19217 14.3931 7.08187C14.3689 6.97157 14.3756 6.85672 14.4125 6.74999C14.4473 6.64142 14.5111 6.54444 14.597 6.46953C14.6829 6.39462 14.7877 6.34463 14.9 6.32499L18.025 5.84999L19.4375 2.86249C19.4946 2.76387 19.5766 2.682 19.6754 2.62508C19.7741 2.56817 19.886 2.53821 20 2.53821C20.114 2.53821 20.2259 2.56817 20.3246 2.62508C20.4234 2.682 20.5054 2.76387 20.5625 2.86249L21.975 5.84999L25.1 6.32499C25.2123 6.34463 25.3171 6.39462 25.403 6.46953C25.4889 6.54444 25.5527 6.64142 25.5875 6.74999C25.6244 6.85672 25.6311 6.97157 25.6069 7.08187C25.5826 7.19217 25.5283 7.29361 25.45 7.37499L23.1625 9.71249L23.75 13.025C23.7685 13.1414 23.7536 13.2608 23.7072 13.3691C23.6607 13.4775 23.5846 13.5706 23.4875 13.6375C23.3701 13.7177 23.2295 13.7573 23.0875 13.75ZM20 10.7875C20.1066 10.7855 20.2112 10.816 20.3 10.875L22.2625 11.95L21.8875 9.61249C21.8687 9.51644 21.8737 9.41724 21.902 9.32355C21.9303 9.22987 21.9811 9.14453 22.05 9.07499L23.75 7.37499L21.5 7.03749C21.3988 7.02075 21.303 6.98032 21.2205 6.91949C21.1379 6.85866 21.0709 6.77916 21.025 6.68749L20 4.59999L19.025 6.68749C18.979 6.77916 18.912 6.85866 18.8295 6.91949C18.7469 6.98032 18.6512 7.02075 18.55 7.03749L16.25 7.37499L17.9 9.07499C17.9689 9.14453 18.0197 9.22987 18.048 9.32355C18.0763 9.41724 18.0813 9.51644 18.0625 9.61249L17.6875 11.95L19.65 10.875C19.7527 10.8054 19.8767 10.7744 20 10.7875Z" fill="white"/>
<path d="M20 35C19.918 35.001 19.8368 34.9848 19.7614 34.9525C19.6861 34.9202 19.6183 34.8725 19.5625 34.8125L17.6875 32.9375C17.6286 32.8808 17.5817 32.8128 17.5495 32.7377C17.5173 32.6626 17.5005 32.5817 17.5 32.5L18.125 25.625C18.1416 25.4592 18.2233 25.3068 18.3523 25.2014C18.4812 25.0959 18.6467 25.0459 18.8125 25.0625C18.9783 25.0791 19.1306 25.1608 19.2361 25.2897C19.3416 25.4187 19.3916 25.5842 19.375 25.75L18.75 32.2625L20 33.5125L21.25 32.2625L20.65 25.6875C20.6432 25.6027 20.6534 25.5175 20.6801 25.4367C20.7067 25.356 20.7492 25.2814 20.8051 25.2173C20.8611 25.1533 20.9292 25.101 21.0056 25.0637C21.082 25.0264 21.1651 25.0047 21.25 25C21.4153 24.9859 21.5795 25.0368 21.7078 25.1418C21.8362 25.2468 21.9186 25.3977 21.9375 25.5625L22.5 32.5C22.5085 32.5921 22.4961 32.6849 22.4636 32.7715C22.4311 32.8581 22.3795 32.9362 22.3125 33L20.4375 34.875C20.3766 34.9239 20.3065 34.9601 20.2313 34.9816C20.1562 35.003 20.0776 35.0093 20 35Z" fill="white"/>
</svg>
