<svg width="40" height="40" viewBox="0 0 40 40" fill="none" xmlns="http://www.w3.org/2000/svg">
<path d="M20 1.25C16.2916 1.25 12.6665 2.34967 9.58307 4.40994C6.49964 6.47022 4.09641 9.39857 2.67727 12.8247C1.25812 16.2508 0.886812 20.0208 1.61028 23.6579C2.33376 27.2951 4.11952 30.636 6.74176 33.2583C9.36399 35.8805 12.7049 37.6663 16.3421 38.3897C19.9792 39.1132 23.7492 38.7419 27.1753 37.3227C30.6014 35.9036 33.5298 33.5004 35.5901 30.4169C37.6503 27.3335 38.75 23.7084 38.75 20C38.7444 15.0289 36.7671 10.263 33.252 6.74796C29.737 3.23287 24.9711 1.25562 20 1.25ZM20 37.5C16.5388 37.5 13.1554 36.4736 10.2775 34.5507C7.39967 32.6278 5.15665 29.8947 3.83212 26.697C2.50758 23.4993 2.16102 19.9806 2.83627 16.5859C3.51151 13.1913 5.17822 10.073 7.62564 7.62563C10.0731 5.17821 13.1913 3.5115 16.5859 2.83626C19.9806 2.16102 23.4993 2.50757 26.697 3.83211C29.8947 5.15664 32.6278 7.39966 34.5507 10.2775C36.4737 13.1554 37.5 16.5388 37.5 20C37.4947 24.6397 35.6493 29.0878 32.3685 32.3685C29.0878 35.6493 24.6397 37.4947 20 37.5Z" fill="white"/>
<path d="M20 3.75C16.7861 3.75 13.6443 4.70305 10.972 6.48862C8.29969 8.27419 6.21689 10.8121 4.98696 13.7814C3.75704 16.7507 3.43524 20.018 4.06225 23.1702C4.68926 26.3224 6.23692 29.2179 8.50952 31.4905C10.7821 33.7631 13.6776 35.3107 16.8298 35.9378C19.982 36.5648 23.2493 36.243 26.2186 35.013C29.1879 33.7831 31.7258 31.7003 33.5114 29.028C35.297 26.3557 36.25 23.2139 36.25 20C36.2452 15.6917 34.5316 11.5612 31.4852 8.51481C28.4388 5.46839 24.3083 3.7548 20 3.75ZM20 35C17.0333 35 14.1332 34.1203 11.6665 32.472C9.19972 30.8238 7.27713 28.4811 6.14181 25.7403C5.0065 22.9994 4.70945 19.9834 5.28823 17.0736C5.86701 14.1639 7.29562 11.4912 9.39341 9.3934C11.4912 7.29561 14.1639 5.867 17.0737 5.28822C19.9834 4.70944 22.9994 5.00649 25.7403 6.14181C28.4811 7.27712 30.8238 9.19971 32.472 11.6664C34.1203 14.1332 35 17.0333 35 20C34.9954 23.9768 33.4135 27.7894 30.6015 30.6015C27.7895 33.4135 23.9768 34.9954 20 35Z" fill="white"/>
<path d="M23.8469 17.5H21.3625L20.625 15.2313V12.5C20.625 12.3342 20.5592 12.1753 20.4419 12.0581C20.3247 11.9408 20.1658 11.875 20 11.875C19.8342 11.875 19.6753 11.9408 19.5581 12.0581C19.4408 12.1753 19.375 12.3342 19.375 12.5V15.2313L19.1875 15.7994L16.215 7.29375C16.1603 7.13727 16.0457 7.00893 15.8964 6.93697C15.747 6.865 15.5752 6.8553 15.4187 6.91C15.2623 6.9647 15.1339 7.07932 15.062 7.22865C14.99 7.37797 14.9803 7.54977 15.035 7.70625L18.4606 17.5H16.1531C16.0211 17.5 15.8925 17.5417 15.7857 17.6193C15.6789 17.6969 15.5994 17.8063 15.5586 17.9318C15.5178 18.0573 15.5178 18.1926 15.5586 18.3181C15.5994 18.4436 15.6788 18.553 15.7856 18.6306L17.7956 20.0912L17.0275 22.455C16.9869 22.5805 16.987 22.7156 17.0279 22.841C17.0688 22.9665 17.1483 23.0757 17.255 23.1532C17.3618 23.2307 17.4903 23.2724 17.6222 23.2724C17.7541 23.2724 17.8826 23.2306 17.9894 23.1531L20 21.6925L22.0106 23.1531C22.1174 23.2306 22.2459 23.2724 22.3778 23.2724C22.5097 23.2724 22.6382 23.2307 22.745 23.1532C22.8517 23.0757 22.9312 22.9665 22.9721 22.841C23.013 22.7156 23.0131 22.5805 22.9725 22.455L22.2044 20.0912L24.2144 18.6306C24.3212 18.553 24.4006 18.4436 24.4414 18.3181C24.4822 18.1926 24.4822 18.0573 24.4414 17.9318C24.4006 17.8063 24.3211 17.6969 24.2143 17.6193C24.1075 17.5417 23.9789 17.5 23.8469 17.5ZM20.875 20.045L21.1875 21.0112L20.3662 20.4144C20.2594 20.3367 20.1308 20.2949 19.9987 20.2949C19.8667 20.2949 19.7381 20.3367 19.6313 20.4144L18.81 21.0112L19.1225 20.045C19.1631 19.9195 19.1629 19.7844 19.1221 19.659C19.0812 19.5336 19.0017 19.4244 18.895 19.3469L18.0763 18.75H19.0919C19.2239 18.75 19.3524 18.7082 19.4592 18.6306C19.566 18.553 19.6455 18.4436 19.6862 18.3181L19.9987 17.3525L20.3113 18.3181C20.352 18.4436 20.4315 18.553 20.5383 18.6306C20.6451 18.7082 20.7736 18.75 20.9056 18.75H21.9213L21.1 19.3469C20.9937 19.4247 20.9147 19.5341 20.8743 19.6595C20.8339 19.7848 20.8342 19.9198 20.875 20.045ZM20 8.125C20.1658 8.125 20.3247 8.05915 20.4419 7.94194C20.5592 7.82473 20.625 7.66576 20.625 7.5V6.25C20.625 6.08424 20.5592 5.92527 20.4419 5.80806C20.3247 5.69085 20.1658 5.625 20 5.625C19.8342 5.625 19.6753 5.69085 19.5581 5.80806C19.4408 5.92527 19.375 6.08424 19.375 6.25V7.5C19.375 7.66576 19.4408 7.82473 19.5581 7.94194C19.6753 8.05915 19.8342 8.125 20 8.125ZM13.6662 7.77937C13.5828 7.637 13.4464 7.53341 13.2868 7.49123C13.1273 7.44904 12.9575 7.47168 12.8146 7.5542C12.6716 7.63673 12.5672 7.77243 12.5239 7.93171C12.4807 8.09099 12.5022 8.2609 12.5838 8.40437L13.2088 9.4875C13.2495 9.55915 13.304 9.62204 13.3691 9.67254C13.4343 9.72304 13.5088 9.76016 13.5883 9.78176C13.6679 9.80335 13.7509 9.809 13.8326 9.79838C13.9144 9.78775 13.9932 9.76107 14.0646 9.71985C14.136 9.67864 14.1985 9.62371 14.2486 9.55824C14.2986 9.49276 14.3352 9.41803 14.3563 9.33834C14.3774 9.25865 14.3825 9.17559 14.3713 9.09392C14.3601 9.01226 14.3329 8.93361 14.2912 8.8625L13.6662 7.77937ZM9.4875 13.2088L8.40437 12.5838C8.2609 12.5022 8.09099 12.4807 7.93171 12.5239C7.77243 12.5672 7.63673 12.6716 7.5542 12.8146C7.47168 12.9575 7.44904 13.1273 7.49123 13.2868C7.53341 13.4464 7.637 13.5828 7.77937 13.6662L8.8625 14.2912C8.95742 14.3463 9.06526 14.3752 9.175 14.375C9.31258 14.375 9.44631 14.3296 9.55546 14.2458C9.66461 14.1621 9.74307 14.0447 9.77868 13.9118C9.81428 13.7789 9.80505 13.6379 9.7524 13.5108C9.69976 13.3837 9.60664 13.2775 9.4875 13.2088ZM8.125 20C8.125 19.8342 8.05915 19.6753 7.94194 19.5581C7.82473 19.4408 7.66576 19.375 7.5 19.375H6.25C6.08424 19.375 5.92527 19.4408 5.80806 19.5581C5.69085 19.6753 5.625 19.8342 5.625 20C5.625 20.1658 5.69085 20.3247 5.80806 20.4419C5.92527 20.5592 6.08424 20.625 6.25 20.625H7.5C7.66576 20.625 7.82473 20.5592 7.94194 20.4419C8.05915 20.3247 8.125 20.1658 8.125 20ZM8.8625 25.7087L7.77937 26.3337C7.70772 26.3745 7.64483 26.429 7.59433 26.4941C7.54383 26.5593 7.50671 26.6338 7.48512 26.7133C7.46352 26.7929 7.45787 26.8759 7.4685 26.9576C7.47912 27.0394 7.50581 27.1182 7.54702 27.1896C7.58824 27.261 7.64316 27.3235 7.70864 27.3736C7.77411 27.4236 7.84885 27.4602 7.92853 27.4813C8.00822 27.5024 8.09129 27.5075 8.17295 27.4963C8.25462 27.4851 8.33327 27.4579 8.40437 27.4163L9.4875 26.7913C9.55915 26.7505 9.62204 26.696 9.67254 26.6309C9.72304 26.5657 9.76016 26.4912 9.78176 26.4117C9.80335 26.3321 9.809 26.2491 9.79838 26.1674C9.78775 26.0856 9.76107 26.0068 9.71985 25.9354C9.67864 25.864 9.62371 25.8015 9.55824 25.7514C9.49276 25.7014 9.41803 25.6648 9.33834 25.6437C9.25865 25.6226 9.17559 25.6175 9.09392 25.6287C9.01226 25.6399 8.93361 25.6671 8.8625 25.7087ZM14.0625 30.2837C13.919 30.2009 13.7484 30.1784 13.5883 30.2213C13.4281 30.2642 13.2916 30.369 13.2088 30.5125L12.5838 31.5956C12.5421 31.6667 12.5149 31.7454 12.5037 31.827C12.4925 31.9087 12.4976 31.9918 12.5187 32.0715C12.5398 32.1512 12.5764 32.2259 12.6264 32.2914C12.6765 32.3568 12.739 32.4118 12.8104 32.453C12.8818 32.4942 12.9606 32.5209 13.0424 32.5315C13.1241 32.5421 13.2071 32.5365 13.2867 32.5149C13.3662 32.4933 13.4407 32.4562 13.5059 32.4057C13.571 32.3552 13.6255 32.2923 13.6662 32.2206L14.2912 31.1375C14.3741 30.9939 14.3966 30.8234 14.3537 30.6633C14.3108 30.5031 14.206 30.3666 14.0625 30.2837ZM20 31.875C19.8342 31.875 19.6753 31.9408 19.5581 32.0581C19.4408 32.1753 19.375 32.3342 19.375 32.5V33.75C19.375 33.9158 19.4408 34.0747 19.5581 34.1919C19.6753 34.3092 19.8342 34.375 20 34.375C20.1658 34.375 20.3247 34.3092 20.4419 34.1919C20.5592 34.0747 20.625 33.9158 20.625 33.75V32.5C20.625 32.3342 20.5592 32.1753 20.4419 32.0581C20.3247 31.9408 20.1658 31.875 20 31.875ZM26.7913 30.5125C26.7505 30.4408 26.696 30.378 26.6309 30.3275C26.5657 30.277 26.4912 30.2398 26.4117 30.2182C26.3321 30.1966 26.2491 30.191 26.1674 30.2016C26.0856 30.2122 26.0068 30.2389 25.9354 30.2801C25.864 30.3214 25.8015 30.3763 25.7514 30.4418C25.7014 30.5072 25.6648 30.582 25.6437 30.6617C25.6226 30.7413 25.6175 30.8244 25.6287 30.9061C25.6399 30.9877 25.6671 31.0664 25.7087 31.1375L26.3337 32.2206C26.4172 32.363 26.5536 32.4666 26.7132 32.5088C26.8727 32.551 27.0425 32.5283 27.1854 32.4458C27.3284 32.3633 27.4329 32.2276 27.4761 32.0683C27.5193 31.909 27.4978 31.7391 27.4163 31.5956L26.7913 30.5125ZM32.2206 26.3337L31.1375 25.7087C31.0664 25.6671 30.9877 25.6399 30.9061 25.6287C30.8244 25.6175 30.7413 25.6226 30.6617 25.6437C30.582 25.6648 30.5072 25.7014 30.4418 25.7514C30.3763 25.8015 30.3214 25.864 30.2801 25.9354C30.2389 26.0068 30.2122 26.0856 30.2016 26.1674C30.191 26.2491 30.1966 26.3321 30.2182 26.4117C30.2398 26.4912 30.277 26.5657 30.3275 26.6309C30.378 26.696 30.4408 26.7505 30.5125 26.7913L31.5956 27.4163C31.6905 27.4713 31.7984 27.5002 31.9081 27.5C32.0457 27.5 32.1794 27.4546 32.2886 27.3708C32.3977 27.2871 32.4762 27.1697 32.5118 27.0368C32.5474 26.9039 32.5382 26.7629 32.4855 26.6358C32.4329 26.5087 32.3398 26.4025 32.2206 26.3337ZM33.75 19.375H32.5C32.3342 19.375 32.1753 19.4408 32.0581 19.5581C31.9408 19.6753 31.875 19.8342 31.875 20C31.875 20.1658 31.9408 20.3247 32.0581 20.4419C32.1753 20.5592 32.3342 20.625 32.5 20.625H33.75C33.9158 20.625 34.0747 20.5592 34.1919 20.4419C34.3092 20.3247 34.375 20.1658 34.375 20C34.375 19.8342 34.3092 19.6753 34.1919 19.5581C34.0747 19.4408 33.9158 19.375 33.75 19.375ZM30.8256 14.375C30.9354 14.3752 31.0432 14.3463 31.1381 14.2912L32.2213 13.6662C32.3636 13.5828 32.4672 13.4464 32.5094 13.2868C32.5516 13.1273 32.5289 12.9575 32.4464 12.8146C32.3639 12.6716 32.2282 12.5672 32.0689 12.5239C31.9096 12.4807 31.7397 12.5022 31.5963 12.5838L30.5131 13.2088C30.394 13.2775 30.3009 13.3837 30.2482 13.5108C30.1956 13.6379 30.1863 13.7789 30.2219 13.9118C30.2576 14.0447 30.336 14.1621 30.4452 14.2458C30.5543 14.3296 30.688 14.375 30.8256 14.375ZM27.1875 7.55063C27.044 7.46775 26.8734 7.44529 26.7132 7.48819C26.5531 7.53109 26.4166 7.63583 26.3337 7.77937L25.7087 8.8625C25.6671 8.93361 25.6399 9.01226 25.6287 9.09392C25.6175 9.17559 25.6226 9.25865 25.6437 9.33834C25.6648 9.41803 25.7014 9.49276 25.7514 9.55824C25.8015 9.62371 25.864 9.67864 25.9354 9.71985C26.0068 9.76107 26.0856 9.78775 26.1674 9.79838C26.2491 9.809 26.3321 9.80335 26.4117 9.78176C26.4912 9.76016 26.5657 9.72304 26.6309 9.67254C26.696 9.62204 26.7505 9.55915 26.7913 9.4875L27.4163 8.40437C27.4991 8.26083 27.5216 8.09023 27.4787 7.93013C27.4358 7.77002 27.331 7.63351 27.1875 7.55063Z" fill="white"/>
</svg>
