<svg xmlns="http://www.w3.org/2000/svg" data-name="Layer 1" viewBox="0 0 512 512"><g data-name="&lt;Group&gt;"><path d="M381.96,291.6a10,10,0,0,0-13.92,0l-38.149,36.976a10,10,0,1,0,13.92,14.361L365,322.4v68.82a10,10,0,1,0,20,0V322.4l21.189,20.538a10,10,0,1,0,13.92-14.361Z" data-name="&lt;Path&gt;"/><path d="M467,242.507V70c0-22.056-18.266-40-40.322-40H40A40.045,40.045,0,0,0,0,70V334.912A40.121,40.121,0,0,0,40,375H240.326c13.894,61,68.758,107.044,134.136,107.044,75.839,0,137.7-61.721,137.7-137.56C512.161,304.092,494,267.692,467,242.507ZM40,50H426.678A20.3,20.3,0,0,1,447,70V227.458a137.255,137.255,0,0,0-72.377-20.535,138.761,138.761,0,0,0-23.084,1.935,61.651,61.651,0,0,0-71.395,4.741l-70.221,58.6a41.068,41.068,0,0,1-46.351,4.177L20,195.924V70A20.024,20.024,0,0,1,40,50Zm0,305a20.1,20.1,0,0,1-20-20.088V218.85l133.8,74.983a60.969,60.969,0,0,0,68.862-6.234l70.2-58.6a41.216,41.216,0,0,1,23.687-9.271,137.781,137.781,0,0,0-79.629,124.778c0,3.515.134,6.494.4,10.494ZM374.462,462A117.539,117.539,0,1,1,492,344.462,117.672,117.672,0,0,1,374.462,462Z" data-name="&lt;Compound Path&gt;"/><path d="M166.646,206.107c35.981,0,65.254-28.182,65.254-62.822s-29.273-62.823-65.254-62.823-65.254,28.183-65.254,62.823S130.665,206.107,166.646,206.107Zm0-105.645c24.953,0,45.254,19.211,45.254,42.823s-20.3,42.822-45.254,42.822-45.254-19.21-45.254-42.822S141.693,100.462,166.646,100.462Z" data-name="&lt;Compound Path&gt;"/></g></svg>